<?xml version="1.0" encoding="UTF-8" standalone="no"?>
<!-- Created with Inkscape (http://www.inkscape.org/) -->

<svg
   xmlns:dc="http://purl.org/dc/elements/1.1/"
   xmlns:cc="http://creativecommons.org/ns#"
   xmlns:rdf="http://www.w3.org/1999/02/22-rdf-syntax-ns#"
   xmlns:svg="http://www.w3.org/2000/svg"
   xmlns="http://www.w3.org/2000/svg"
   xmlns:sodipodi="http://sodipodi.sourceforge.net/DTD/sodipodi-0.dtd"
   xmlns:inkscape="http://www.inkscape.org/namespaces/inkscape"
   width="62.031254"
   height="96.412277"
   id="svg4247"
   version="1.1"
   inkscape:version="0.48.2 r9819"
   sodipodi:docname="aballon_symbol.svg">
  <defs
     id="defs4249" />
  <sodipodi:namedview
     id="base"
     pagecolor="#ffffff"
     bordercolor="#666666"
     borderopacity="1.0"
     inkscape:pageopacity="0.0"
     inkscape:pageshadow="2"
     inkscape:zoom="0.35"
     inkscape:cx="243.37572"
     inkscape:cy="-6.6452764"
     inkscape:document-units="px"
     inkscape:current-layer="layer1"
     showgrid="false"
     fit-margin-top="0"
     fit-margin-left="0"
     fit-margin-right="0"
     fit-margin-bottom="0"
     inkscape:window-width="469"
     inkscape:window-height="425"
     inkscape:window-x="2501"
     inkscape:window-y="60"
     inkscape:window-maximized="0" />
  <metadata
     id="metadata4252">
    <rdf:RDF>
      <cc:Work
         rdf:about="">
        <dc:format>image/svg+xml</dc:format>
        <dc:type
           rdf:resource="http://purl.org/dc/dcmitype/StillImage" />
        <dc:title></dc:title>
      </cc:Work>
    </rdf:RDF>
  </metadata>
  <g
     inkscape:label="Layer 1"
     inkscape:groupmode="layer"
     id="layer1"
     transform="translate(-131.62428,-429.30463)">
    <path
       inkscape:connector-curvature="0"
       style="fill:#1e1811"
       d="m 183.06178,429.30815 c -3.60828,-0.0729 -5.55166,0.99211 -7.09375,2.8125 -2.64647,3.12408 -2.16356,4.72692 -1.625,16.125 0.50142,10.61214 0.33216,12.89764 -1.25,16.40625 -4.30227,9.54071 -17.83429,9.63526 -20.375,0.15625 -0.55322,-2.06397 -1.33699,-12.25 -1.71875,-17.75 -0.71638,-10.32073 -2.36051,-16.17209 -4.84375,-17.125 -3.28487,-1.26053 -11.95919,4.72866 -14.53125,7.1875 1.63906,0.6921 1.71321,0.63854 4.625,-0.75 5.56161,-2.65215 5.50363,-0.38064 6.40625,13.375 0.40872,6.22882 1.20758,16.49722 1.78125,17.9375 1.36441,3.42553 6.01593,5.86247 8.90625,6.875 1.83235,0.6419 4.52899,1.1828 5.5,1.375 0.40042,1.83263 0.69115,3.68445 0.59375,7.21875 l -0.15625,6.5 -5.5625,2.71875 c -7.01152,3.4018 -9.02965,9.8762 -8.59375,15.875 0.48545,6.68066 5.76234,13.684 12,16.125 7.75054,3.03305 18.14133,0.70142 24.5625,-4.59375 4.85991,-4.00771 8.25761,-11.40314 6.9375,-17.5625 -1.1715,-5.46598 -6.93889,-9.76944 -12.03125,-11.71875 -3.16066,-1.20987 -5.20812,-1.77245 -6.28125,-2.1875 -0.2886,-1.05695 -0.6875,-3.55079 -0.6875,-6.8125 l 0,-5.8125 5,-2.6875 c 7.56605,-4.11796 9.44016,-8.75176 8.53125,-20.875 -0.94644,-12.62373 -2.34068,-16.60707 6.21875,-17.96875 2.70643,-0.40346 4.20565,-0.18112 4.28125,-0.84375 0,0 0.0391,-1.97766 -6.375,-3.53125 -1.61168,-0.28592 -3.01599,-0.44444 -4.21875,-0.46875 z m -16.90625,65.375 c 5.11163,-0.31547 11.42629,4.35983 12.09375,9.4375 0.84598,6.43581 -5.22845,15.42456 -11.71875,15.53125 -6.0082,0.0988 -11.65983,-8.03055 -11.34375,-14.03125 0.27188,-5.16149 5.80993,-10.61911 10.96875,-10.9375 z"
       id="path3054" />
  </g>
</svg>
