<?xml version="1.0" encoding="UTF-8" standalone="no"?>
<!-- Created with Inkscape (http://www.inkscape.org/) -->

<svg
   xmlns:dc="http://purl.org/dc/elements/1.1/"
   xmlns:cc="http://creativecommons.org/ns#"
   xmlns:rdf="http://www.w3.org/1999/02/22-rdf-syntax-ns#"
   xmlns:svg="http://www.w3.org/2000/svg"
   xmlns="http://www.w3.org/2000/svg"
   xmlns:sodipodi="http://sodipodi.sourceforge.net/DTD/sodipodi-0.dtd"
   xmlns:inkscape="http://www.inkscape.org/namespaces/inkscape"
   width="73.28125"
   height="86.375"
   id="svg4247"
   version="1.1"
   inkscape:version="0.48.2 r9819"
   sodipodi:docname="akiton_symbol.svg">
  <defs
     id="defs4249" />
  <sodipodi:namedview
     id="base"
     pagecolor="#ffffff"
     bordercolor="#666666"
     borderopacity="1.0"
     inkscape:pageopacity="0.0"
     inkscape:pageshadow="2"
     inkscape:zoom="0.35"
     inkscape:cx="102.97038"
     inkscape:cy="74.758934"
     inkscape:document-units="px"
     inkscape:current-layer="layer1"
     showgrid="false"
     fit-margin-top="0"
     fit-margin-left="0"
     fit-margin-right="0"
     fit-margin-bottom="0"
     inkscape:window-width="469"
     inkscape:window-height="425"
     inkscape:window-x="2501"
     inkscape:window-y="60"
     inkscape:window-maximized="0" />
  <metadata
     id="metadata4252">
    <rdf:RDF>
      <cc:Work
         rdf:about="">
        <dc:format>image/svg+xml</dc:format>
        <dc:type
           rdf:resource="http://purl.org/dc/dcmitype/StillImage" />
        <dc:title></dc:title>
      </cc:Work>
    </rdf:RDF>
  </metadata>
  <g
     inkscape:label="Layer 1"
     inkscape:groupmode="layer"
     id="layer1"
     transform="translate(-272.02963,-520.74612)">
    <g
       id="g4028"
       transform="translate(-220.09537,96.589874)">
      <path
         id="path4028"
         d="m 528.75,440.8125 c -14.79132,0 -26.78125,11.98993 -26.78125,26.78125 0,14.79132 11.98993,26.78125 26.78125,26.78125 14.79132,0 26.78125,-11.98993 26.78125,-26.78125 0,-14.79132 -11.98993,-26.78125 -26.78125,-26.78125 z m -0.5,4.84375 c 9.2974,0 16.8125,9.49531 16.8125,21.1875 0,11.69219 -7.5151,21.15625 -16.8125,21.15625 -9.2974,0 -16.84375,-9.46406 -16.84375,-21.15625 0,-11.69219 7.54635,-21.1875 16.84375,-21.1875 z"
         style="fill:#000000;fill-opacity:1;stroke:#000000;stroke-width:0.5;stroke-miterlimit:4;stroke-opacity:1;stroke-dasharray:none;stroke-dashoffset:0"
         inkscape:connector-curvature="0" />
      <path
         inkscape:connector-curvature="0"
         id="path4032"
         d="m 544.81652,448.72994 9.82008,-6.63174 -7.14188,-16.3243 16.06924,21.55317 -11.86063,10.58529 z"
         style="fill:#000000;fill-opacity:1;stroke:#000000;stroke-width:1px;stroke-linecap:butt;stroke-linejoin:miter;stroke-opacity:1" />
      <path
         inkscape:connector-curvature="0"
         id="path4034"
         d="m 512.04038,449.62268 -8.41722,-6.12161 9.69256,-19.00251 -20.53291,23.33865 11.22296,12.62582 z"
         style="fill:#000000;fill-opacity:1;stroke:#000000;stroke-width:1px;stroke-linecap:butt;stroke-linejoin:miter;stroke-opacity:1" />
      <path
         inkscape:connector-curvature="0"
         id="path4036"
         d="m 503.87823,476.14967 -10.58529,12.37076 18.87498,21.68071 -8.79982,-17.98224 7.77955,-6.75928 z"
         style="fill:#000000;fill-opacity:1;stroke:#000000;stroke-width:1px;stroke-linecap:butt;stroke-linejoin:miter;stroke-opacity:1" />
      <path
         sodipodi:nodetypes="cccccc"
         inkscape:connector-curvature="0"
         id="path4038"
         d="m 547.36719,485.20455 7.39695,4.33615 -8.16216,20.66044 18.10978,-26.65452 -11.60556,-8.41722 z"
         style="fill:#000000;fill-opacity:1;stroke:#000000;stroke-width:1px;stroke-linecap:butt;stroke-linejoin:miter;stroke-opacity:1" />
    </g>
  </g>
</svg>
