<?xml version="1.0" encoding="UTF-8" standalone="no"?>
<!-- Created with Inkscape (http://www.inkscape.org/) -->

<svg
   xmlns:dc="http://purl.org/dc/elements/1.1/"
   xmlns:cc="http://creativecommons.org/ns#"
   xmlns:rdf="http://www.w3.org/1999/02/22-rdf-syntax-ns#"
   xmlns:svg="http://www.w3.org/2000/svg"
   xmlns="http://www.w3.org/2000/svg"
   xmlns:sodipodi="http://sodipodi.sourceforge.net/DTD/sodipodi-0.dtd"
   xmlns:inkscape="http://www.inkscape.org/namespaces/inkscape"
   width="107.6875"
   height="92.71875"
   id="svg4247"
   version="1.1"
   inkscape:version="0.48.2 r9819"
   sodipodi:docname="apostae_symbol.svg">
  <defs
     id="defs4249" />
  <sodipodi:namedview
     id="base"
     pagecolor="#ffffff"
     bordercolor="#666666"
     borderopacity="1.0"
     inkscape:pageopacity="0.0"
     inkscape:pageshadow="2"
     inkscape:zoom="0.35"
     inkscape:cx="126.36689"
     inkscape:cy="168.48373"
     inkscape:document-units="px"
     inkscape:current-layer="layer1"
     showgrid="false"
     fit-margin-top="0"
     fit-margin-left="0"
     fit-margin-right="0"
     fit-margin-bottom="0"
     inkscape:window-width="469"
     inkscape:window-height="425"
     inkscape:window-x="2501"
     inkscape:window-y="60"
     inkscape:window-maximized="0" />
  <metadata
     id="metadata4252">
    <rdf:RDF>
      <cc:Work
         rdf:about="">
        <dc:format>image/svg+xml</dc:format>
        <dc:type
           rdf:resource="http://purl.org/dc/dcmitype/StillImage" />
        <dc:title></dc:title>
      </cc:Work>
    </rdf:RDF>
  </metadata>
  <g
     inkscape:label="Layer 1"
     inkscape:groupmode="layer"
     id="layer1"
     transform="translate(-248.63312,-608.12717)">
    <g
       transform="translate(-363.72569,-131.74814)"
       id="g4190">
      <g
         transform="translate(6.0150551,-3.2809439)"
         id="g4181">
        <path
           inkscape:connector-curvature="0"
           style="fill:#000000;fill-opacity:1;stroke:#000000;stroke-width:0.48289347;stroke-miterlimit:4;stroke-opacity:1;stroke-dasharray:none;stroke-dashoffset:0"
           d="m 650.4375,759.53125 c -16.91684,0 -30.625,13.70816 -30.625,30.625 0,16.91684 13.70816,30.625 30.625,30.625 16.91684,0 30.625,-13.70816 30.625,-30.625 0,-16.91684 -13.70816,-30.625 -30.625,-30.625 z m 5.09375,10.15625 c 7.59084,-0.11554 14.37173,3.04074 17.71875,9.0625 5.35522,9.63482 -0.13873,22.93845 -12.28125,29.6875 -12.14252,6.74905 -26.33228,4.38482 -31.6875,-5.25 -5.35522,-9.63482 0.13873,-22.9072 12.28125,-29.65625 4.55344,-2.53089 9.41425,-3.77443 13.96875,-3.84375 z"
           id="path4153" />
        <path
           style="fill:#000000;fill-opacity:1;stroke:#000000;stroke-width:1px;stroke-linecap:butt;stroke-linejoin:miter;stroke-opacity:1"
           d="m 671.7723,750.24237 -17.63505,-6.28847 1.36706,4.23788 -4.92141,11.7567 13.94399,3.82776 3.00753,-10.52635 z"
           id="path4159"
           inkscape:connector-curvature="0"
           sodipodi:nodetypes="ccccccc" />
        <path
           style="fill:#000000;fill-opacity:1;stroke:#000000;stroke-width:1px;stroke-linecap:butt;stroke-linejoin:miter;stroke-opacity:1"
           d="m 639.37302,817.63833 -2.73412,11.34658 -3.00752,2.18729 14.76422,3.96447 -1.36705,-3.28094 2.32399,-12.44023 z"
           id="path4161"
           inkscape:connector-curvature="0" />
        <path
           style="fill:#000000;fill-opacity:1;stroke:#000000;stroke-width:1px;stroke-linecap:butt;stroke-linejoin:miter;stroke-opacity:1"
           d="m 609.16104,774.71271 -2.18729,14.90093 3.41764,-1.77718 10.79976,1.50377 2.73412,-10.38964 -11.34659,-1.64047 z"
           id="path4163"
           inkscape:connector-curvature="0" />
        <path
           style="fill:#000000;fill-opacity:1;stroke:#000000;stroke-width:1px;stroke-linecap:butt;stroke-linejoin:miter;stroke-opacity:1"
           d="m 692.27817,807.38539 1.77717,-14.0807 -3.28094,2.73412 -11.61999,-1.23035 -1.23035,7.79223 11.8934,2.4607 z"
           id="path4165"
           inkscape:connector-curvature="0" />
        <path
           style="fill:#000000;fill-opacity:1;stroke:#000000;stroke-width:1px;stroke-linecap:butt;stroke-linejoin:miter;stroke-opacity:1"
           d="m 617.36339,754.34354 12.71364,-9.29599 0,4.92141 47.43691,74.64136 4.37458,2.18729 -11.34658,8.06565 -0.1367,-4.10118 -47.0268,-74.91477 z"
           id="path4167"
           inkscape:connector-curvature="0" />
        <path
           style="fill:#000000;fill-opacity:1;stroke:#000000;stroke-width:1px;stroke-linecap:butt;stroke-linejoin:miter;stroke-opacity:1"
           d="m 701.30075,749.01202 11.61999,15.85787 -5.74164,-0.82024 -87.2183,53.31526 -2.32401,5.19483 -8.74916,-12.85035 3.96447,0 86.80818,-54.54561 z"
           id="path4169"
           inkscape:connector-curvature="0"
           sodipodi:nodetypes="ccccccccc" />
      </g>
    </g>
  </g>
</svg>
