<?xml version="1.0" encoding="UTF-8" standalone="no"?>
<!-- Created with Inkscape (http://www.inkscape.org/) -->

<svg
   xmlns:dc="http://purl.org/dc/elements/1.1/"
   xmlns:cc="http://creativecommons.org/ns#"
   xmlns:rdf="http://www.w3.org/1999/02/22-rdf-syntax-ns#"
   xmlns:svg="http://www.w3.org/2000/svg"
   xmlns="http://www.w3.org/2000/svg"
   xmlns:sodipodi="http://sodipodi.sourceforge.net/DTD/sodipodi-0.dtd"
   xmlns:inkscape="http://www.inkscape.org/namespaces/inkscape"
   width="83.15625"
   height="107.46875"
   id="svg4247"
   version="1.1"
   inkscape:version="0.48.2 r9819"
   sodipodi:docname="aucturn_symbol.svg">
  <defs
     id="defs4249" />
  <sodipodi:namedview
     id="base"
     pagecolor="#ffffff"
     bordercolor="#666666"
     borderopacity="1.0"
     inkscape:pageopacity="0.0"
     inkscape:pageshadow="2"
     inkscape:zoom="0.35"
     inkscape:cx="41.24491"
     inkscape:cy="53.528802"
     inkscape:document-units="px"
     inkscape:current-layer="layer1"
     showgrid="false"
     fit-margin-top="0"
     fit-margin-left="0"
     fit-margin-right="0"
     fit-margin-bottom="0"
     inkscape:window-width="469"
     inkscape:window-height="425"
     inkscape:window-x="2501"
     inkscape:window-y="60"
     inkscape:window-maximized="0" />
  <metadata
     id="metadata4252">
    <rdf:RDF>
      <cc:Work
         rdf:about="">
        <dc:format>image/svg+xml</dc:format>
        <dc:type
           rdf:resource="http://purl.org/dc/dcmitype/StillImage" />
        <dc:title></dc:title>
      </cc:Work>
    </rdf:RDF>
  </metadata>
  <g
     inkscape:label="Layer 1"
     inkscape:groupmode="layer"
     id="layer1"
     transform="translate(-333.7551,-478.42224)">
    <g
       id="g4102"
       transform="translate(-395.27615,-253.82776)">
      <path
         sodipodi:nodetypes="caccacc"
         inkscape:connector-curvature="0"
         id="path3139"
         d="m 731.24131,780.57795 c 0,0 11.4033,1.62283 17.14709,1.91644 18.3343,0.9372 55.07242,-0.50433 55.07242,-0.50433 l 7.46403,6.85884 c 0,0 -41.62079,1.00864 -62.43559,1.21038 -6.28697,0.0609 -18.8618,0 -18.8618,0 z"
         style="fill:#000000;stroke:#000000;stroke-width:1px;stroke-linecap:butt;stroke-linejoin:miter;stroke-opacity:1" />
      <path
         sodipodi:nodetypes="ccccc"
         inkscape:connector-curvature="0"
         id="path3141"
         d="m 741.1261,759.19452 0.60519,51.03781 6.05192,0.20173 -1.00865,-50.43262 z"
         style="fill:#000000;stroke:#000000;stroke-width:1px;stroke-linecap:butt;stroke-linejoin:miter;stroke-opacity:1" />
      <path
         sodipodi:nodetypes="caccacc"
         inkscape:connector-curvature="0"
         id="path3143"
         d="m 762.3078,739.62666 c 0,0 1.43729,8.44331 1.71471,12.70902 1.54921,23.82134 -0.30259,71.61433 -0.30259,71.61433 l 7.46402,0.20173 c 0,0 0.85517,-48.56487 0,-72.82471 -0.20185,-5.72636 -1.21038,-17.14709 -1.21038,-17.14709 z"
         style="fill:#000000;stroke:#000000;stroke-width:1px;stroke-linecap:butt;stroke-linejoin:miter;stroke-opacity:1" />
      <path
         sodipodi:nodetypes="caccacc"
         inkscape:connector-curvature="0"
         id="path3145"
         d="m 783.08604,743.45954 c 0,0 -0.35911,17.9612 0,26.93102 0.53838,13.44738 3.22769,40.24523 3.22769,40.24523 l 6.45538,-0.20173 c 0,0 -3.18605,-26.51757 -3.93374,-39.84177 -0.41258,-7.35229 -0.3026,-22.08949 -0.3026,-22.08949 z"
         style="fill:#000000;stroke:#000000;stroke-width:1px;stroke-linecap:butt;stroke-linejoin:miter;stroke-opacity:1" />
      <path
         sodipodi:nodetypes="ccccccc"
         inkscape:connector-curvature="0"
         id="path3147"
         d="m 768.76318,759.79971 c 8.63629,-0.32724 29.8985,1.91828 30.05784,-7.06057 0,-5.04326 0.40346,-16.94536 0.40346,-16.94536 l 3.61682,-2.63263 c 0,0 2.89765,22.07045 -0.93943,25.25932 -6.87483,7.63512 -16.66134,6.64981 -32.73523,7.83462 z"
         style="fill:#000000;stroke:#000000;stroke-width:1px;stroke-linecap:butt;stroke-linejoin:miter;stroke-opacity:1" />
      <path
         id="path3149"
         d="m 743.75,741.65625 c -5.2364,0 -9.46875,4.15627 -9.46875,9.28125 0,5.12498 4.23235,9.28125 9.46875,9.28125 5.2364,0 9.46875,-4.15627 9.46875,-9.28125 0,-5.12498 -4.23235,-9.28125 -9.46875,-9.28125 z m -0.21875,4.96875 c 2.04454,0 3.71875,1.67421 3.71875,3.71875 0,2.04454 -1.67421,3.6875 -3.71875,3.6875 -2.04454,0 -3.6875,-1.64296 -3.6875,-3.6875 0,-2.04454 1.64296,-3.71875 3.6875,-3.71875 z"
         style="fill:#000000;fill-opacity:1;stroke:#000000;stroke-width:0.5;stroke-miterlimit:4;stroke-opacity:1;stroke-dasharray:none;stroke-dashoffset:0"
         inkscape:connector-curvature="0" />
      <path
         id="path3151"
         d="m 745.5625,809.03125 c -4.79075,0 -8.6875,3.68208 -8.6875,8.25 0,4.56792 3.89675,8.28125 8.6875,8.28125 4.79075,0 8.6875,-3.71333 8.6875,-8.28125 0,-4.56792 -3.89675,-8.25 -8.6875,-8.25 z m 0,4.78125 c 2.10712,0 3.8125,1.66143 3.8125,3.6875 0,2.02607 -1.70538,3.65625 -3.8125,3.65625 -2.10712,0 -3.8125,-1.63018 -3.8125,-3.65625 0,-2.02607 1.70538,-3.6875 3.8125,-3.6875 z"
         style="fill:#000000;fill-opacity:1;stroke:#000000;stroke-width:0.5;stroke-miterlimit:4;stroke-opacity:1;stroke-dasharray:none;stroke-dashoffset:0"
         inkscape:connector-curvature="0" />
      <path
         id="path3153"
         d="m 767.34375,821.71875 c -4.67933,0 -8.46875,3.97284 -8.46875,8.875 0,4.90216 3.78942,8.875 8.46875,8.875 4.67933,0 8.46875,-3.97284 8.46875,-8.875 0,-4.90216 -3.78942,-8.875 -8.46875,-8.875 z m 0.21875,4.90625 c 2.20031,0 3.96875,1.76844 3.96875,3.96875 0,2.20031 -1.76844,4 -3.96875,4 -2.20031,0 -4,-1.79969 -4,-4 0,-2.20031 1.79969,-3.96875 4,-3.96875 z"
         style="fill:#000000;fill-opacity:1;stroke:#000000;stroke-width:0.5;stroke-miterlimit:4;stroke-opacity:1;stroke-dasharray:none;stroke-dashoffset:0"
         inkscape:connector-curvature="0" />
      <path
         id="path3157"
         d="m 790.15625,808.8125 c -4.45651,0 -8.09375,3.60599 -8.09375,8.0625 0,4.45651 3.63724,8.09375 8.09375,8.09375 4.45651,0 8.0625,-3.63724 8.0625,-8.09375 0,-4.45651 -3.60599,-8.0625 -8.0625,-8.0625 z m 0.40625,4.125 c 2.07389,0 3.75,1.67611 3.75,3.75 0,2.07389 -1.67611,3.75 -3.75,3.75 -2.07389,0 -3.78125,-1.67611 -3.78125,-3.75 0,-2.07389 1.70736,-3.75 3.78125,-3.75 z"
         style="fill:#000000;fill-opacity:1;stroke:#000000;stroke-width:0.5;stroke-miterlimit:4;stroke-opacity:1;stroke-dasharray:none;stroke-dashoffset:0"
         inkscape:connector-curvature="0" />
    </g>
  </g>
</svg>
