<?xml version="1.0" encoding="UTF-8" standalone="no"?>
<!-- Created with Inkscape (http://www.inkscape.org/) -->

<svg
   xmlns:dc="http://purl.org/dc/elements/1.1/"
   xmlns:cc="http://creativecommons.org/ns#"
   xmlns:rdf="http://www.w3.org/1999/02/22-rdf-syntax-ns#"
   xmlns:svg="http://www.w3.org/2000/svg"
   xmlns="http://www.w3.org/2000/svg"
   xmlns:sodipodi="http://sodipodi.sourceforge.net/DTD/sodipodi-0.dtd"
   xmlns:inkscape="http://www.inkscape.org/namespaces/inkscape"
   width="59.8125"
   height="78.59375"
   id="svg4247"
   version="1.1"
   inkscape:version="0.48.2 r9819"
   sodipodi:docname="bretheda_symbol.svg">
  <defs
     id="defs4249" />
  <sodipodi:namedview
     id="base"
     pagecolor="#ffffff"
     bordercolor="#666666"
     borderopacity="1.0"
     inkscape:pageopacity="0.0"
     inkscape:pageshadow="2"
     inkscape:zoom="0.35"
     inkscape:cx="29.906255"
     inkscape:cy="39.296876"
     inkscape:document-units="px"
     inkscape:current-layer="layer1"
     showgrid="false"
     fit-margin-top="0"
     fit-margin-left="0"
     fit-margin-right="0"
     fit-margin-bottom="0"
     inkscape:window-width="469"
     inkscape:window-height="425"
     inkscape:window-x="2501"
     inkscape:window-y="60"
     inkscape:window-maximized="0" />
  <metadata
     id="metadata4252">
    <rdf:RDF>
      <cc:Work
         rdf:about="">
        <dc:format>image/svg+xml</dc:format>
        <dc:type
           rdf:resource="http://purl.org/dc/dcmitype/StillImage" />
        <dc:title></dc:title>
      </cc:Work>
    </rdf:RDF>
  </metadata>
  <g
     inkscape:label="Layer 1"
     inkscape:groupmode="layer"
     id="layer1"
     transform="translate(-345.09375,-493.06531)">
    <g
       id="g4076"
       transform="translate(-189.03125,-254.30969)">
      <path
         id="path3079"
         d="m 563.03125,791 c -12.81246,0 -23.1875,7.76226 -23.1875,17.34375 0,9.58149 10.37504,17.375 23.1875,17.375 12.81246,0 23.1875,-7.79351 23.1875,-17.375 0,-9.58149 -10.37504,-17.34375 -23.1875,-17.34375 z m -0.21875,3.65625 c 7.24182,0 13.125,5.6685 13.125,12.6875 0,7.019 -5.88318,12.71875 -13.125,12.71875 -7.24182,0 -13.09375,-5.69975 -13.09375,-12.71875 0,-7.019 5.85193,-12.6875 13.09375,-12.6875 z"
         style="fill:#000000;fill-opacity:1;stroke:#000000;stroke-width:0.5;stroke-miterlimit:4;stroke-opacity:1;stroke-dasharray:none;stroke-dashoffset:0"
         inkscape:connector-curvature="0" />
      <path
         id="path3077"
         d="m 564.03125,747.625 c -16.37766,0 -29.65625,11.03265 -29.65625,24.625 0,13.59235 13.27859,24.625 29.65625,24.625 16.37766,0 29.65625,-11.03265 29.65625,-24.625 0,-13.59235 -13.27859,-24.625 -29.65625,-24.625 z m -0.59375,3.4375 c 9.80432,0 17.75,8.93889 17.75,19.96875 0,11.02986 -7.94568,19.96875 -17.75,19.96875 -9.80432,0 -17.75,-8.93889 -17.75,-19.96875 0,-11.02986 7.94568,-19.96875 17.75,-19.96875 z"
         style="fill:#000000;fill-opacity:1;stroke:#000000;stroke-width:0.5;stroke-miterlimit:4;stroke-opacity:1;stroke-dasharray:none;stroke-dashoffset:0"
         inkscape:connector-curvature="0" />
    </g>
  </g>
</svg>
