<?xml version="1.0" encoding="UTF-8" standalone="no"?>
<!-- Created with Inkscape (http://www.inkscape.org/) -->

<svg
   xmlns:dc="http://purl.org/dc/elements/1.1/"
   xmlns:cc="http://creativecommons.org/ns#"
   xmlns:rdf="http://www.w3.org/1999/02/22-rdf-syntax-ns#"
   xmlns:svg="http://www.w3.org/2000/svg"
   xmlns="http://www.w3.org/2000/svg"
   xmlns:sodipodi="http://sodipodi.sourceforge.net/DTD/sodipodi-0.dtd"
   xmlns:inkscape="http://www.inkscape.org/namespaces/inkscape"
   width="87.721443"
   height="88.144173"
   id="svg4247"
   version="1.1"
   inkscape:version="0.48.2 r9819"
   sodipodi:docname="castrovel_symbol.svg">
  <defs
     id="defs4249" />
  <sodipodi:namedview
     id="base"
     pagecolor="#ffffff"
     bordercolor="#666666"
     borderopacity="1.0"
     inkscape:pageopacity="0.0"
     inkscape:pageshadow="2"
     inkscape:zoom="0.35"
     inkscape:cx="141.51961"
     inkscape:cy="66.001316"
     inkscape:document-units="px"
     inkscape:current-layer="layer1"
     showgrid="false"
     fit-margin-top="0"
     fit-margin-left="0"
     fit-margin-right="0"
     fit-margin-bottom="0"
     inkscape:window-width="469"
     inkscape:window-height="425"
     inkscape:window-x="2501"
     inkscape:window-y="60"
     inkscape:window-maximized="0" />
  <metadata
     id="metadata4252">
    <rdf:RDF>
      <cc:Work
         rdf:about="">
        <dc:format>image/svg+xml</dc:format>
        <dc:type
           rdf:resource="http://purl.org/dc/dcmitype/StillImage" />
        <dc:title></dc:title>
      </cc:Work>
    </rdf:RDF>
  </metadata>
  <g
     inkscape:label="Layer 1"
     inkscape:groupmode="layer"
     id="layer1"
     transform="translate(-233.48039,-510.21933)">
    <g
       id="g4052"
       transform="translate(-89.173465,93.392645)">
      <path
         id="path4151"
         d="m 367.8125,435.34375 c -14.22784,0 -25.78125,11.55341 -25.78125,25.78125 0,14.22784 11.55341,25.75 25.78125,25.75 14.22784,0 25.75,-11.52216 25.75,-25.75 0,-14.22784 -11.52216,-25.78125 -25.75,-25.78125 z m -0.125,5.125 c 0.29128,-0.0179 0.58005,0 0.875,0 9.43827,0 17.09375,9.2458 17.09375,20.65625 0,11.41045 -7.65548,20.65625 -17.09375,20.65625 -9.43827,0 -17.09375,-9.2458 -17.09375,-20.65625 0,-11.05387 7.18917,-20.1029 16.21875,-20.65625 z"
         style="fill:#000000;fill-opacity:1;stroke:#000000;stroke-width:0.5;stroke-miterlimit:4;stroke-opacity:1;stroke-dasharray:none;stroke-dashoffset:0"
         inkscape:connector-curvature="0" />
      <path
         inkscape:connector-curvature="0"
         id="path3953"
         d="m 361.58684,441.56067 3.69105,42.3788 9.56941,-0.54682 -2.73412,-43.88256 z"
         style="fill:#000000;fill-opacity:1;stroke:#000000;stroke-width:1px;stroke-linecap:butt;stroke-linejoin:miter;stroke-opacity:1" />
      <path
         sodipodi:nodetypes="ssccssssccss"
         inkscape:connector-curvature="0"
         id="path3177"
         d="m 346.625,417.09375 c -12.00552,0.47728 -22.17969,9.66175 -23.5625,21.96875 -1.52586,13.58014 8.23236,25.84914 21.8125,27.375 6.87538,-15.23752 13.42827,-31.28977 27.03125,-29.53125 -2.13334,-10.52679 -10.82637,-18.45697 -21.5,-19.65625 -1.27314,-0.14305 -2.5393,-0.20562 -3.78125,-0.15625 z m 0.71875,7.53125 c 1.34373,-0.0695 2.72576,0.10729 4.09375,0.5625 4.64177,1.54457 8.29778,6.01072 9.625,11.78125 -14.23367,3.94832 -15.17773,12.69566 -16.65625,21.25 -7.29597,-2.42777 -11.62971,-11.78629 -9.6875,-20.90625 1.57805,-7.40996 6.80216,-12.38616 12.625,-12.6875 z"
         style="fill:#000000;fill-opacity:1;stroke:#000000;stroke-width:0.5;stroke-miterlimit:4;stroke-opacity:1;stroke-dasharray:none;stroke-dashoffset:0" />
      <path
         sodipodi:nodetypes="ccssccsscc"
         inkscape:connector-curvature="0"
         id="path3181"
         d="m 392.90625,460.25 c -12.68767,21.36519 -19.77979,22.34662 -27.5625,25.84375 1.55779,8.80489 8.18911,15.84553 16.875,17.96875 12.10129,2.95809 24.29191,-4.42996 27.25,-16.53125 2.95809,-12.10129 -4.46121,-24.32316 -16.5625,-27.28125 z m -0.125,4.21875 c 7.86137,2.26057 12.73562,11.8238 10.875,21.375 -1.86062,9.5512 -9.73238,15.44807 -17.59375,13.1875 -5.88886,-1.69337 -10.31088,-7.58949 -11.125,-14.875 10.25194,-4.07941 17.0539,-10.14919 17.84375,-19.6875 z"
         style="fill:#000000;fill-opacity:1;stroke:#000000;stroke-width:0.5;stroke-miterlimit:4;stroke-opacity:1;stroke-dasharray:none;stroke-dashoffset:0" />
    </g>
  </g>
</svg>
