<?xml version="1.0" encoding="UTF-8" standalone="no"?>
<!-- Created with Inkscape (http://www.inkscape.org/) -->

<svg
   xmlns:dc="http://purl.org/dc/elements/1.1/"
   xmlns:cc="http://creativecommons.org/ns#"
   xmlns:rdf="http://www.w3.org/1999/02/22-rdf-syntax-ns#"
   xmlns:svg="http://www.w3.org/2000/svg"
   xmlns="http://www.w3.org/2000/svg"
   xmlns:sodipodi="http://sodipodi.sourceforge.net/DTD/sodipodi-0.dtd"
   xmlns:inkscape="http://www.inkscape.org/namespaces/inkscape"
   id="svg2"
   version="1.1"
   inkscape:version="0.91 r13725"
   xml:space="preserve"
   width="300"
   height="431.63199"
   viewBox="0 0 300 431.63199"
   sodipodi:docname="Deep Silver.svg"><metadata
     id="metadata8"><rdf:RDF><cc:Work
         rdf:about=""><dc:format>image/svg+xml</dc:format><dc:type
           rdf:resource="http://purl.org/dc/dcmitype/StillImage" /><dc:title></dc:title></cc:Work></rdf:RDF></metadata><defs
     id="defs6"><clipPath
       clipPathUnits="userSpaceOnUse"
       id="clipPath364"><path
         d="m 360,99.633 30.349,0 0,45.643 -30.349,0 0,-45.643 z"
         id="path366"
         inkscape:connector-curvature="0" /></clipPath></defs><sodipodi:namedview
     pagecolor="#ffffff"
     bordercolor="#666666"
     borderopacity="1"
     objecttolerance="10"
     gridtolerance="10"
     guidetolerance="10"
     inkscape:pageopacity="0"
     inkscape:pageshadow="2"
     inkscape:window-width="1920"
     inkscape:window-height="1017"
     id="namedview4"
     showgrid="false"
     inkscape:zoom="0.70710678"
     inkscape:cx="454.03444"
     inkscape:cy="148.097"
     inkscape:window-x="-8"
     inkscape:window-y="-8"
     inkscape:window-maximized="1"
     inkscape:current-layer="svg2" /><g
     id="g10"
     inkscape:groupmode="layer"
     inkscape:label="PC SR4 Manual UK+INT+SCA zur Ansicht"
     transform="matrix(15.338207,0,0,-15.338207,-5610.8896,2161.7496)"><g
       id="g360"><g
         id="g362"
         clip-path="url(#clipPath364)"><g
           id="g368"
           transform="translate(367.4601,113.0127)"><path
             d="m 0,0 c -0.791,0 -1.434,0.643 -1.434,1.434 l 0,24.843 c 0,0.791 0.643,1.434 1.434,1.434 l 16.261,0 c 0.791,0 1.434,-0.643 1.434,-1.434 l 0,-24.843 C 17.695,0.643 17.052,0 16.261,0 L 0,0 Z"
             style="fill:#ffffff;fill-opacity:1;fill-rule:nonzero;stroke:none"
             id="path370"
             inkscape:connector-curvature="0" /></g><g
           id="g372"
           transform="translate(383.7213,140.9389)"><path
             d="m 0,0 -16.261,0 c -0.909,0 -1.649,-0.74 -1.649,-1.649 l 0,-24.843 c 0,-0.91 0.74,-1.649 1.649,-1.649 l 16.261,0 c 0.909,0 1.649,0.739 1.649,1.649 l 0,24.843 C 1.649,-0.74 0.909,0 0,0 m 0,-0.43 c 0.673,0 1.219,-0.546 1.219,-1.219 l 0,-24.843 c 0,-0.674 -0.546,-1.219 -1.219,-1.219 l -16.261,0 c -0.673,0 -1.219,0.545 -1.219,1.219 l 0,24.843 c 0,0.673 0.546,1.219 1.219,1.219 L 0,-0.43"
             style="fill:#2b2b2a;fill-opacity:1;fill-rule:nonzero;stroke:none"
             id="path374"
             inkscape:connector-curvature="0" /></g><g
           id="g376"
           transform="translate(376.6734,122.7415)"><path
             d="M 0,0 C -0.492,-0.002 -1.004,0.057 -1.533,0.187 2.812,1.54 4.057,3.97 3.085,4.883 3.026,4.935 2.968,4.981 2.91,5.027 2.026,5.676 0.579,5.49 -1.283,3.38 -1.367,3.283 -1.45,3.189 -1.537,3.085 l 0.002,0 c -3.666,-4.283 -9.974,3.65 -5.146,8.769 -0.998,-4.441 0.484,-6.736 1.759,-6.346 0.762,0.23 1.331,0.912 1.331,2.201 0,0.707 -0.171,1.598 -0.576,2.698 -1.12,3.067 1.483,4.808 4.386,4.598 2.341,-0.118 4.874,-1.502 5.779,-4.527 -3.346,3.085 -6.072,2.95 -6.376,1.65 -0.032,-0.136 -0.049,-0.274 -0.049,-0.413 0,-1.081 1.025,-2.193 3.915,-2.69 C 8.6,8.073 5.832,-0.024 0,0 m 6.428,16.161 -14.984,0 c -0.404,0 -0.732,-0.327 -0.732,-0.731 l 0,-15.694 c 0,-0.404 0.328,-0.731 0.732,-0.731 l 14.984,0 c 0.404,0 0.732,0.327 0.732,0.731 l 0,15.694 c 0,0.404 -0.328,0.731 -0.732,0.731"
             style="fill:#2b2b2a;fill-opacity:1;fill-rule:nonzero;stroke:none"
             id="path378"
             inkscape:connector-curvature="0" /></g><g
           id="g380"
           transform="translate(369.2589,118.6038)"><path
             d="m 0,0 -0.981,0 0,1.706 0.965,0 C 0.248,1.702 0.356,1.695 0.483,1.655 0.595,1.625 0.673,1.578 0.711,1.552 0.97,1.374 1.008,1.058 1.008,0.885 1.008,0.436 0.828,0.157 0.473,0.055 0.353,0.019 0.19,0 0,0 M 1.907,0.865 C 1.907,1.273 1.744,1.642 1.46,1.88 1.337,1.984 1.219,2.042 1.179,2.059 0.795,2.257 0.427,2.277 0.018,2.28 l -1.899,0 0,-2.853 1.788,0 0,0 c 0.458,0.004 0.629,0.017 0.834,0.066 0.249,0.058 0.461,0.156 0.645,0.298 0.346,0.26 0.521,0.622 0.521,1.074"
             style="fill:#2b2b2a;fill-opacity:1;fill-rule:nonzero;stroke:none"
             id="path382"
             inkscape:connector-curvature="0" /></g><g
           id="g384"
           transform="translate(375.3566,118.6275)"><path
             d="m 0,0 -2.447,0 0,0.557 2.34,0 0,0.597 -2.34,0 0,0.521 2.35,0 0,0.582 -3.235,0 0,-2.854 3.332,0 L 0,0 Z"
             style="fill:#2b2b2a;fill-opacity:1;fill-rule:nonzero;stroke:none"
             id="path386"
             inkscape:connector-curvature="0" /></g><g
           id="g388"
           transform="translate(379.5849,118.6275)"><path
             d="m 0,0 -2.457,0 0,0.547 2.35,0 0,0.607 -2.35,0 0,0.521 2.36,0 0,0.582 -3.235,0 0,-2.854 3.332,0 L 0,0 Z"
             style="fill:#2b2b2a;fill-opacity:1;fill-rule:nonzero;stroke:none"
             id="path390"
             inkscape:connector-curvature="0" /></g><g
           id="g392"
           transform="translate(382.8024,119.6832)"><path
             d="m 0,0 c -0.116,-0.039 -0.289,-0.039 -0.416,-0.039 l -1.028,0 0,0.678 1.179,0 C -0.151,0.635 -0.113,0.631 -0.053,0.619 0.189,0.558 0.215,0.37 0.215,0.292 0.215,0.144 0.145,0.049 0,0 m -1.444,-0.609 1.174,0 c 0.303,0.004 0.647,0.008 0.914,0.138 0.12,0.061 0.196,0.132 0.228,0.161 0.081,0.074 0.119,0.138 0.139,0.179 0.09,0.158 0.104,0.333 0.104,0.423 0,0.286 -0.113,0.464 -0.16,0.525 -0.168,0.235 -0.451,0.356 -0.891,0.38 -0.087,0.004 -0.176,0.004 -0.262,0.004 l -2.136,0 0,-2.854 0.89,0 0,1.044 z"
             style="fill:#2b2b2a;fill-opacity:1;fill-rule:nonzero;stroke:none"
             id="path394"
             inkscape:connector-curvature="0" /></g><g
           id="g396"
           transform="translate(368.4835,116.8401)"><path
             d="m 0,0 c 0.098,0.014 0.173,0.014 0.214,0.014 0.22,0 0.513,-0.036 0.663,-0.21 l 0.006,-0.006 c 0.005,-0.005 0.015,-0.017 0.03,-0.041 l 0.047,-0.073 0.759,0.191 -0.09,0.14 C 1.588,0.08 1.547,0.131 1.48,0.2 1.375,0.302 1.257,0.383 1.131,0.438 0.949,0.526 0.699,0.615 0.218,0.615 c -0.403,0 -0.726,-0.081 -0.958,-0.242 -0.228,-0.154 -0.35,-0.381 -0.353,-0.657 0.003,-0.305 0.169,-0.557 0.455,-0.691 0.216,-0.102 0.471,-0.142 0.934,-0.212 l 0.068,-0.011 c 0.209,-0.033 0.39,-0.061 0.461,-0.116 0.041,-0.03 0.062,-0.074 0.062,-0.128 0,-0.105 -0.076,-0.164 -0.102,-0.18 -0.118,-0.082 -0.337,-0.111 -0.51,-0.111 -0.234,0 -0.652,0.045 -0.824,0.347 l -0.045,0.079 -0.735,-0.187 0.079,-0.137 c 0.01,-0.019 0.02,-0.035 0.032,-0.051 0.04,-0.067 0.148,-0.217 0.293,-0.332 0.083,-0.062 0.163,-0.111 0.194,-0.126 0.179,-0.097 0.451,-0.208 0.96,-0.208 0.096,0 0.193,0.004 0.291,0.012 0.167,0.016 0.309,0.036 0.455,0.082 0.435,0.139 0.669,0.435 0.675,0.857 0,0.546 -0.435,0.695 -0.58,0.744 -0.093,0.031 -0.176,0.051 -0.37,0.085 -0.06,0.012 -0.146,0.027 -0.244,0.043 L 0.44,-0.522 c -0.209,0.035 -0.47,0.079 -0.593,0.115 -0.142,0.046 -0.169,0.098 -0.169,0.172 0,0.171 0.199,0.22 0.322,0.235"
             style="fill:#2b2b2a;fill-opacity:1;fill-rule:nonzero;stroke:none"
             id="path398"
             inkscape:connector-curvature="0" /></g><path
           d="m 370.681,114.575 0.794,0 0,2.797 -0.794,0 0,-2.797 z"
           style="fill:#2b2b2a;fill-opacity:1;fill-rule:nonzero;stroke:none"
           id="path400"
           inkscape:connector-curvature="0" /><g
           id="g402"
           transform="translate(372.9283,117.3719)"><path
             d="m 0,0 -0.794,0 0,-2.797 2.278,0 0,0.616 L 0,-2.181 0,0 Z"
             style="fill:#2b2b2a;fill-opacity:1;fill-rule:nonzero;stroke:none"
             id="path404"
             inkscape:connector-curvature="0" /></g><g
           id="g406"
           transform="translate(375.7948,115.5813)"><path
             d="m 0,0 c 0,0 -0.03,-0.069 -0.03,-0.069 -0.007,0.018 -0.013,0.036 -0.019,0.058 l -0.002,0.005 -0.733,1.797 -0.875,0 1.263,-2.797 0.731,0 1.255,2.797 -0.855,0 L 0,0 Z"
             style="fill:#2b2b2a;fill-opacity:1;fill-rule:nonzero;stroke:none"
             id="path408"
             inkscape:connector-curvature="0" /></g><g
           id="g410"
           transform="translate(378.5244,115.6885)"><path
             d="m 0,0 1.761,0 0,0.6 -1.761,0 0,0.479 1.822,0 0,0.604 -2.616,0 0,-2.796 2.691,0 0,0.6 L 0,-0.513 0,0 Z"
             style="fill:#2b2b2a;fill-opacity:1;fill-rule:nonzero;stroke:none"
             id="path412"
             inkscape:connector-curvature="0" /></g><g
           id="g414"
           transform="translate(381.7575,116.779)"><path
             d="m 0,0 0.99,0 c 0.156,-0.004 0.255,-0.014 0.316,-0.108 0.032,-0.049 0.043,-0.121 0.043,-0.167 0,-0.13 -0.06,-0.209 -0.189,-0.247 -0.042,-0.007 -0.116,-0.01 -0.15,-0.01 L 0,-0.532 0,0 Z m 1.499,-1.066 c 0.234,0.052 0.455,0.152 0.574,0.421 0.07,0.154 0.078,0.289 0.078,0.377 0,0.393 -0.222,0.703 -0.578,0.809 C 1.458,0.577 1.35,0.589 1.112,0.593 l -1.902,0 0,-2.797 0.79,0 0,1.076 0.67,0 0.712,-1.076 0.945,0 -0.828,1.138 z"
             style="fill:#2b2b2a;fill-opacity:1;fill-rule:nonzero;stroke:none"
             id="path416"
             inkscape:connector-curvature="0" /></g></g></g></g></svg>