<?xml version="1.0" encoding="UTF-8" standalone="no"?>
<!-- Created with Inkscape (http://www.inkscape.org/) -->

<svg
   xmlns:dc="http://purl.org/dc/elements/1.1/"
   xmlns:cc="http://creativecommons.org/ns#"
   xmlns:rdf="http://www.w3.org/1999/02/22-rdf-syntax-ns#"
   xmlns:svg="http://www.w3.org/2000/svg"
   xmlns="http://www.w3.org/2000/svg"
   xmlns:sodipodi="http://sodipodi.sourceforge.net/DTD/sodipodi-0.dtd"
   xmlns:inkscape="http://www.inkscape.org/namespaces/inkscape"
   width="77.858582"
   height="66.930878"
   id="svg4247"
   version="1.1"
   inkscape:version="0.48.2 r9819"
   sodipodi:docname="diaspora_symbol.svg">
  <defs
     id="defs4249" />
  <sodipodi:namedview
     id="base"
     pagecolor="#ffffff"
     bordercolor="#666666"
     borderopacity="1.0"
     inkscape:pageopacity="0.0"
     inkscape:pageshadow="2"
     inkscape:zoom="0.35"
     inkscape:cx="38.921919"
     inkscape:cy="33.465298"
     inkscape:document-units="px"
     inkscape:current-layer="layer1"
     showgrid="false"
     fit-margin-top="0"
     fit-margin-left="0"
     fit-margin-right="0"
     fit-margin-bottom="0"
     inkscape:window-width="469"
     inkscape:window-height="425"
     inkscape:window-x="2501"
     inkscape:window-y="60"
     inkscape:window-maximized="0" />
  <metadata
     id="metadata4252">
    <rdf:RDF>
      <cc:Work
         rdf:about="">
        <dc:format>image/svg+xml</dc:format>
        <dc:type
           rdf:resource="http://purl.org/dc/dcmitype/StillImage" />
        <dc:title></dc:title>
      </cc:Work>
    </rdf:RDF>
  </metadata>
  <g
     inkscape:label="Layer 1"
     inkscape:groupmode="layer"
     id="layer1"
     transform="translate(-336.07809,-498.8966)">
    <g
       transform="translate(195.25738,-258.75806)"
       id="g4243">
      <path
         inkscape:connector-curvature="0"
         id="path4200"
         d="m 174.40625,758.1875 c -0.70522,-0.005 -1.42052,-0.009 -2.125,0.0312 -18.24185,1.03395 -32.1902,16.6644 -31.15625,34.90625 1.03395,18.24185 16.66441,32.1902 34.90625,31.15625 0.52382,-38.79092 0.4608,-38.76423 0.5,-66.03125 -0.70381,-0.0503 -1.41978,-0.0573 -2.125,-0.0625 z m -5.15625,6.40625 c 0.11109,24.2446 0.43278,27.60286 0.125,53.375 -12.41828,-3.85503 -19.83808,-18.93165 -16.59375,-33.6875 2.11185,-9.60511 8.39861,-17.11807 16.46875,-19.6875 z"
         style="fill:#000000;fill-opacity:1;stroke:#000000;stroke-width:0.5;stroke-miterlimit:4;stroke-opacity:1;stroke-dashoffset:0" />
      <path
         id="path4200-7"
         d="m 185.07901,757.9084 c 0.70522,-0.005 1.42052,-0.009 2.125,0.0312 18.24185,1.03395 32.19019,16.6644 31.15624,34.90625 -1.03395,18.24185 -16.6644,32.1902 -34.90624,31.15625 -0.52382,-38.79092 -0.4608,-38.76423 -0.5,-66.03125 0.70381,-0.0503 1.41978,-0.0573 2.125,-0.0625 z m 5.15625,6.40625 c -0.11109,24.2446 -0.43278,27.60286 -0.125,53.375 12.41828,-3.85503 19.83807,-18.93165 16.59375,-33.6875 -2.11185,-9.60511 -8.39861,-17.11807 -16.46875,-19.6875 z"
         style="fill:#000000;fill-opacity:1;stroke:#000000;stroke-width:0.5;stroke-miterlimit:4;stroke-opacity:1;stroke-dashoffset:0"
         inkscape:connector-curvature="0" />
    </g>
  </g>
</svg>
