<?xml version="1.0" encoding="UTF-8" standalone="no"?>
<!-- Created with Inkscape (http://www.inkscape.org/) -->

<svg
   xmlns:dc="http://purl.org/dc/elements/1.1/"
   xmlns:cc="http://creativecommons.org/ns#"
   xmlns:rdf="http://www.w3.org/1999/02/22-rdf-syntax-ns#"
   xmlns:svg="http://www.w3.org/2000/svg"
   xmlns="http://www.w3.org/2000/svg"
   xmlns:sodipodi="http://sodipodi.sourceforge.net/DTD/sodipodi-0.dtd"
   xmlns:inkscape="http://www.inkscape.org/namespaces/inkscape"
   width="80.875"
   height="85.8125"
   id="svg4247"
   version="1.1"
   inkscape:version="0.48.2 r9819"
   sodipodi:docname="eox_symbol.svg">
  <defs
     id="defs4249" />
  <sodipodi:namedview
     id="base"
     pagecolor="#ffffff"
     bordercolor="#666666"
     borderopacity="1.0"
     inkscape:pageopacity="0.0"
     inkscape:pageshadow="2"
     inkscape:zoom="0.35"
     inkscape:cx="270.79442"
     inkscape:cy="107.76472"
     inkscape:document-units="px"
     inkscape:current-layer="layer1"
     showgrid="false"
     fit-margin-top="0"
     fit-margin-left="0"
     fit-margin-right="0"
     fit-margin-bottom="0"
     inkscape:window-width="469"
     inkscape:window-height="425"
     inkscape:window-x="2501"
     inkscape:window-y="60"
     inkscape:window-maximized="0" />
  <metadata
     id="metadata4252">
    <rdf:RDF>
      <cc:Work
         rdf:about="">
        <dc:format>image/svg+xml</dc:format>
        <dc:type
           rdf:resource="http://purl.org/dc/dcmitype/StillImage" />
        <dc:title></dc:title>
      </cc:Work>
    </rdf:RDF>
  </metadata>
  <g
     inkscape:label="Layer 1"
     inkscape:groupmode="layer"
     id="layer1"
     transform="translate(-104.20558,-554.3144)">
    <g
       id="g4147"
       transform="translate(-92.106916,-196.5606)">
      <path
         id="path4002"
         d="m 232.5625,761.5625 c -13.52349,0 -24.5,10.94526 -24.5,24.46875 0,13.52349 10.97651,24.5 24.5,24.5 13.52349,0 24.46875,-10.97651 24.46875,-24.5 0,-13.52349 -10.94526,-24.46875 -24.46875,-24.46875 z m 0.375,9.3125 c 8.59305,0 15.5625,6.9382 15.5625,15.53125 0,8.59305 -6.96945,15.5625 -15.5625,15.5625 -8.59305,0 -15.5625,-6.96945 -15.5625,-15.5625 0,-8.59305 6.96945,-15.53125 15.5625,-15.53125 z"
         style="fill:#000000;fill-opacity:1;stroke:#000000;stroke-width:0.5;stroke-miterlimit:4;stroke-opacity:1;stroke-dasharray:none;stroke-dashoffset:0"
         inkscape:connector-curvature="0" />
      <path
         sodipodi:nodetypes="ccssccssc"
         inkscape:connector-curvature="0"
         id="path3992"
         d="M 203.34264,766.14185 216.096,753.38849 c 0,0 1.16888,6.81142 3.31587,9.30995 18.26624,21.25715 32.59676,37.48596 50.24824,58.66546 1.64767,1.977 6.63174,3.95354 6.63174,3.95354 l -10.71282,10.45776 c 0,0 -2.00824,-5.82298 -4.08107,-7.97085 -19.32628,-20.02587 -43.73917,-50.56359 -49.99317,-57.51766 -2.04045,-2.26885 -8.16215,-4.14484 -8.16215,-4.14484 z"
         style="fill:#000000;fill-opacity:1;stroke:#000000;stroke-width:1px;stroke-linecap:butt;stroke-linejoin:miter;stroke-opacity:1" />
      <path
         sodipodi:nodetypes="cssccsscc"
         inkscape:connector-curvature="0"
         id="path3994"
         d="m 258.94728,751.85809 c 0,0 -0.83883,3.99903 -2.16807,5.42018 -17.29537,18.49132 -34.97722,32.22333 -53.30904,49.61057 -1.6155,1.53225 -6.24915,2.35937 -6.24915,2.35937 l 9.18242,11.47802 c 0,0 1.13703,-4.85229 2.86951,-6.44045 20.73878,-19.01124 36.49086,-33.71852 54.45684,-49.10043 1.88365,-1.61272 7.20565,-1.84924 7.20565,-1.84924 z"
         style="fill:#000000;fill-opacity:1;stroke:#000000;stroke-width:1px;stroke-linecap:butt;stroke-linejoin:miter;stroke-opacity:1" />
      <path
         sodipodi:nodetypes="cssccsscc"
         inkscape:connector-curvature="0"
         id="path3996"
         d="m 264.81383,798.02525 c 0,0 -1.01549,3.75256 -2.29858,5.10963 -6.4866,6.86061 -12.07,11.80572 -20.64918,19.68815 -1.4522,1.33426 -5.3647,2.49441 -5.3647,2.49441 l 9.18242,9.18242 c 0,0 2.2582,-5.13864 4.33536,-6.88041 8.19909,-6.8752 10.59261,-9.20461 16.96728,-15.74476 1.60974,-1.65153 6.49968,-2.37141 6.49968,-2.37141 z"
         style="fill:#000000;fill-opacity:1;stroke:#000000;stroke-width:1px;stroke-linecap:butt;stroke-linejoin:miter;stroke-opacity:1" />
    </g>
  </g>
</svg>
