<?xml version="1.0" encoding="UTF-8" standalone="no"?>
<!-- Created with Inkscape (http://www.inkscape.org/) -->

<svg
   xmlns:dc="http://purl.org/dc/elements/1.1/"
   xmlns:cc="http://creativecommons.org/ns#"
   xmlns:rdf="http://www.w3.org/1999/02/22-rdf-syntax-ns#"
   xmlns:svg="http://www.w3.org/2000/svg"
   xmlns="http://www.w3.org/2000/svg"
   xmlns:sodipodi="http://sodipodi.sourceforge.net/DTD/sodipodi-0.dtd"
   xmlns:inkscape="http://www.inkscape.org/namespaces/inkscape"
   width="66.799812"
   height="113.875"
   id="svg4247"
   version="1.1"
   inkscape:version="0.48.2 r9819"
   sodipodi:docname="golarion_symbol.svg">
  <defs
     id="defs4249" />
  <sodipodi:namedview
     id="base"
     pagecolor="#ffffff"
     bordercolor="#666666"
     borderopacity="1.0"
     inkscape:pageopacity="0.0"
     inkscape:pageshadow="2"
     inkscape:zoom="0.35"
     inkscape:cx="254.91952"
     inkscape:cy="77.29182"
     inkscape:document-units="px"
     inkscape:current-layer="layer1"
     showgrid="false"
     fit-margin-top="0"
     fit-margin-left="0"
     fit-margin-right="0"
     fit-margin-bottom="0"
     inkscape:window-width="469"
     inkscape:window-height="425"
     inkscape:window-x="2501"
     inkscape:window-y="60"
     inkscape:window-maximized="0" />
  <metadata
     id="metadata4252">
    <rdf:RDF>
      <cc:Work
         rdf:about="">
        <dc:format>image/svg+xml</dc:format>
        <dc:type
           rdf:resource="http://purl.org/dc/dcmitype/StillImage" />
        <dc:title></dc:title>
      </cc:Work>
    </rdf:RDF>
  </metadata>
  <g
     inkscape:label="Layer 1"
     inkscape:groupmode="layer"
     id="layer1"
     transform="translate(-120.08049,-495.77901)">
    <g
       id="g4014"
       transform="translate(-300.53135,86.810257)">
      <path
         id="path3064"
         d="m 450.46875,436.25 c -1.05431,0.028 -2.07607,0.11545 -3.09375,0.28125 -15.12922,2.46481 -28.71583,22.39028 -26.53125,37.5625 2.13514,14.82886 20.30413,29.32336 35.21875,27.90625 15.85852,-1.5068 33.01858,-20.35956 31.21875,-36.1875 -1.74746,-15.36743 -20.99778,-29.98235 -36.8125,-29.5625 z m 2.09375,5.6875 c 12.24673,-0.51741 24.49463,15.05554 24.625,27.3125 0.12645,11.88897 -11.42508,27.22952 -23.3125,27 -11.64475,-0.22483 -21.66945,-15.66646 -21.8125,-27.3125 -0.13878,-11.29822 9.211,-26.52305 20.5,-27 z"
         style="fill:#000000"
         inkscape:connector-curvature="0" />
      <path
         inkscape:connector-curvature="0"
         id="path3068"
         d="m 447.60515,416.11239 9.88479,-6.25364 1.41212,105.10159 -8.67442,6.85883 z"
         style="fill:#000000;stroke:#000000;stroke-width:1px;stroke-linecap:butt;stroke-linejoin:miter;stroke-opacity:1" />
      <path
         sodipodi:nodetypes="caccacc"
         inkscape:connector-curvature="0"
         id="path3070"
         d="m 463.54186,419.74354 c 0,0 -0.95868,12.16377 -0.90779,18.25661 0.20742,24.83307 4.9424,74.33769 4.9424,74.33769 l 7.66576,-4.84153 c 0,0 -3.40827,-44.6853 -3.63115,-67.07539 -0.0392,-3.93585 0.40346,-11.80123 0.40346,-11.80123 z"
         style="fill:#000000;stroke:#000000;stroke-width:1px;stroke-linecap:butt;stroke-linejoin:miter;stroke-opacity:1" />
      <path
         sodipodi:nodetypes="ccaccac"
         inkscape:connector-curvature="0"
         id="path3072"
         d="m 431.87017,431.84737 8.27095,-7.86749 c 0,0 2.06497,11.3205 2.52163,17.04623 1.95415,24.50156 0.90779,73.73249 0.90779,73.73249 l -7.46403,-3.42941 c 0,0 0.74716,-45.73823 -1.91644,-68.38664 -0.44132,-3.75251 -2.3199,-11.09518 -2.3199,-11.09518 z"
         style="fill:#000000;stroke:#000000;stroke-width:1px;stroke-linecap:butt;stroke-linejoin:miter;stroke-opacity:1" />
    </g>
  </g>
</svg>
