<?xml version="1.0" encoding="UTF-8" standalone="no"?><!DOCTYPE svg PUBLIC "-//W3C//DTD SVG 1.1//EN" "http://www.w3.org/Graphics/SVG/1.1/DTD/svg11.dtd"><svg width="100%" height="100%" viewBox="0 0 421 421" version="1.1" xmlns="http://www.w3.org/2000/svg" xmlns:xlink="http://www.w3.org/1999/xlink" xml:space="preserve" xmlns:serif="http://www.serif.com/" style="fill-rule:evenodd;clip-rule:evenodd;stroke-linecap:round;"><g id="Layer-1" serif:id="Layer 1"><rect id="rect4060" x="10" y="10" width="400.394" height="400.394" style="fill:#f2ead5;stroke:#590003;stroke-width:20px;"/><path d="M247.636,123.431c3.243,-0.811 7.433,-1.217 12.568,-1.217c9.73,0 17.298,2.568 22.703,7.703c5.406,5.135 8.108,11.352 8.108,18.649c0,8.109 -3.108,15.136 -9.324,21.082c-7.027,6.757 -16.487,10.135 -28.379,10.135c-3.514,0 -7.162,-0.27 -10.946,-0.811l-5.271,56.353l8.919,0c16.758,0 29.934,4.932 39.528,14.797c9.595,9.866 14.393,23.177 14.393,39.934c0,15.135 -7.298,29.19 -21.893,42.163c-13.514,10.27 -26.892,20.406 -40.136,30.406c-0.811,0.54 -4.459,4.257 -10.946,11.149c-6.487,6.892 -10,10.338 -10.541,10.338c-1.081,0 -3.919,-2.838 -8.513,-8.514c-0.271,-0.54 -2.5,-2.703 -6.69,-6.487c-4.189,-3.783 -6.284,-5.946 -6.284,-6.486c0,0 1.96,-1.892 5.879,-5.676c3.919,-3.784 5.878,-8.243 5.878,-13.379c0,-5.135 -1.216,-17.432 -3.648,-36.892c-2.703,2.162 -6.487,5.676 -11.352,10.54c-5.135,5.947 -7.973,8.92 -8.514,8.92c-0.54,0 -3.378,-2.973 -8.513,-8.92c-3.514,-2.702 -7.838,-6.892 -12.974,-12.567c1.352,-2.703 4.19,-5.744 8.514,-9.122c4.324,-3.379 7.162,-6.149 8.514,-8.311c2.162,-3.243 3.648,-4.865 4.459,-4.865c1.622,0 3.244,1.622 4.865,4.865c0.271,0.54 5,5.405 14.19,14.595c-0.541,-6.217 -1.216,-14.19 -2.027,-23.92c-0.811,-9.73 -1.622,-17.703 -2.433,-23.919c-2.703,0.54 -7.162,0.811 -13.378,0.811c-31.623,0 -47.434,-11.892 -47.434,-35.677c0,-12.432 5.811,-22.973 17.433,-31.622c9.46,-7.568 21.487,-12.838 36.082,-15.811l-3.649,-32.028c-6.757,1.622 -14.46,2.433 -23.109,2.433c-18.378,0 -33.379,-4.595 -45.001,-13.784c-12.432,-9.73 -18.649,-23.65 -18.649,-41.758c0,-13.244 5.406,-24.663 16.217,-34.258c10.811,-9.594 22.838,-14.392 36.082,-14.392c7.297,0 13.649,1.622 19.054,4.865c6.757,3.784 10.136,9.054 10.136,15.811c0,3.784 -1.419,7.095 -4.257,9.933c-2.838,2.838 -6.149,4.257 -9.933,4.257c-3.784,0 -7.095,-1.352 -9.932,-4.054c-2.838,-2.703 -4.257,-5.946 -4.257,-9.73c0,-4.325 1.756,-7.973 5.27,-10.946c-1.622,-0.811 -3.919,-1.217 -6.892,-1.217c-8.919,0 -16.014,3.852 -21.284,11.555c-5.271,7.702 -7.906,16.284 -7.906,25.743c0,13.784 4.527,25.068 13.582,33.852c9.054,8.784 20.473,13.176 34.257,13.176c7.568,0 12.973,-0.27 16.217,-0.81c-0.541,-4.595 -1.081,-9.19 -1.622,-13.784c-0.541,-4.595 -2.568,-8.784 -6.081,-12.568c-2.433,-2.163 -4.865,-4.325 -7.298,-6.487c-3.513,-3.243 -5.27,-5.676 -5.27,-7.297c0,-1.081 0.811,-2.433 2.432,-4.055c8.92,-8.108 21.217,-20.541 36.893,-37.298c5.676,-7.297 9.325,-10.946 10.946,-10.946c1.622,0 5.271,3.649 10.946,10.946c1.082,1.352 13.379,13.784 36.893,37.298c1.622,1.622 2.433,2.974 2.433,4.055c0,1.621 -1.622,3.919 -4.865,6.892c-2.433,1.892 -4.73,3.919 -6.892,6.081c-3.514,3.513 -5.541,6.622 -6.082,9.324c-0.27,0.811 -0.675,4.46 -1.216,10.947Zm-4.459,45.406c1.081,0.54 3.243,0.811 6.486,0.811c6.757,0 12.028,-1.825 15.811,-5.473c3.784,-3.649 5.676,-8.041 5.676,-13.176c0,-11.622 -6.351,-17.433 -19.054,-17.433c-2.703,0 -4.595,0.135 -5.676,0.405l-3.243,34.866Zm-51.893,13.784c-8.649,2.703 -15.947,6.892 -21.893,12.568c-6.486,6.757 -9.73,14.189 -9.73,22.298c0,7.838 2.703,14.257 8.109,19.257c5.405,5 12.162,7.5 20.27,7.5c2.433,0 5.271,-0.27 8.514,-0.811c-1.081,-13.514 -2.838,-33.784 -5.27,-60.812Zm39.73,173.112c11.081,-8.379 22.028,-16.892 32.839,-25.541c11.892,-11.082 17.838,-22.974 17.838,-35.677c0,-12.162 -4.595,-22.703 -13.784,-31.622c-9.19,-8.919 -19.865,-13.379 -32.028,-13.379c-0.811,6.487 -1.689,15.068 -2.635,25.744c-0.946,10.676 -1.824,19.392 -2.635,26.149c4.054,-2.973 8.919,-7.703 14.595,-14.189c2.162,-3.243 3.648,-4.865 4.459,-4.865c1.081,0 2.703,1.622 4.865,4.865c1.352,2.162 4.257,5.068 8.717,8.716c4.459,3.649 7.229,6.554 8.311,8.717c-3.244,3.243 -7.568,7.432 -12.974,12.567c-5.405,5.947 -8.378,8.92 -8.919,8.92c-0.27,0 -2.973,-2.973 -8.108,-8.92c-2.433,-2.162 -6.216,-5.675 -11.352,-10.54c-2.702,21.622 -4.054,33.919 -4.054,36.892c0,4.865 1.622,8.92 4.865,12.163Z" style="fill:#590003;fill-rule:nonzero;"/><path d="M247.636,123.431c3.243,-0.811 7.433,-1.217 12.568,-1.217c9.73,0 17.298,2.568 22.703,7.703c5.406,5.135 8.108,11.352 8.108,18.649c0,8.109 -3.108,15.136 -9.324,21.082c-7.027,6.757 -16.487,10.135 -28.379,10.135c-3.514,0 -7.162,-0.27 -10.946,-0.811l-5.271,56.353l8.919,0c16.758,0 29.934,4.932 39.528,14.797c9.595,9.866 14.393,23.177 14.393,39.934c0,15.135 -7.298,29.19 -21.893,42.163c-13.514,10.27 -26.892,20.406 -40.136,30.406c-0.811,0.54 -4.459,4.257 -10.946,11.149c-6.487,6.892 -10,10.338 -10.541,10.338c-1.081,0 -3.919,-2.838 -8.513,-8.514c-0.271,-0.54 -2.5,-2.703 -6.69,-6.487c-4.189,-3.783 -6.284,-5.946 -6.284,-6.486c0,0 1.96,-1.892 5.879,-5.676c3.919,-3.784 5.878,-8.243 5.878,-13.379c0,-5.135 -1.216,-17.432 -3.648,-36.892c-2.703,2.162 -6.487,5.676 -11.352,10.54c-5.135,5.947 -7.973,8.92 -8.514,8.92c-0.54,0 -3.378,-2.973 -8.513,-8.92c-3.514,-2.702 -7.838,-6.892 -12.974,-12.567c1.352,-2.703 4.19,-5.744 8.514,-9.122c4.324,-3.379 7.162,-6.149 8.514,-8.311c2.162,-3.243 3.648,-4.865 4.459,-4.865c1.622,0 3.244,1.622 4.865,4.865c0.271,0.54 5,5.405 14.19,14.595c-0.541,-6.217 -1.216,-14.19 -2.027,-23.92c-0.811,-9.73 -1.622,-17.703 -2.433,-23.919c-2.703,0.54 -7.162,0.811 -13.378,0.811c-31.623,0 -47.434,-11.892 -47.434,-35.677c0,-12.432 5.811,-22.973 17.433,-31.622c9.46,-7.568 21.487,-12.838 36.082,-15.811l-3.649,-32.028c-6.757,1.622 -14.46,2.433 -23.109,2.433c-18.378,0 -33.379,-4.595 -45.001,-13.784c-12.432,-9.73 -18.649,-23.65 -18.649,-41.758c0,-13.244 5.406,-24.663 16.217,-34.258c10.811,-9.594 22.838,-14.392 36.082,-14.392c7.297,0 13.649,1.622 19.054,4.865c6.757,3.784 10.136,9.054 10.136,15.811c0,3.784 -1.419,7.095 -4.257,9.933c-2.838,2.838 -6.149,4.257 -9.933,4.257c-3.784,0 -7.095,-1.352 -9.932,-4.054c-2.838,-2.703 -4.257,-5.946 -4.257,-9.73c0,-4.325 1.756,-7.973 5.27,-10.946c-1.622,-0.811 -3.919,-1.217 -6.892,-1.217c-8.919,0 -16.014,3.852 -21.284,11.555c-5.271,7.702 -7.906,16.284 -7.906,25.743c0,13.784 4.527,25.068 13.582,33.852c9.054,8.784 20.473,13.176 34.257,13.176c7.568,0 12.973,-0.27 16.217,-0.81c-0.541,-4.595 -1.081,-9.19 -1.622,-13.784c-0.541,-4.595 -2.568,-8.784 -6.081,-12.568c-2.433,-2.163 -4.865,-4.325 -7.298,-6.487c-3.513,-3.243 -5.27,-5.676 -5.27,-7.297c0,-1.081 0.811,-2.433 2.432,-4.055c8.92,-8.108 21.217,-20.541 36.893,-37.298c5.676,-7.297 9.325,-10.946 10.946,-10.946c1.622,0 5.271,3.649 10.946,10.946c1.082,1.352 13.379,13.784 36.893,37.298c1.622,1.622 2.433,2.974 2.433,4.055c0,1.621 -1.622,3.919 -4.865,6.892c-2.433,1.892 -4.73,3.919 -6.892,6.081c-3.514,3.513 -5.541,6.622 -6.082,9.324c-0.27,0.811 -0.675,4.46 -1.216,10.947Zm-4.459,45.406c1.081,0.54 3.243,0.811 6.486,0.811c6.757,0 12.028,-1.825 15.811,-5.473c3.784,-3.649 5.676,-8.041 5.676,-13.176c0,-11.622 -6.351,-17.433 -19.054,-17.433c-2.703,0 -4.595,0.135 -5.676,0.405l-3.243,34.866Zm-51.893,13.784c-8.649,2.703 -15.947,6.892 -21.893,12.568c-6.486,6.757 -9.73,14.189 -9.73,22.298c0,7.838 2.703,14.257 8.109,19.257c5.405,5 12.162,7.5 20.27,7.5c2.433,0 5.271,-0.27 8.514,-0.811c-1.081,-13.514 -2.838,-33.784 -5.27,-60.812Zm39.73,173.112c11.081,-8.379 22.028,-16.892 32.839,-25.541c11.892,-11.082 17.838,-22.974 17.838,-35.677c0,-12.162 -4.595,-22.703 -13.784,-31.622c-9.19,-8.919 -19.865,-13.379 -32.028,-13.379c-0.811,6.487 -1.689,15.068 -2.635,25.744c-0.946,10.676 -1.824,19.392 -2.635,26.149c4.054,-2.973 8.919,-7.703 14.595,-14.189c2.162,-3.243 3.648,-4.865 4.459,-4.865c1.081,0 2.703,1.622 4.865,4.865c1.352,2.162 4.257,5.068 8.717,8.716c4.459,3.649 7.229,6.554 8.311,8.717c-3.244,3.243 -7.568,7.432 -12.974,12.567c-5.405,5.947 -8.378,8.92 -8.919,8.92c-0.27,0 -2.973,-2.973 -8.108,-8.92c-2.433,-2.162 -6.216,-5.675 -11.352,-10.54c-2.702,21.622 -4.054,33.919 -4.054,36.892c0,4.865 1.622,8.92 4.865,12.163Z" style="fill:#590003;fill-rule:nonzero;"/></g></svg>