<?xml version="1.0" encoding="UTF-8" standalone="no"?>
<!-- Created with Inkscape (http://www.inkscape.org/) -->

<svg
   xmlns:dc="http://purl.org/dc/elements/1.1/"
   xmlns:cc="http://creativecommons.org/ns#"
   xmlns:rdf="http://www.w3.org/1999/02/22-rdf-syntax-ns#"
   xmlns:svg="http://www.w3.org/2000/svg"
   xmlns="http://www.w3.org/2000/svg"
   xmlns:sodipodi="http://sodipodi.sourceforge.net/DTD/sodipodi-0.dtd"
   xmlns:inkscape="http://www.inkscape.org/namespaces/inkscape"
   width="89.8125"
   height="85"
   id="svg4247"
   version="1.1"
   inkscape:version="0.48.2 r9819"
   sodipodi:docname="liavara_symbol.svg">
  <defs
     id="defs4249" />
  <sodipodi:namedview
     id="base"
     pagecolor="#ffffff"
     bordercolor="#666666"
     borderopacity="1.0"
     inkscape:pageopacity="0.0"
     inkscape:pageshadow="2"
     inkscape:zoom="0.35"
     inkscape:cx="45.090005"
     inkscape:cy="42.545786"
     inkscape:document-units="px"
     inkscape:current-layer="layer1"
     showgrid="false"
     fit-margin-top="0"
     fit-margin-left="0"
     fit-margin-right="0"
     fit-margin-bottom="0"
     inkscape:window-width="469"
     inkscape:window-height="425"
     inkscape:window-x="2501"
     inkscape:window-y="60"
     inkscape:window-maximized="0" />
  <metadata
     id="metadata4252">
    <rdf:RDF>
      <cc:Work
         rdf:about="">
        <dc:format>image/svg+xml</dc:format>
        <dc:type
           rdf:resource="http://purl.org/dc/dcmitype/StillImage" />
        <dc:title></dc:title>
      </cc:Work>
    </rdf:RDF>
  </metadata>
  <g
     inkscape:label="Layer 1"
     inkscape:groupmode="layer"
     id="layer1"
     transform="translate(-329.91,-489.90797)">
    <g
       id="g4064"
       transform="translate(-106.93375,-257.15453)">
      <path
         id="path4096"
         d="m 477.21875,747.3125 c -19.22451,0 -34.8125,14.27343 -34.8125,31.875 0,17.60157 15.58799,31.875 34.8125,31.875 19.22451,0 34.8125,-14.27343 34.8125,-31.875 0,-17.60157 -15.58799,-31.875 -34.8125,-31.875 z m 0.125,5.625 c 12.80806,0 23.1875,11.69693 23.1875,26.125 0,14.42807 -10.37944,26.125 -23.1875,26.125 -12.80806,0 -23.1875,-11.69693 -23.1875,-26.125 0,-14.42807 10.37944,-26.125 23.1875,-26.125 z"
         style="fill:#000000;fill-opacity:1;stroke:#000000;stroke-width:0.50613463;stroke-miterlimit:4;stroke-opacity:1;stroke-dasharray:none;stroke-dashoffset:0"
         inkscape:connector-curvature="0" />
      <path
         sodipodi:nodetypes="ccczcc"
         inkscape:connector-curvature="0"
         id="path4100"
         d="m 450.81556,798.06019 -13.2635,19.64017 13.2635,7.14188 c 0,0 -1.70815,-3.31734 -0.86335,-7.04638 0.84479,-3.72905 8.51536,-13.35899 8.51536,-13.35899 z"
         style="fill:#000000;fill-opacity:1;stroke:#000000;stroke-width:1px;stroke-linecap:butt;stroke-linejoin:miter;stroke-opacity:1" />
      <path
         sodipodi:nodetypes="cccscc"
         inkscape:connector-curvature="0"
         id="path4102"
         d="m 471.73107,808.77301 2.55067,22.70098 14.7939,-2.55067 c 0,0 -2.92027,-2.3154 -3.30946,-4.00216 -1.09749,-4.75646 -2.04695,-17.16842 -2.04695,-17.16842 z"
         style="fill:#000000;fill-opacity:1;stroke:#000000;stroke-width:1px;stroke-linecap:butt;stroke-linejoin:miter;stroke-opacity:1" />
      <path
         sodipodi:nodetypes="cccscc"
         inkscape:connector-curvature="0"
         id="path4104"
         d="m 495.70738,804.1818 18.36484,18.6199 12.24323,-11.98815 c 0,0 -5.23453,2.21187 -7.52559,1.12372 -5.94948,-2.82575 -14.92033,-14.38722 -14.92033,-14.38722 z"
         style="fill:#000000;fill-opacity:1;stroke:#000000;stroke-width:1px;stroke-linecap:butt;stroke-linejoin:miter;stroke-opacity:1" />
    </g>
  </g>
</svg>
