<?xml version="1.0" encoding="UTF-8" standalone="no"?>
<svg
   width="600"
   height="400"
   version="1.0"
   id="svg527"
   sodipodi:docname="magnimar.svg"
   inkscape:version="1.2.2 (1:1.2.2+202212051550+b0a8486541)"
   xmlns:inkscape="http://www.inkscape.org/namespaces/inkscape"
   xmlns:sodipodi="http://sodipodi.sourceforge.net/DTD/sodipodi-0.dtd"
   xmlns:xlink="http://www.w3.org/1999/xlink"
   xmlns="http://www.w3.org/2000/svg"
   xmlns:svg="http://www.w3.org/2000/svg"
   xmlns:rdf="http://www.w3.org/1999/02/22-rdf-syntax-ns#"
   xmlns:cc="http://creativecommons.org/ns#"
   xmlns:dc="http://purl.org/dc/elements/1.1/">
  <defs
     id="defs531">
    <inkscape:path-effect
       effect="mirror_symmetry"
       start_point="144.41627,183.37452"
       end_point="144.41627,322.12328"
       center_point="144.41627,252.7489"
       id="path-effect849"
       is_visible="true"
       lpeversion="1.2"
       lpesatellites=""
       mode="vertical"
       discard_orig_path="false"
       fuse_paths="false"
       oposite_fuse="false"
       split_items="false"
       split_open="false"
       link_styles="false" />
    <symbol
       id="symbol2581">
      <path
         class="fil0 str0"
         d="m 20.73383,33.110748 4.51452,4.242615 c 5.347915,5.154079 9.34332,8.563991 12.001507,10.261024 2.658342,1.68128 5.36387,2.529828 8.10081,2.529828 3.900881,0 7.345633,-1.319939 10.334308,-3.944032 3.004285,-2.624283 4.49853,-5.609718 4.49853,-8.988219 0,-2.46691 -0.723425,-4.525505 -2.18628,-6.222537 -1.462835,-1.681281 -3.24042,-2.529829 -5.332305,-2.529829 -2.67415,0 -5.237945,1.429989 -7.691732,4.289778 0.707807,-0.125645 1.258274,-0.188563 1.651584,-0.188563 2.516613,0 4.703053,0.770036 6.543433,2.325671 1.840345,1.53985 2.76832,3.394097 2.76832,5.546799 0,1.351287 -0.487485,2.498448 -1.478445,3.47261 -0.97535,0.958566 -2.123495,1.445773 -3.44478,1.445773 -3.507728,0 -9.500693,-4.36848 -17.97886,-13.120813 l -3.727895,-3.818387 c 2.878515,-1.964109 6.857955,-3.676958 11.907144,-5.15408 5.064984,-1.461337 9.500691,-2.199835 13.338781,-2.199835 6.63779,0 12.19026,2.027057 16.64177,6.08114 4.45154,4.038298 6.685005,9.082326 6.685005,15.132054 0,1.382857 -0.17299,2.687011 -0.50329,3.912654 6.51202,-1.162724 9.768045,-4.022703 9.768045,-8.563772 0,-5.79828 -3.00429,-10.826713 -9.01302,-15.06936 -6.00876,-4.258208 -13.08705,-6.379531 -21.266295,-6.379531 -4.608845,0 -10.900539,1.571231 -18.859805,4.698284 l 3.318972,-3.221351 c 3.381799,-3.284047 6.920937,-6.033975 10.601653,-8.2495634 3.696485,-2.2155885 6.5908,-3.315427 8.714295,-3.315427 1.730175,0 3.17724,0.5027705 4.35695,1.492717 1.17972,1.0057305 1.777555,2.21562 1.777555,3.6612044 0,0.345746 -0.0472,0.801383 -0.141575,1.382825 4.24698,-1.586983 6.370475,-3.6455774 6.370475,-6.1596214 0,-1.7599503 -0.880985,-3.2526677 -2.65835,-4.4783409 -1.76178,-1.22564004 -3.91665,-1.83846258 -6.464835,-1.83846258 -5.867185,0 -14.486894,5.56255248 -25.859375,16.67193688 l -3.22461,3.174186 c -2.37504,2.32545 -4.95479,4.478342 -7.754525,6.44245 -5.22233,-5.342642 -10.46027,-8.013868 -15.74539,-8.013868 -3.1616299,0 -5.8198149,0.848516 -7.9433099,2.561365 -2.13926,1.697033 -3.20880998,3.802603 -3.20880998,6.285266 0,2.451283 1.02236498,4.509879 3.06726998,6.144025 2.04471,1.649901 4.59289,2.467069 7.6601549,2.467069 3.09884,0 6.386245,-0.927219 9.862405,-2.765682 z m -2.343625,-2.168487 c -2.73694,1.021516 -5.002005,1.524287 -6.77937,1.524287 -2.1864699,0 -3.8222849,-0.329992 -4.9076049,-0.989946 -1.085355,-0.659987 -1.636015,-1.649932 -1.636015,-2.969839 0,-0.927029 0.33034,-1.618552 0.97535,-2.07419 0.644865,-0.455638 1.62002,-0.691334 2.94131,-0.691334 2.8313299,0 5.9615499,1.728413 9.4063299,5.201022 z"
         id="path2214"
         style="clip-rule:evenodd;fill-rule:evenodd;stroke-width:1;image-rendering:optimizeQuality;shape-rendering:geometricPrecision;text-rendering:geometricPrecision"
         sodipodi:insensitive="true" />
    </symbol>
    <symbol
       id="symbol2871">
      <path
         class="fil0 str0"
         d="m 20.56872,32.966607 4.50989,4.242596 c 5.34243,5.154057 9.33373,8.563955 11.98919,10.260981 2.65562,1.681273 5.35838,2.529817 8.09251,2.529817 3.89688,0 7.3381,-1.319933 10.32371,-3.944015 3.0012,-2.624272 4.49391,-5.609694 4.49391,-8.988181 0,-2.4669 -0.72267,-4.525486 -2.18404,-6.222511 -1.46133,-1.681273 -3.23709,-2.529818 -5.32683,-2.529818 -2.6714,0 -5.23257,1.429983 -7.68384,4.28976 0.70708,-0.125645 1.25698,-0.188561 1.64989,-0.188561 2.51403,0 4.69823,0.770031 6.53672,2.32566 1.83845,1.539843 2.76548,3.394082 2.76548,5.546776 0,1.351281 -0.48699,2.498437 -1.47693,3.472595 -0.97435,0.958562 -2.12131,1.445767 -3.44125,1.445767 -3.50413,0 -9.49095,-4.368462 -17.96041,-13.120758 l -3.72408,-3.818371 c 2.87556,-1.9641 6.85093,-3.676942 11.89493,-5.154057 5.0598,-1.461331 9.49095,-2.199826 13.32511,-2.199826 6.63098,0 12.17776,2.027048 16.6247,6.081114 4.44697,4.03828 6.67815,9.082288 6.67815,15.13199 0,1.382851 -0.17281,2.686999 -0.50277,3.912636 6.50534,-1.162719 9.75802,-4.022685 9.75802,-8.563735 0,-5.798255 -3.0012,-10.826667 -9.00377,-15.069294 -6.00261,-4.258191 -13.07363,-6.379505 -21.24449,-6.379505 -4.60412,0 -10.88936,1.571224 -18.84047,4.698264 l 3.31557,-3.221337 c 3.37833,-3.284033 6.91384,-6.03395 10.59079,-8.249528 3.69269,-2.215579 6.58404,-3.315414 8.70535,-3.315414 1.72841,0 3.17398,0.502769 4.35249,1.492711 1.1785,1.005727 1.77572,2.215611 1.77572,3.661189 0,0.345744 -0.0471,0.80138 -0.14142,1.382819 4.24262,-1.586976 6.36394,-3.645562 6.36394,-6.159595 0,-1.759942 -0.88009,-3.252656 -2.65562,-4.478326 C 68.36889,0.61282 66.21623,0 63.67066,0 57.80949,0 49.19862,5.562529 37.83781,16.671865 l -3.22131,3.174173 c -2.3726,2.325439 -4.94971,4.478322 -7.74657,6.442422 -5.21697,-5.342619 -10.44954,-8.013834 -15.72925,-8.013834 -3.15838,0 -5.81385,0.848513 -7.93516,2.561354 C 1.06845,22.533006 0,24.638567 0,27.12122 c 0,2.451273 1.02132,4.509859 3.06412,6.143999 2.04262,1.649893 4.58819,2.467057 7.65231,2.467057 3.09566,0 6.37969,-0.927214 9.85229,-2.765669 z M 18.22749,30.79813 c -2.73413,1.02151 -4.99687,1.524279 -6.77241,1.524279 -2.18423,0 -3.81837,-0.329991 -4.90258,-0.989942 -1.08424,-0.659983 -1.63433,-1.649925 -1.63433,-2.969826 0,-0.927025 0.32999,-1.618545 0.97435,-2.074181 0.6442,-0.455636 1.61836,-0.691331 2.93829,-0.691331 2.82843,0 5.95544,1.728405 9.39668,5.201001 z"
         id="path2214-7-5"
         style="clip-rule:evenodd;fill-rule:evenodd;stroke-width:0.999999;image-rendering:optimizeQuality;shape-rendering:geometricPrecision;text-rendering:geometricPrecision" />
    </symbol>
  </defs>
  <sodipodi:namedview
     id="namedview529"
     pagecolor="#ffffff"
     bordercolor="#111111"
     borderopacity="1"
     inkscape:showpageshadow="0"
     inkscape:pageopacity="0"
     inkscape:pagecheckerboard="1"
     inkscape:deskcolor="#d1d1d1"
     showgrid="false"
     inkscape:zoom="1"
     inkscape:cx="292.5"
     inkscape:cy="344.5"
     inkscape:window-width="1920"
     inkscape:window-height="1145"
     inkscape:window-x="0"
     inkscape:window-y="31"
     inkscape:window-maximized="1"
     inkscape:current-layer="layer9" />
  <metadata
     id="metadata2">
    <rdf:RDF>
      <cc:Work
         rdf:about="">
        <dc:format>image/svg+xml</dc:format>
        <dc:type
           rdf:resource="http://purl.org/dc/dcmitype/StillImage" />
      </cc:Work>
    </rdf:RDF>
  </metadata>
  <g
     inkscape:groupmode="layer"
     id="layer1"
     inkscape:label="base"
     sodipodi:insensitive="true">
    <rect
       style="fill:#ffffff;fill-rule:evenodd;stroke:none;stroke-width:2;stroke-linejoin:round;stroke-miterlimit:6;stop-color:#000000"
       id="rect1966"
       width="600"
       height="400"
       x="0"
       y="0"
       inkscape:label="border" />
    <rect
       style="fill:#0000ff;fill-rule:evenodd;stroke:none;stroke-width:2;stroke-linejoin:round;stroke-miterlimit:6;stop-color:#000000"
       id="rect2312"
       width="579.90002"
       height="380"
       x="10"
       y="10"
       inkscape:label="blue" />
  </g>
  <g
     inkscape:groupmode="layer"
     id="layer2"
     inkscape:label="flourishes"
     sodipodi:insensitive="true">
    <use
       xlink:href="#symbol2871"
       id="use3063"
       transform="rotate(45,20.538453,42.993711)"
       style="fill:#ffffff" />
    <use
       xlink:href="#symbol2871"
       id="use3063-9"
       transform="rotate(-45,437.91918,184.12194)"
       style="fill:#ffffff" />
    <use
       xlink:href="#symbol2871"
       id="use3063-2"
       transform="rotate(-135,365.03438,84.243255)"
       style="fill:#ffffff" />
    <use
       xlink:href="#symbol2871"
       id="use3063-0"
       transform="rotate(135,295.12161,143.5758)"
       style="fill:#ffffff" />
    <path
       id="path545"
       style="fill:#ffcc00;stop-color:#000000"
       d="m 98.251953,183.375 c -3.647989,-0.0321 -7.473332,1.54859 -11.072265,1.94531 -13.477709,3.12578 -27.805266,8.45113 -36.09961,20.1836 -0.122668,9.54322 -1.358565,20.15756 4.875,28.25195 5.285387,7.58299 13.070954,14.25859 16.119141,23.09766 -1.66242,2.56486 -4.632274,4.39169 -7.628907,5.4414 -5.124046,2.59916 -10.920589,2.50721 -16.449218,2.18164 -2.446615,2.40773 -1.207914,13.18503 0.919922,14.62891 8.905656,-0.17911 17.810052,-2.74637 25.15039,-7.83985 5.106722,-4.9332 2.8458,-12.57072 3.203125,-18.85546 0.737921,-8.5918 -5.908585,-15.1615 -10.833984,-21.38282 -4.090167,-4.65966 -8.253206,-9.80077 -10.171875,-15.72461 6.468542,-10.16415 18.619723,-14.99445 30.027344,-17.20703 4.560593,-0.55835 9.365486,-1.67801 13.884764,-0.70312 0.23981,0.34303 0.43037,0.85366 0.5957,1.42578 -0.002,0.0148 -0.004,0.0182 -0.006,0.0332 -2.552592,10.5098 -10.272297,19.0257 -12.351558,29.67578 0.319466,6.28382 -0.991729,13.27175 1.550782,19.05469 4.409189,6.31689 13.425856,6.27375 19.605466,2.77149 8.37088,-4.15654 17.14249,-8.67741 26.62891,-9.03516 -5.02748,6.21222 -11.8258,10.84952 -17.43555,16.53125 -7.89474,7.0687 -15.33774,14.84238 -20.119139,24.41992 -4.503418,7.70722 -8.04505,16.50348 -6.9375,25.59375 -0.620393,6.03709 0.277073,13.17567 8.027344,12.94141 10.968345,1.66013 22.226495,1.96805 33.125005,-0.33594 7.73282,1.12914 8.44895,-11.05777 3.38867,-14.40625 -7.02048,0.45721 -13.97523,2.8677 -21.13086,2.60156 -6.08009,-0.37611 -13.24617,0.48403 -18.326174,-3.40039 0.287471,-1.3796 0.62656,-2.57671 1.037109,-3.14648 4.038035,-12.42338 11.851415,-23.30462 21.605465,-31.90235 7.07556,-7.3477 16.22745,-12.44954 22.78711,-20.28515 2.53322,-4.68028 2.33988,-10.76439 1.9961,-16.06641 -0.44282,-7.45723 -8.87057,-7.57538 -14.17383,-5.3164 -9.36249,2.2577 -17.48109,7.89327 -26.74805,10.3789 -3.606036,0.73989 -7.849509,-0.83417 -9.740232,-3.98828 1.762154,-5.54359 5.019771,-10.69964 7.435542,-15.9375 3.11632,-5.2042 4.75971,-11.05242 4.30274,-17.12695 -0.15155,-5.92922 1.76638,-13.47699 -3.4668,-17.82617 -1.16147,-0.47267 -2.35822,-0.66119 -3.574217,-0.67188 z m 403.496097,0 c 3.64799,-0.0321 7.47333,1.54859 11.07226,1.94531 13.47771,3.12578 27.80527,8.45113 36.09961,20.1836 0.12267,9.54322 1.35857,20.15756 -4.875,28.25195 -5.28538,7.58299 -13.07095,14.25859 -16.11914,23.09766 1.66242,2.56486 4.63227,4.39169 7.62891,5.4414 5.12404,2.59916 10.92059,2.50721 16.44922,2.18164 2.44661,2.40773 1.20791,13.18503 -0.91993,14.62891 -8.90565,-0.17911 -17.81005,-2.74637 -25.15039,-7.83985 -5.10672,-4.9332 -2.8458,-12.57072 -3.20312,-18.85546 -0.73792,-8.5918 5.90858,-15.1615 10.83398,-21.38282 4.09017,-4.65966 8.25321,-9.80077 10.17188,-15.72461 -6.46854,-10.16415 -18.61973,-14.99445 -30.02735,-17.20703 -4.56059,-0.55835 -9.36548,-1.67801 -13.88476,-0.70312 -0.23981,0.34303 -0.43037,0.85366 -0.5957,1.42578 0.002,0.0148 0.004,0.0182 0.006,0.0332 2.55259,10.5098 10.2723,19.0257 12.35156,29.67578 -0.31947,6.28382 0.99173,13.27175 -1.55078,19.05469 -4.40919,6.31689 -13.42586,6.27375 -19.60547,2.77149 -8.37088,-4.15654 -17.14249,-8.67741 -26.62891,-9.03516 5.02748,6.21222 11.8258,10.84952 17.43555,16.53125 7.89474,7.0687 15.33774,14.84238 20.11914,24.41992 4.50342,7.70722 8.04505,16.50348 6.9375,25.59375 0.62039,6.03709 -0.27707,13.17567 -8.02734,12.94141 -10.96835,1.66013 -22.2265,1.96805 -33.12501,-0.33594 -7.73282,1.12914 -8.44895,-11.05777 -3.38867,-14.40625 7.02048,0.45721 13.97523,2.8677 21.13086,2.60156 6.08009,-0.37611 13.24617,0.48403 18.32617,-3.40039 -0.28747,-1.3796 -0.62656,-2.57671 -1.0371,-3.14648 -4.03804,-12.42338 -11.85142,-23.30462 -21.60547,-31.90235 -7.07556,-7.3477 -16.22745,-12.44954 -22.78711,-20.28515 -2.53322,-4.68028 -2.33988,-10.76439 -1.9961,-16.06641 0.44282,-7.45723 8.87057,-7.57538 14.17383,-5.3164 9.36249,2.2577 17.48109,7.89327 26.74805,10.3789 3.60604,0.73989 7.84951,-0.83417 9.74023,-3.98828 -1.76215,-5.54359 -5.01977,-10.69964 -7.43554,-15.9375 -3.11632,-5.2042 -4.75971,-11.05242 -4.30274,-17.12695 0.15155,-5.92922 -1.76638,-13.47699 3.4668,-17.82617 1.16147,-0.47267 2.35822,-0.66119 3.57422,-0.67188 z"
       sodipodi:nodetypes="scccccccccccccccccccccccccccccccccccccs"
       inkscape:path-effect="#path-effect849"
       inkscape:original-d="m 98.251953,183.375 c -3.647989,-0.0321 -7.473332,1.54859 -11.072265,1.94531 -13.477709,3.12578 -27.805266,8.45113 -36.09961,20.1836 -0.122668,9.54322 -1.358565,20.15756 4.875,28.25195 5.285387,7.58299 13.070954,14.25859 16.119141,23.09766 -1.66242,2.56486 -4.632274,4.39169 -7.628907,5.4414 -5.124046,2.59916 -10.920589,2.50721 -16.449218,2.18164 -2.446615,2.40773 -1.207914,13.18503 0.919922,14.62891 8.905656,-0.17911 17.810052,-2.74637 25.15039,-7.83985 5.106722,-4.9332 2.8458,-12.57072 3.203125,-18.85546 0.737921,-8.5918 -5.908585,-15.1615 -10.833984,-21.38282 -4.090167,-4.65966 -8.253206,-9.80077 -10.171875,-15.72461 6.468542,-10.16415 18.619723,-14.99445 30.027344,-17.20703 4.560593,-0.55835 9.365486,-1.67801 13.884764,-0.70312 0.23981,0.34303 0.43037,0.85366 0.5957,1.42578 -0.002,0.0148 -0.004,0.0182 -0.006,0.0332 -2.552592,10.5098 -10.272297,19.0257 -12.351558,29.67578 0.319466,6.28382 -0.991729,13.27175 1.550782,19.05469 4.409189,6.31689 13.425856,6.27375 19.605466,2.77149 8.37088,-4.15654 17.14249,-8.67741 26.62891,-9.03516 -5.02748,6.21222 -11.8258,10.84952 -17.43555,16.53125 -7.89474,7.0687 -15.33774,14.84238 -20.119139,24.41992 -4.503418,7.70722 -8.04505,16.50348 -6.9375,25.59375 -0.620393,6.03709 0.277073,13.17567 8.027344,12.94141 10.968345,1.66013 22.226495,1.96805 33.125005,-0.33594 7.73282,1.12914 8.44895,-11.05777 3.38867,-14.40625 -7.02048,0.45721 -13.97523,2.8677 -21.13086,2.60156 -6.08009,-0.37611 -13.24617,0.48403 -18.326174,-3.40039 0.287471,-1.3796 0.62656,-2.57671 1.037109,-3.14648 4.038035,-12.42338 11.851415,-23.30462 21.605465,-31.90235 7.07556,-7.3477 16.22745,-12.44954 22.78711,-20.28515 2.53322,-4.68028 2.33988,-10.76439 1.9961,-16.06641 -0.44282,-7.45723 -8.87057,-7.57538 -14.17383,-5.3164 -9.36249,2.2577 -17.48109,7.89327 -26.74805,10.3789 -3.606036,0.73989 -7.849509,-0.83417 -9.740232,-3.98828 1.762154,-5.54359 5.019771,-10.69964 7.435542,-15.9375 3.11632,-5.2042 4.75971,-11.05242 4.30274,-17.12695 -0.15155,-5.92922 1.76638,-13.47699 -3.4668,-17.82617 -1.16147,-0.47267 -2.35822,-0.66119 -3.574217,-0.67188 z"
       class="UnoptimicedTransforms" />
  </g>
  <g
     id="g56"
     transform="matrix(0.7993744,0,0,0.79834846,-183.92528,-236.4721)"
     style="stroke:#0000ff;stroke-width:1.25178;stroke-opacity:1"
     inkscape:groupmode="layer"
     inkscape:label="bridge">
    <path
       id="path1715"
       style="font-variation-settings:normal;display:inline;opacity:1;vector-effect:none;fill:#ffffff;fill-opacity:1;stroke:#0000ff;stroke-width:1.80544;stroke-linecap:butt;stroke-linejoin:miter;stroke-miterlimit:4;stroke-dasharray:none;stroke-dashoffset:0;stroke-opacity:1;-inkscape-stroke:none;stop-color:#000000;stop-opacity:1"
       d="m 350.40931,666.91305 v 107.31641 l 39.80274,-0.0449 v -38.26172 c 0,-25.73197 20.7231,-46.45703 46.45508,-46.45703 25.73197,0 46.45508,20.72506 46.45508,46.45703 v 38.26172 h 40.51367 v -60.76758 c 0,-28.69997 23.11253,-51.8125 51.8125,-51.8125 28.69997,0 51.8125,23.11253 51.8125,51.8125 v 60.76758 h 40.50976 v -38.26172 c 0,-25.73197 20.72311,-46.45703 46.45508,-46.45703 25.73198,0 46.45508,20.72506 46.45508,46.45703 v 38.26172 h 40.04883 V 667.0986 c -52.44109,-41.2971 -132.54481,-67.625 -225.29297,-67.625 l 0.004,-0.004 c -92.3573,0 -172.55101,26.42674 -225.03125,67.44335 z"
       transform="translate(29.938,0.03125)" />
    <g
       fill="none"
       stroke-width="1.87767"
       id="g36"
       style="display:inline;stroke:#0000ff;stroke-opacity:1">
      <path
         d="m 380.348,682.7904 c 48.778,-41.243 131.38,-69.637 225.03,-69.637 93.843,0 176.56,28.481 225.29,69.861"
         color="#000000"
         stroke-linecap="square"
         id="path28"
         sodipodi:nodetypes="csc"
         style="stroke-width:2.35044;stroke-linecap:round;stroke:#0000ff;stroke-opacity:1" />
      <path
         d="m 670.96,735.99 v -22.542 c 0,-36.087 -29.486,-65.574 -65.574,-65.574 -36.087,0 -65.572,29.486 -65.572,65.574 v 22.542"
         color="#000000"
         id="path30"
         style="stroke-width:2.35044;stroke:#0000ff;stroke-opacity:1" />
      <path
         d="m 804.05,735.95 c 0,-32.945 -26.944,-59.891 -59.889,-59.891 -32.945,0 -59.889,26.946 -59.889,59.891"
         color="#000000"
         id="path32"
         style="stroke-width:2.35044;stroke:#0000ff;stroke-opacity:1" />
      <path
         d="m 526.49,735.95 c 0,-32.945 -26.944,-59.891 -59.889,-59.891 -32.945,0 -59.889,26.946 -59.889,59.891"
         color="#000000"
         id="path34"
         style="stroke-width:2.35044;stroke:#0000ff;stroke-opacity:1" />
    </g>
    <g
       fill="#e6e6e6"
       id="g54"
       style="display:inline;stroke-width:1.56696;stroke:#0000ff;stroke-opacity:1">
      <g
         stroke-width="1.80494"
         id="g44"
         style="display:inline;stroke:#0000ff;stroke-opacity:1"
         inkscape:label="keystones">
        <path
           transform="matrix(1.0403,0,0,1.0403,-24.384,27.613)"
           d="m 595.89,592.58 v 3.5803 l 4.7083,18.98 h 9.5883 l 4.7083,-18.98 V 592.58 h -9.5147 z"
           id="path38"
           style="fill:#ffffff;stroke-width:1.80494;stroke:#0000ff;stroke-opacity:1" />
        <path
           transform="matrix(1.0403,0,0,1.0403,-24.384,27.613)"
           d="m 729.29,619.69 v 3.5803 l 4.7083,18.98 h 9.5883 l 4.7083,-18.98 V 619.69 h -9.5147 z"
           id="path40"
           style="fill:#ffffff;stroke-width:1.80494;stroke:#0000ff;stroke-opacity:1" />
        <path
           transform="matrix(1.0403,0,0,1.0403,-24.384,27.613)"
           d="m 481.46,619.69 v 3.5803 l -4.7083,18.98 h -9.5883 l -4.7083,-18.98 V 619.69 h 9.5147 z"
           id="path42"
           style="fill:#ffffff;stroke-width:1.80494;stroke:#0000ff;stroke-opacity:1" />
      </g>
      <path
         d="m 558.37,735.91 h -49.988 v 16.086 h 49.988 z"
         stroke-width="1.80544"
         id="path50"
         style="display:inline;fill:#ffffff;stroke:#0000ff;stroke-opacity:1" />
      <use
         x="0"
         y="0"
         xlink:href="#path50"
         id="use1680"
         transform="translate(-133.5499,-0.029)"
         style="stroke-width:1.25178;stroke:#0000ff;stroke-opacity:1" />
      <use
         x="0"
         y="0"
         xlink:href="#path50"
         id="use1682"
         transform="translate(277.5579,-0.029)"
         style="stroke-width:1.25178;stroke:#0000ff;stroke-opacity:1" />
      <use
         x="0"
         y="0"
         xlink:href="#path50"
         id="use1684"
         transform="translate(144.018)"
         style="display:inline;stroke-width:1.25178;stroke:#0000ff;stroke-opacity:1" />
    </g>
    <path
       d="m 605.38025,629.07957 -1e-5,-15.918 m -151.45,61.717 -5e-5,2.5421 m -25.241,-2.542 v 14.791 m -37.861,31.008 -5e-5,15.20333 m 12.62,-30.47033 v 15.266 m 10e-6,-45.799 v 15.266 m -12.62,6e-5 v 15.266 m 25.241,-15.266 v 13.745 m 0,-29.012 v -15.266 m 12.621,0 -1e-5,-8.0625 m 12.62,8.0625 v 15.266 m 25.241,-15.266 -5e-5,12.658 m -12.62,-27.924 -5e-5,15.266 m 12.62,-15.266 -5e-5,-8.6768 m 12.62,41.734 -1e-5,-2.525 m 0,-30.533 1e-5,15.266 m 25.241,15.266 v 14.726 m 0,-45.259 v 15.266 m -12.62,-5e-5 v 15.266 m 10e-6,-30.533 -10e-6,-15.266 m 12.62,-5e-5 v -4.4218 m 12.62,19.688 -10e-6,-15.266 m 0,30.533 v 15.266 m 0,15.266 v 13.622 m 12.61999,1.6444 v 15.266 m 0,-45.799 v 15.266 m 0,-45.799 10e-6,15.266 m 0,-30.533 -10e-6,-9.5593 m 12.62001,40.092 v 15.266 m 0,-45.799 10e-6,15.266 m 12.61999,0 v 15.266 m 0,-30.533 -4e-5,-13.128 m 12.61999,13.128 v 15.266 m 12.62001,-5e-5 10e-6,8.6031 m 12.61999,-8.603 v -15.266 m -12.61999,0 v -15.227 m -171.45,106.83 -28.33464,-0.0737 m 159.44363,0.0737 -15.30399,-1.1e-4 m -109.36,-15.266 -34.77964,-2e-5 m 159.93463,2e-5 h -22.238 m -89.361,-15.266 -48.33563,6e-5 m 163.74263,0 h -39.03 m 47.34901,-15.266 h -75.949 m -19.771,0 h -65.86401 m 177.2,-15.266 h -154.37 m 181.85,-15.266 -151.28,-6e-5 m 161.15001,-15.266 -117.97001,5e-5 m 269.42,45.799 5e-5,2.5421 m 25.241,-2.542 v 14.791 m 37.861,31.008 5e-5,15.20278 m -12.62,-30.46978 v 15.266 m -10e-6,-45.799 v 15.266 m 12.62,6e-5 v 15.266 m -25.241,-15.266 v 13.745 m 0,-29.012 v -15.266 m -12.621,0 10e-6,-8.0625 m -12.62,8.0625 v 15.266 m -25.241,-15.266 5e-5,12.658 m 12.62,-27.924 5e-5,15.266 m -12.62,-15.266 5e-5,-8.6768 m -12.62,41.734 10e-6,-2.525 m 0,-30.533 -10e-6,15.266 m -25.241,15.266 v 14.726 m 0,-45.259 v 15.266 m 12.62,-5e-5 v 15.266 m -1e-5,-30.533 1e-5,-15.266 m -12.62,-5e-5 v -4.4218 m -12.62,19.688 10e-6,-15.266 m 0,30.533 v 15.266 m 0,15.266 v 13.622 m -12.62,1.6444 v 15.266 m 0,-45.799 v 15.266 m 0,-45.799 -10e-6,15.266 m 0,-30.533 10e-6,-9.5593 m -12.62,40.092 v 15.266 m 0,-45.799 -10e-6,15.266 m -12.62,0 v 15.266 m 0,-30.533 5e-5,-13.128 m -12.62,13.128 v 15.266 m -12.62,-5e-5 -10e-6,8.6031 m -12.62,-8.603 v -15.266 m 12.62,0 v -15.227 m 171.45,106.83 28.5944,-0.004 m -159.7004,0.004 15.304,-1.1e-4 m 109.36,-15.266 35.0364,-3e-5 m -160.1964,3e-5 h 22.238 m 89.361,-15.266 48.5974,-0.14764 m -164.0044,0.1477 h 39.03 m -47.349,-15.266 h 75.949 m 19.771,0 h 65.864 m -177.2,-15.266 h 154.37 m -181.81,-15.266 151.24,-6e-5 m -161.15,-15.266 117.97,5e-5"
       fill="none"
       stroke-width="0.876247"
       id="path1831"
       style="display:inline;stroke:#0000ff;stroke-opacity:1"
       sodipodi:nodetypes="cccccccccccccccccccccccccccccccccccccccccccccccccccccccccccccccccccccccccccccccccccccccccccccccccccccccccccccccccccccccccccccccccccccccccccccccccccccccccccccccccccccccccccccccccccccccccc" />
  </g>
  <g
     id="layer9"
     transform="translate(-274.55394,-351.97338)"
     inkscape:groupmode="layer"
     style="stroke:#000000"
     inkscape:label="angel">
    <path
       id="path7751"
       d="m 677.68044,372.53 c -1.1858,0.005 -2.6253,0.0546 -4.3657,0.1494 -25.997,4.08 -51.577,8.5329 -68.607,20.584 -13.821,9.0461 -8.5112,14.665 -12.201,23.24 -1.1093,17.039 -10.226,16.922 -18.144,19.372 5.9199,8.8516 17.266,16.104 3.1373,3.8677 -1.6401,-0.99227 -2.8292,-2.2094 -3.1373,-3.8677 -0.7233,-2.5594 -0.2143,-3.9987 1.5105,-4.3325 3.1664,-3.6213 3.3878,-5.3455 3.5026,-7.0051 -0.6699,-3.9463 2.3216,-11.137 -3.5026,-10.524 -0.4785,-0.89274 0.2958,-3.1292 -2.8385,-1.162 -0.8691,-0.90363 -2.0232,-2.391 -3.3366,-4.1831 -2.6746,-2.3796 -6.0162,-2.5696 -10.026,-0.49799 -2.1845,-0.0105 -4.2822,-2.5127 -6.6731,3.6685 -2.0615,-0.48843 -10.687,5.0525 -5.5111,10.358 1.8954,3.8045 1.3308,5.9657 1.3446,8.5157 0,0 -2.96724,-12.30685 -10.4423,-19.52877 -15.64326,-15.11351 -48.44743,-20.37817 -65.75517,-24.77739 -17.14049,-4.3567 -24.687,-11.255 -24.687,-11.255 -0.141,0.20918 -0.49373,0.58646 -0.70513,0.28358 0.075,0.0804 0.5443,0.249 0.5443,0.249 0,0 4.3116,7.475 10.627,9.2294 0.1481,4.6753 4.6254,7.4837 12.649,8.7979 1.3192,-0.20365 4.0729,0.0644 7.3537,0.51459 l 0.332,0.1494 c -15.938,-0.5406 -9.3114,3.1834 2.2243,5.2289 l 0.083,0.38179 -0.017,-0.0166 c -5.8572,-0.35488 -4.1617,1.4345 0.7636,3.1374 l 1.0344,0.89146 20.239,9.5023 c -5.1747,2.3719 3.6118,4.8934 5.685,6.3686 l 9.3674,2.1122 c -2.3295,0.56704 -11.034,0.81533 -7.2311,1.6686 l 7.3916,2.4334 c -7.25945,0.69006 -8.86779,2.90658 0.16654,3.5076 l 6.37985,-0.0749 c -9.49144,2.70717 -14.85825,4.22595 -1.42725,4.1805 l 2.3507,0.72028 c -7.68102,1.14279 -11.44049,5.90781 0.13331,3.7488 l 2.9962,0.218 c -8.3391,1.88715 -11.88443,3.45669 0.0499,2.6728 l 0.68187,1.0227 c -6.66411,2.33355 -3.69991,3.74897 4.46876,2.12374 -4.22418,1.88617 -10.43031,6.26607 2.9408,5.44956 l 0.5644,0.4814 c -1.3752,0.66137 -0.79684,1.4028 1.0624,2.407 l 0.82425,-0.044 0.0721,-0.68638 c -2.5481,3.0869 -6.924,2.4041 -7.4201,5.4447 -4.8924,1.3358 -7.406,4.0181 -8.5157,8.9141 -5.1745,2.9361 -11.01,6.5076 -16.185,10.773 -2.0619,2.8429 -6.2791,3.8353 -13.014,2.6726 -1.9658,0.4323 -2.3014,1.2427 1.494,3.0046 3.2411,0.007 3.9577,1.821 -7.3371,9.8436 1.9379,-0.21439 4.015,0.28194 6.1751,1.1786 5.3824,-0.33336 8.4246,-5.7315 12.599,-8.6817 6.8223,-3.2763 12.86,-3.932 19.538,-7.5197 4.6963,7.2316 10.455,8.6269 16.932,2.5066 -0.6309,-1.544 -0.185,-4.6854 1.6766,-6.0091 4.685,5.5888 3.9818,13.604 5.8431,20.534 0.1837,1.2826 0.3691,2.5644 0.5644,3.8345 0.01,0.0446 0.013,0.0881 0.017,0.1328 1.1381,7.3729 2.622,14.377 6.092,19.239 2.3113,3.9909 8.4314,3.6475 12.184,7.0383 v 0.0166 c 0.5591,0.50639 1.0607,1.0937 1.494,1.7928 9.7012,15.343 19.561,30.491 30.892,44.72 7.3621,2.8443 1.7821,27.536 13.844,17.695 2.2367,-3.8171 15.201,3.9578 22.044,7.6857 12.837,7.9861 11.536,2.1396 16.849,-0.49799 6.1814,1.5022 12.854,-1.687 18.874,-6.0091 0.7983,-3.9438 0.1669,-8.5457 6.0091,-10.69 5.8423,-2.1445 6.1178,1.3748 15.355,4.1831 7.1273,2.3498 8.5054,-7.2253 3.1706,-10.856 -8.9159,-4.7802 -12.438,-9.578 -18.525,-14.027 0.6192,-6.8085 -5.0845,-9.0156 -9.0137,-12.516 -1.2486,-0.75107 -0.9229,-3.9421 -4.3491,-1.328 -0.7754,-2.203 -1.55,-4.393 -4.4985,-3.3365 -0.7321,-2.986 -2.5276,-2.3948 -4.3491,-1.6766 -0.4131,-1.5739 -2.5088,-2.302 -4.6646,-3.0046 -3.0076,-0.38033 -5.4184,-2.561 -8.0176,-4.1665 -0.7668,-0.67668 -1.6838,-3.2934 -2.6726,-6.8557 -2.9595,-10.267 -9.6843,-12.3 -17.031,-25.032 l 1.1786,-2.1746 c -3.4856,-9.8125 -14.916,-14.508 -18.193,-22.692 4.5923,-2.3111 -0.92,-5.6085 0.5311,-8.7647 1.466,1.1552 -0.9966,1.655 0.6308,2.9216 3.822,2.6056 4.6498,4.2634 9.8105,7.2873 4.5504,1.9917 5.9744,2.7005 7.6193,3.9009 0.5755,0.26767 1.1445,0.5448 1.7761,0.82999 3.8889,2.3787 7.7587,4.781 12.682,5.6771 0.2976,-0.95798 -0.4733,-2.2822 -3.0045,-4.1831 1.8271,-0.58489 3.4841,-0.69135 4.9965,-0.332 0.3853,-3.835 -2.358,-4.5339 -4.3325,-6.0091 -0.5839,0.0361 -1.1826,0.0829 -1.7762,0.1328 -14.94908,1.32516 0.90276,-6.13746 -14.577,-17.6529 -10.09858,-7.84879 -1.63762,-6.10822 -7.6165,-13.7375 0.1057,0.0833 0.2228,0.15919 0.332,0.2324 5.5042,3.6883 8.0973,2.3104 -0.5146,-5.1459 l 0.033,-0.56439 c 8.9486,5.0361 13.787,1.443 0.3486,-5.1127 l 0.016,-0.46479 c 0.21,0.10024 0.4193,0.19751 0.6143,0.2988 18.074,9.5156 10.358,-1.0854 0.3652,-6.4075 l -0.5644,-0.0498 0.05,-0.71378 c 0.056,-0.009 0.1105,-0.008 0.166,-0.0166 2.6846,1.3635 5.3196,2.8065 7.8849,4.3491 8.0614,3.9424 9.6701,1.0609 2.6892,-3.6353 8.816,2.8276 4.7725,-5.1336 -2.324,-7.7189 -0.1075,-0.10887 -0.2091,-0.19189 -0.3154,-0.29879 0.3957,0.16412 0.7892,0.32624 1.1786,0.49799 8.3364,4.2714 7.0382,-1.9779 2.2907,-3.0544 6.5164,0.0647 3.9017,-1.8866 1.5106,-3.8013 6.3267,-1.8027 8.7261,-4.0371 5.9095,-6.8557 4.1431,-1.9334 7.5145,-3.9044 4.0006,-6.1087 3.1228,-1.0749 8.121,-1.213 5.5276,-5.1459 3.1747,-2.2157 8.2832,-4.659 3.2536,-5.9095 14.921,-6.987 17.667,-9.5609 13.031,-9.4618 1.4398,-0.47302 2.9412,-0.81285 4.4985,-1.0126 10.779,-3.5362 23.829,-7.4381 12.367,-7.3869 z m -124.282,63.278 c 0.2942,0.24155 0.614,0.49597 0.9462,0.74699 -0.037,0.0639 -0.08,0.11929 -0.1162,0.1826 z"
       style="color:#000000;display:inline;fill:#ffffff;stroke:none;enable-background:accumulate"
       fill="#e7e7e7"
       inkscape:label="fill"
       sodipodi:nodetypes="ccccccccccccccccssccccccccccccccccccccccccccccccccccccccccccccccccccccccccccccccccccccccccccccccccccccccccccccccccccccccccccccc" />
    <g
       id="g7753"
       stroke-linejoin="round"
       transform="matrix(0.53119156,0,0,0.53119156,46.1696,162.65721)"
       stroke-dashoffset="0"
       stroke="#000000"
       stroke-linecap="round"
       stroke-miterlimit="4"
       stroke-dasharray="none"
       stroke-width="1.88256"
       fill="none"
       inkscape:label="lines"
       inkscape:groupmode="layer"
       style="stroke:#0000ff;stroke-opacity:1">
      <path
         id="path12090"
         style="color:#000000;enable-background:accumulate;stroke:#0000ff;stroke-opacity:1"
         d="m 1000.9,521.57 c 14.667,-2.0516 20.09,-1.259 23.998,0 9.4692,10.652 23.989,7.1786 28.442,15.998 1.3578,6.4726 6.071,8.578 12.443,10.872 8.0628,-1.398 14.912,8.4851 22.22,13.126 16.81,12.319 11.136,17.143 11.554,23.998 -12.952,-4.8985 -23.145,-34.637 -39.107,-12.443 -4.0153,-20.386 12.011,-14.63 26.664,-10.666" />
      <path
         id="path12088"
         style="color:#000000;enable-background:accumulate;stroke:#0000ff;stroke-opacity:1"
         d="m 1099.5,585.56 c 0.9813,9.1749 9.8779,7.1366 17.676,6.655 3.7171,2.7771 8.8956,4.0929 8.1702,11.313 -2.8471,-0.6765 -5.9876,-0.47262 -9.4272,0.62847 4.7652,3.5786 6.2165,6.0525 5.6563,7.856 -9.2687,-1.6869 -16.561,-6.206 -23.882,-10.684 -27.17,-12.268 -25.907,-15.651 -36.137,-22.625" />
      <path
         id="path12086"
         style="color:#000000;enable-background:accumulate;stroke:#0000ff;stroke-opacity:1"
         d="m 1060.4,573.12 c -2.8821,5.9695 7.6527,12.211 -1.0371,16.584 6.1707,15.407 27.69,24.264 34.252,42.736 l -2.1996,4.0851 c 13.831,23.969 26.481,27.807 32.052,47.136 1.8615,6.7063 3.5843,11.61 5.0278,12.884 4.8932,3.0226 9.4214,7.14 15.084,7.856 4.0583,1.3227 8.0209,2.6933 8.7986,5.6563 3.4292,-1.3522 6.792,-2.4788 8.1702,3.1424 5.5507,-1.9889 7.0246,2.1374 8.4844,6.2848 6.45,-4.9213 5.8195,1.1 8.1702,2.5139 7.3969,6.59 18.134,10.75 16.969,23.568 11.459,8.3751 18.096,17.397 34.88,26.396 10.043,6.8355 7.4469,24.849 -5.9705,20.425 -17.389,-5.2868 -17.912,-11.893 -28.91,-7.8559 -10.998,4.0372 -9.8097,12.687 -11.313,20.111 -11.333,8.1367 -23.872,14.141 -35.509,11.313 -10.001,4.9655 -7.5723,15.977 -31.738,0.94271 -12.884,-7.018 -37.269,-21.641 -41.479,-14.455 -22.708,18.526 -15.315,-28.573 -26.082,-33.309 -21.331,-26.787 -39.871,-55.332 -58.134,-84.216 -6.2904,-10.149 -20.764,-8.0159 -25.768,-16.655 -7.6964,-10.783 -10.203,-27.156 -12.57,-43.679 -3.504,-13.046 -5.6326,-27.467 -10.998,-38.651 -3.5046,2.492 -4.3301,8.406 -3.1424,11.313 -12.192,11.522 -23.054,8.9003 -31.895,-4.7136 -12.572,6.7541 -23.922,7.9728 -36.766,14.141 -7.8589,5.5538 -13.592,15.713 -23.725,16.34 -4.0666,-1.688 -7.9786,-2.6033 -11.627,-2.1997 21.263,-15.103 19.928,-18.526 13.826,-18.54 -7.145,-3.3167 -6.529,-4.8424 -2.8281,-5.6563 12.679,2.1889 20.629,0.32406 24.511,-5.0278 9.7414,-8.0304 20.74,-14.741 30.481,-20.268 2.089,-9.217 6.8158,-14.297 16.026,-16.812 1.1539,-7.0729 13.476,-3.421 16.655,-15.712 9.3457,-5.0141 18.28,-11.193 25.139,-23.254 -5.5404,-4.187 -8.1318,-7.6369 -10.37,-10.998 -0.0257,-4.8005 1.0543,-8.8639 -2.5139,-16.026 -9.7436,-9.9884 6.4889,-20.402 10.37,-19.483 4.5009,-11.637 8.4572,-6.9331 12.57,-6.9132 7.549,-3.8999 13.819,-3.537 18.854,0.94271 2.4725,3.3738 4.6486,6.1548 6.2848,7.856 5.9004,-3.7034 4.4411,0.51902 5.342,2.1997 10.964,-1.1544 5.3378,12.368 6.599,19.797 -0.2162,3.1243 -0.6381,6.3807 -6.599,13.198 -3.2471,0.62848 -4.1898,3.3519 -2.8281,8.1702 0.57995,3.1219 2.8186,5.4145 5.9063,7.2825" />
      <path
         id="path12084"
         style="color:#000000;enable-background:accumulate;stroke:#0000ff;stroke-opacity:1"
         d="m 946.89,496.56 c 9.0857,-2.2801 17.04,-8.0884 16.44,-15.653 2.3822,-1.2901 1.526,-4.0884 1.7776,-6.4438 l 1.7776,-8.2214 0.43731,-4.1182 0.22929,12.34 v 9.3324 c 4.3724,8.1767 11.258,5.4823 14.665,5.1106 l 3.7774,-0.6666 c 1.522,2.8695 2.7306,6.115 7.1104,5.555 0.29591,2.4443 1.1923,4.6485 -1.3332,8.2214 l -1.7776,3.5552 c 1.1417,14.039 6.355,13.828 10.888,15.998" />
      <path
         id="path12082"
         style="color:#000000;enable-background:accumulate;stroke:#0000ff;stroke-opacity:1"
         d="m 954.66,497.35 c 2.247,-1.6806 4.1955,-1.8683 5.9994,-1.3332" />
      <path
         id="path12080"
         style="color:#000000;enable-background:accumulate;stroke:#0000ff;stroke-opacity:1"
         d="m 971.22,494.62 c 2.2074,-0.49108 5.2347,-0.41479 6.8882,0.4444" />
      <path
         id="path12078"
         style="color:#000000;enable-background:accumulate;stroke:#0000ff;stroke-opacity:1"
         d="m 962.66,501.84 c 0,0.42952 -2.226,1.5554 -3.944,1.5554 -1.718,0 -2.222,-0.12598 -2.222,-0.5555 0,-0.42951 1.0595,-1.722 2.7775,-1.722 1.718,0 3.3886,0.29264 3.3886,0.72215 z" />
      <path
         id="path12076"
         style="color:#000000;enable-background:accumulate;stroke:#0000ff;stroke-opacity:1"
         d="m 977.66,499.62 c 0,0.67494 -1.4657,1.722 -2.9997,1.722 -1.534,0 -2.6664,-0.54716 -2.6664,-1.2221 0,-0.67495 1.0417,-1.0284 2.5553,-1.2776 1.7917,-0.29506 3.1108,0.10275 3.1108,0.7777 z" />
      <path
         id="path12074"
         style="color:#000000;enable-background:accumulate;stroke:#0000ff;stroke-opacity:1"
         d="m 967.1,512.9 3.5552,-0.6666" />
      <path
         id="path12072"
         style="color:#000000;enable-background:accumulate;stroke:#0000ff;stroke-opacity:1"
         d="m 965.99,517.12 c 2.3393,0.24063 4.8477,-0.0261 7.777,-1.5554" />
      <path
         id="path12070"
         style="color:#000000;enable-background:accumulate;stroke:#0000ff;stroke-opacity:1"
         d="m 850.32,606.39 c 3.562,0.25755 9.6737,-0.45073 7.1774,1.8522" />
      <path
         id="path12068"
         style="color:#000000;enable-background:accumulate;stroke:#0000ff;stroke-opacity:1"
         d="m 842.62,622.08 c 0.96934,-1.8499 1.6492,-3.8652 5.4502,-4.0971" />
      <path
         id="path12066"
         style="color:#000000;enable-background:accumulate;stroke:#0000ff;stroke-opacity:1"
         d="m 899.44,571.32 c 0.38557,8.3591 1.9824,15.776 6.1276,21.211" />
      <path
         id="path12064"
         style="color:#000000;enable-background:accumulate;stroke:#0000ff;stroke-opacity:1"
         d="m 944.96,530.37 c -5.4823,38.497 5.1447,67.79 7.7447,101.67" />
      <path
         id="path12062"
         style="color:#000000;enable-background:accumulate;stroke:#0000ff;stroke-opacity:1"
         d="m 935.55,549.56 c -1.9261,7.6073 2.6504,23.343 5.0573,36.367" />
      <path
         id="path12060"
         style="color:#000000;enable-background:accumulate;stroke:#0000ff;stroke-opacity:1"
         d="m 915.47,554.51 c 1.1965,9.9128 20.574,7.5164 9.0981,49.869" />
      <path
         id="path12058"
         style="color:#000000;enable-background:accumulate;stroke:#0000ff;stroke-opacity:1"
         d="m 923.88,565.91 c -6.1872,11.529 -5.9228,18.449 -3.8781,24.098" />
      <path
         id="path12056"
         style="color:#000000;enable-background:accumulate;stroke:#0000ff;stroke-opacity:1"
         d="m 924.89,557.56 c 3.3073,13.422 11.026,14.493 9.0774,42.631" />
      <path
         id="path12054"
         style="color:#000000;enable-background:accumulate;stroke:#0000ff;stroke-opacity:1"
         d="m 950.2,495.55 c 1.1496,7.3895 10.831,38.645 29.327,31.231" />
      <path
         id="path12052"
         style="color:#000000;enable-background:accumulate;stroke:#0000ff;stroke-opacity:1"
         d="m 968.09,526.48 -0.31669,9.0788 c -26.289,42.965 11.383,97.053 19.359,145.98" />
      <path
         id="path12050"
         style="color:#000000;enable-background:accumulate;stroke:#0000ff;stroke-opacity:1"
         d="m 960.13,587.07 c 4.6123,30.653 7.1903,61.916 19.736,90.189" />
      <path
         id="path12048"
         style="color:#000000;enable-background:accumulate;stroke:#0000ff;stroke-opacity:1"
         d="m 960.13,587.07 c 4.3687,13.358 10.076,22.923 19.447,22.109 1.3316,-6.7172 5.1673,-4.8824 9.2656,-4.4475 3.3312,0.35344 7.049,-1.3909 8.0175,0.0482 7.4521,-6.3451 15.712,-15.922 19.168,-6.2848 -0.1918,-0.19184 5.6244,-2.7126 7.5418,-1.257 4.2592,3.2338 13.555,-2.7858 11.941,-4.3993 5.889,0.25228 11.971,-0.009 16.655,3.4566 0.4846,-6.2688 -6.4043,-5.1537 -9.8773,-10.55 -2.6209,-4.0723 -6.7965,-7.0083 -7.0915,-11.761 -2.7469,-12.749 -14.423,-23.184 -13.512,-28.91 -1.8286,-14.27 -4.5964,-6.472 -7.2274,-1.8854" />
      <path
         id="path12046"
         style="color:#000000;enable-background:accumulate;stroke:#0000ff;stroke-opacity:1"
         d="m 971.1,555.34 c 0.44961,11.585 3.5094,20.133 7.5548,25.775" />
      <path
         id="path12044"
         style="color:#000000;enable-background:accumulate;stroke:#0000ff;stroke-opacity:1"
         d="m 1003.1,549.12 c 2.398,7.4067 4.2429,14.813 8.888,22.22" />
      <path
         id="path12042"
         style="color:#000000;enable-background:accumulate;stroke:#0000ff;stroke-opacity:1"
         d="m 1017.3,574 c 1.6686,4.3726 8.9706,9.6397 3.5552,12.888" />
      <path
         id="path12040"
         style="color:#000000;enable-background:accumulate;stroke:#0000ff;stroke-opacity:1"
         d="m 1027.1,572.67 c 3.7645,4.9468 5.798,10.636 1.3332,19.109" />
      <path
         id="path12038"
         style="color:#000000;enable-background:accumulate;stroke:#0000ff;stroke-opacity:1"
         d="m 1035.2,573.99 24.196,15.712" />
      <path
         id="path12036"
         style="color:#000000;enable-background:accumulate;stroke:#0000ff;stroke-opacity:1"
         d="m 1106.9,602.19 c 4.1151,0.96304 15.235,-5.724 3.0638,-5.1849" />
      <path
         id="path12034"
         style="color:#000000;enable-background:accumulate;stroke:#0000ff;stroke-opacity:1"
         d="m 1018.8,597.32 c 13.692,40.199 37.137,32.163 49.649,56.759" />
      <path
         id="path12032"
         style="color:#000000;enable-background:accumulate;stroke:#0000ff;stroke-opacity:1"
         d="m 1041.9,593.12 c 8.7472,7.9642 9.1327,11.835 -0.6386,11.037 -12.77,4.3663 -1.3131,12.608 10.581,10.31 22.978,-7.7383 19.739,8.5594 27.674,15.194 5.9494,9.0067 -4.3072,18.257 -11.124,24.418 -1.4725,6.5116 -3.8126,13.023 -5.9689,19.535 -2.538,14.934 0.2455,17.171 4.341,16.279 4.2331,2.6022 9.1687,2.3947 14.108,2.1705 11,-11.28 18.927,-7.9657 27.132,-5.9689 5.1614,7.7462 2.9463,12.726 2.7131,18.449 l 6.5116,3.7984 c 12.77,11.316 44.819,12.746 32.558,36.899 -5.4195,10.001 -10.553,20.311 -24.418,21.163 -7.2766,-0.33985 -12.472,-1.302 -15.435,-0.41223 -9.6285,2.8908 2.2984,11.336 10.552,6.3812 11.255,-3.632 21.825,-7.7143 29.302,-1.6279 15.909,-6.04 21.969,-0.99948 26.447,5.8209" />
      <path
         id="path12030"
         style="color:#000000;enable-background:accumulate;stroke:#0000ff;stroke-opacity:1"
         d="m 1091.4,636.52 c -17.132,20.762 -20.032,36.781 -24.642,53.369" />
      <path
         id="path12028"
         style="color:#000000;enable-background:accumulate;stroke:#0000ff;stroke-opacity:1"
         d="m 1072,671.38 c -1.3447,2.4023 0.3733,18.165 1.5422,16.606" />
      <path
         id="path12026"
         style="color:#000000;enable-background:accumulate;stroke:#0000ff;stroke-opacity:1"
         d="m 1088,640.92 c 8.6891,17.106 20.96,33.496 23.077,51.916" />
      <path
         id="path12024"
         style="color:#000000;enable-background:accumulate;stroke:#0000ff;stroke-opacity:1"
         d="m 979.57,609.18 c 22.019,131.5 98.128,106.96 103.34,125.14" />
      <path
         id="path12022"
         style="color:#000000;enable-background:accumulate;stroke:#0000ff;stroke-opacity:1"
         d="m 981.41,602.88 c 7.8367,39.951 27.875,79.918 57.347,96.45 17.06,9.5692 31.767,21.475 36.728,33.142" />
      <path
         id="path12020"
         style="color:#000000;enable-background:accumulate;stroke:#0000ff;stroke-opacity:1"
         d="m 1082,732.45 c 16.221,1.327 34.179,0.91676 44.624,8.0205" />
      <path
         id="path12018"
         style="color:#000000;enable-background:accumulate;stroke:#0000ff;stroke-opacity:1"
         d="m 1122.2,702.37 c 13.684,5.0756 27.825,7.4162 40.155,20.62 11.549,4.6609 18.218,12.574 12.48,28.759 -6.4504,12.045 1.5569,16.057 7.5969,21.163 15.374,-4.2337 30.749,3.9267 46.124,9.2247" />
      <path
         id="path12016"
         style="color:#000000;enable-background:accumulate;stroke:#0000ff;stroke-opacity:1"
         d="m 1031.4,747.18 69.009,46.354" />
      <path
         id="path12014"
         style="color:#000000;enable-background:accumulate;stroke:#0000ff;stroke-opacity:1"
         d="m 1173.2,768.57 c 12.184,5.1877 0.2728,7.8737 -5.4041,17.264 -2.4669,4.0806 1.9656,14.709 0.5205,18.549" />
      <path
         id="path12012"
         style="color:#000000;enable-background:accumulate;stroke:#0000ff;stroke-opacity:1"
         d="m 1082,732.45 c 4.4425,-14.433 7.4799,-30.271 28.722,-27.904" />
      <path
         id="path12010"
         style="color:#000000;enable-background:accumulate;stroke:#0000ff;stroke-opacity:1"
         d="m 1041.5,578.1 c 0.1392,-4.6177 -2.1682,-8.6665 1.15,-17.521 3.3182,-8.855 -3.3433,-16.723 -4.63,-6.8852" />
      <path
         id="path12008"
         style="color:#000000;enable-background:accumulate;stroke:#0000ff;stroke-opacity:1"
         d="m 944.38,488.52 c 2.5338,-5.9619 2.3901,-12.816 12.99,-16.09 4.3225,-1.6228 9.2804,-3.0028 9.512,-6.1883" />
      <path
         id="path12006"
         style="color:#000000;enable-background:accumulate;stroke:#0000ff;stroke-opacity:1"
         d="m 946.16,492.96 c -2.3056,-5.5681 16.928,-23.042 18.944,-18.506" />
      <path
         id="path12004"
         style="color:#000000;enable-background:accumulate;stroke:#0000ff;stroke-opacity:1"
         d="m 950.2,495.55 8.3707,-4.6897" />
      <path
         id="path12002"
         style="color:#000000;enable-background:accumulate;stroke:#0000ff;stroke-opacity:1"
         d="m 950.2,495.55 c 1.3874,-7.8915 4.6039,-13.941 13.129,-14.646" />
      <path
         id="path12000"
         style="color:#000000;enable-background:accumulate;stroke:#0000ff;stroke-opacity:1"
         d="m 967.55,483.79 c 5.8515,0.74043 10.727,2.4568 14.665,5.1106" />
      <path
         id="path11998"
         style="color:#000000;enable-background:accumulate;stroke:#0000ff;stroke-opacity:1"
         d="m 967.55,474.46 c 3.398,6.9981 9.6272,8.9002 17.805,7.2947 0.77227,1.4143 2.5386,1.503 0.63766,6.4817" />
      <path
         id="path11996"
         style="color:#000000;enable-background:accumulate;stroke:#0000ff;stroke-opacity:1"
         d="m 967.55,474.46 c 15.38,-1.9088 13.458,6.3899 25.698,4.4246 0.16552,-7.8836 -7.003,-10.878 -18.297,-11.122 l -0.71752,1.0763 c -3.0816,0.16595 -5.5106,1.637 -6.6832,5.6208 l -0.84819,-7.3816 c 7.9189,-4.9261 13.574,-2.6769 19.473,-4.0154" />
      <path
         id="path11994"
         style="color:#000000;enable-background:accumulate;stroke:#0000ff;stroke-opacity:1"
         d="m 967.77,477.09 c 11.949,5.1838 15.503,-11.167 24.755,1.435" />
      <path
         id="path11992"
         style="color:#000000;enable-background:accumulate;stroke:#0000ff;stroke-opacity:1"
         d="m 992.53,478.52 c 1.6993,4.0535 2.7298,8.531 2.6907,13.454 2.2502,-0.83265 6.1148,1.9768 8.365,5.3062" />
      <path
         id="path11990"
         style="color:#000000;enable-background:accumulate;stroke:#0000ff;stroke-opacity:1"
         d="m 1000.1,485.34 c 0.6972,20.558 -6.5768,13.954 -10.072,20.226" />
      <path
         id="path11988"
         style="color:#000000;enable-background:accumulate;stroke:#0000ff;stroke-opacity:1"
         d="m 994.97,514.28 c 14.905,-4.6129 32.062,-4.3986 34.15,-36.476 6.946,-16.143 -3.0588,-26.739 22.961,-43.769 32.059,-22.686 80.214,-31.066 129.15,-38.746 34.948,-1.9025 7.3231,6.2873 -15.068,13.633 -31.273,4.0108 -63.681,13.696 -96.866,27.266 l 15.786,-1.4351" />
      <path
         id="path11986"
         style="color:#000000;enable-background:accumulate;stroke:#0000ff;stroke-opacity:1"
         d="m 1140.7,413.37 c 26.213,-5.3052 32.088,-3.2417 -7.4859,15.289 9.4686,2.3541 -0.1226,6.9505 -6.099,11.122 4.8822,7.404 -4.5253,7.6631 -10.404,9.6866 6.6153,4.1497 0.2656,7.8407 -7.534,11.48 5.3024,5.3062 0.7888,9.5218 -11.122,12.916 4.5015,3.6047 9.3973,7.297 -2.8701,7.1753 8.9374,2.0265 11.389,13.781 -4.3052,5.7402 -13.088,-5.7728 -28.056,-9.2893 -45.922,-9.3279" />
      <path
         id="path11984"
         style="color:#000000;enable-background:accumulate;stroke:#0000ff;stroke-opacity:1"
         d="m 1052.8,457.72 c 18.765,-3.9256 36.48,-5.7515 52.38,-3.9464" />
      <path
         id="path11982"
         style="color:#000000;enable-background:accumulate;stroke:#0000ff;stroke-opacity:1"
         d="m 1059.6,446.95 c 16.996,-2.5219 24.156,-6.0273 58.478,-6.8165" />
      <path
         id="path11980"
         style="color:#000000;enable-background:accumulate;stroke:#0000ff;stroke-opacity:1"
         d="m 1048.9,466.33 c 17.779,-3.46 34.676,-5.6854 47.716,-2.5114" />
      <path
         id="path11978"
         style="color:#000000;enable-background:accumulate;stroke:#0000ff;stroke-opacity:1"
         d="m 1044.9,471.71 c 19.273,-1.2088 34.519,0.26713 48.074,2.8701" />
      <path
         id="path11976"
         style="color:#000000;enable-background:accumulate;stroke:#0000ff;stroke-opacity:1"
         d="m 1089.2,486.4 c 13.477,4.9098 21.123,20.137 3.9494,14.404 -12.699,-9.2745 -30.797,-13.534 -48.322,-18.586" />
      <path
         id="path11974"
         style="color:#000000;enable-background:accumulate;stroke:#0000ff;stroke-opacity:1"
         d="m 1090.8,499.18 c 16.218,9.8345 13.829,16.495 -2.3232,8.5958 -14.372,-8.6428 -29.618,-15.976 -46.464,-20.909" />
      <path
         id="path11972"
         style="color:#000000;enable-background:accumulate;stroke:#0000ff;stroke-opacity:1"
         d="m 1074.3,501.04 c 18.813,10.019 33.328,29.994 -0.6969,12.081 -7.7882,-4.0455 -22.115,-7.5209 -35.08,-15.798" />
      <path
         id="path11970"
         style="color:#000000;enable-background:accumulate;stroke:#0000ff;stroke-opacity:1"
         d="m 1068.3,511.49 c 34.8,15.517 17.721,23.705 -4.6463,6.0403 25.6,19.714 20.854,24.179 9.0381,16.262 -3.2909,-2.2052 -5.5033,-7.0348 -13.684,-8.3632 -10.111,-9.9863 -19.595,-23.321 -35.08,-4.6464" />
      <path
         id="path11968"
         style="color:#000000;enable-background:accumulate;stroke:#0000ff;stroke-opacity:1"
         d="m 1053.4,520.09 c 4.1703,17.473 14.265,18.386 13.939,28.575" />
      <path
         id="path11966"
         style="color:#000000;enable-background:accumulate;stroke:#0000ff;stroke-opacity:1"
         d="m 1071.3,532.64 c 8.8863,8.5506 1.3431,14.214 7.4342,21.373" />
      <path
         id="path11964"
         style="color:#000000;enable-background:accumulate;stroke:#0000ff;stroke-opacity:1"
         d="m 754.51,399.28 c 55.345,42.255 173.6,22.438 191.94,105.65" />
      <path
         id="path11962"
         style="color:#000000;enable-background:accumulate;stroke:#0000ff;stroke-opacity:1"
         d="m 791.11,425.48 c 40.135,16.239 122.47,23.348 128.33,57.374" />
      <path
         id="path11960"
         style="color:#000000;enable-background:accumulate;stroke:#0000ff;stroke-opacity:1"
         d="m 899.07,477.6 c 10.39,1.8759 19.6,4.9321 26.284,10.514 7.4004,2.0566 9.8426,6.0203 9.1994,11.171 1.8832,1.7082 2.931,2.9987 5.9139,5.2568 5.0967,1.9537 7.6224,5.5435 5.9139,11.828" />
      <path
         id="path11958"
         style="color:#000000;enable-background:accumulate;stroke:#0000ff;stroke-opacity:1"
         d="m 754.51,399.28 c 6.2468,6.3008 9.1779,15.441 22.179,19.053 0.27874,8.8015 8.7021,14.073 23.807,16.547 5.3776,-0.83015 23.17,2.4778 37.103,4.4996" />
      <path
         id="path11956"
         style="color:#000000;enable-background:accumulate;stroke:#0000ff;stroke-opacity:1"
         d="m 816.81,436.2 c -37.146,-1.5786 -15.179,8.1503 12.586,11.254 9.395,1.0503 11.766,-0.59194 28.198,3.4025" />
      <path
         id="path11954"
         style="color:#000000;enable-background:accumulate;stroke:#0000ff;stroke-opacity:1"
         d="m 819.26,446.68 c -15.469,-0.93722 -3.017,6.0902 15.06,9.4307 14.455,2.6712 30.67,7.7066 37.444,11.478" />
      <path
         id="path11952"
         style="color:#000000;enable-background:accumulate;stroke:#0000ff;stroke-opacity:1"
         d="m 821.12,454.34 c 14.726,4.95 27.085,11.083 38.1,17.889" />
      <path
         id="path11950"
         style="color:#000000;enable-background:accumulate;stroke:#0000ff;stroke-opacity:1"
         d="m 903.13,483.62 c -88.014,-25.89 -36.302,5.1593 2.3232,7.2019 -45.205,-7.5269 -43.065,7.9921 14.171,5.111 -48.604,-4.8816 -63.955,12.061 0,4.8787 -70.546,6.6951 -23.936,15.845 9.5251,3.2525 -30.99,6.1076 -75.433,25.409 7.4342,8.5958 -81.895,16.962 -22.877,11.683 -0.46464,8.3635 -30.399,0.17694 -50.18,17.858 -12.081,6.7373 -17.28,6.2154 -27.262,17.749 8.8281,11.151 -7.2934,1.7986 -13.068,3.7187 -5.111,6.7372" />
      <path
         id="path7755"
         style="color:#000000;enable-background:accumulate;stroke:#0000ff;stroke-opacity:1"
         d="m 967.77,535.56 c 12.903,22.854 31.206,3.6348 33.108,-13.999 3.8953,32.873 -29.028,41.558 -33.108,13.999 z" />
    </g>
    <path
       style="fill:#ffcc00;stroke:none;stroke-width:1px;stroke-linecap:butt;stroke-linejoin:miter;stroke-opacity:1"
       d="m 544.79001,416.04112 c 11.30669,-27.02152 45.73829,-7.83234 36.13562,12.77328 l 9.50321,-5.21703 -5.31693,-1.67385 7.55066,-16.73779 -9.39672,7.73971 9.61029,-22.07434 -14.28398,11.95926 4.12203,-22.12982 -11.1668,18.10697 -4.1028,-21.52656 -6.59692,20.37431 -9.32352,-17.20741 0.12442,19.23892 -11.67556,-11.94207 5.07856,15.72417 -11.73425,-6.90543 z"
       id="path2816"
       sodipodi:nodetypes="cccccccccccccccccc"
       inkscape:label="halo" />
  </g>
</svg>
