<?xml version="1.0" encoding="UTF-8" standalone="no"?>
<!-- Created with Inkscape (http://www.inkscape.org/) -->

<svg
   version="1.0"
   width="300"
   height="200"
   id="svg2780"
   inkscape:version="1.2.2 (1:1.2.2+202212051550+b0a8486541)"
   sodipodi:docname="novoboro.svg"
   xmlns:inkscape="http://www.inkscape.org/namespaces/inkscape"
   xmlns:sodipodi="http://sodipodi.sourceforge.net/DTD/sodipodi-0.dtd"
   xmlns="http://www.w3.org/2000/svg"
   xmlns:svg="http://www.w3.org/2000/svg"
   xmlns:rdf="http://www.w3.org/1999/02/22-rdf-syntax-ns#"
   xmlns:cc="http://creativecommons.org/ns#"
   xmlns:dc="http://purl.org/dc/elements/1.1/">
  <metadata
     id="metadata27">
    <rdf:RDF>
      <cc:Work
         rdf:about="">
        <dc:format>image/svg+xml</dc:format>
        <dc:type
           rdf:resource="http://purl.org/dc/dcmitype/StillImage" />
      </cc:Work>
    </rdf:RDF>
  </metadata>
  <sodipodi:namedview
     pagecolor="#ffffff"
     bordercolor="#666666"
     borderopacity="1"
     objecttolerance="10"
     gridtolerance="10"
     guidetolerance="10"
     inkscape:pageopacity="0"
     inkscape:pageshadow="2"
     inkscape:window-width="1920"
     inkscape:window-height="1145"
     id="namedview25"
     showgrid="false"
     inkscape:zoom="4"
     inkscape:cx="130.5"
     inkscape:cy="94.875"
     inkscape:window-x="0"
     inkscape:window-y="31"
     inkscape:window-maximized="1"
     inkscape:current-layer="svg2780"
     inkscape:measure-start="104.255,149.787"
     inkscape:measure-end="104.255,126.383"
     showguides="true"
     inkscape:object-paths="true"
     inkscape:snap-intersection-paths="true"
     inkscape:snap-global="false"
     inkscape:showpageshadow="0"
     inkscape:pagecheckerboard="1"
     inkscape:deskcolor="#d1d1d1" />
  <defs
     id="defs2782">
    <inkscape:path-effect
       effect="offset"
       id="path-effect4657"
       is_visible="true"
       lpeversion="1.2"
       linejoin_type="miter"
       unit="px"
       offset="1"
       miter_limit="8"
       attempt_force_join="false"
       update_on_knot_move="true" />
  </defs>
  <rect
     style="fill:#55d400;fill-rule:evenodd;stroke:#ffff00;stroke-width:4;stroke-dasharray:none;stroke-opacity:1;stop-color:#000000"
     id="rect392"
     width="296"
     height="196"
     x="2"
     y="2" />
  <path
     id="path3455"
     style="display:inline;opacity:1;fill:none;fill-opacity:1;stroke:#ffff00;stroke-width:4;stroke-miterlimit:4;stroke-dasharray:none;stroke-dashoffset:4.58;stroke-opacity:1;stroke-linejoin:round"
     d="m 51.666016,13.472656 c -2.799658,0.0013 -5.974362,0.332823 -9.617188,1.083985 -3.486025,0.718831 -5.736071,3.158357 -7.183594,5.765625 -14.843237,0.452662 -21.380809,3.310983 -23.658203,8.873046 l -0.777343,1.902344 1.976562,-0.560547 c 1.67314,-0.474529 1.889436,-0.712383 2.392578,-0.636718 l 0.0918,0.01367 0.09375,-0.002 c 3.957201,-0.149456 10.398547,0.391004 14.230469,1.582032 3.810065,1.184232 6.75934,3.441477 11.208984,5.826171 7.00142,6.987178 10.844835,14.392542 11.201172,22.507813 1.113234,25.352958 10.358523,45.365015 33.386719,54.326175 1.353782,0.52681 2.291406,1.3904 3.123047,2.82031 3.448109,5.92859 8.378231,10.80998 13.220704,15.58984 0.10008,0.86112 0.10413,1.7574 -0.28516,2.76172 -2.771427,7.15024 -4.359794,14.48361 -8.138669,20.91406 -0.617176,1.05024 -1.592731,1.08638 -2.927735,1.72461 -4.610468,2.20417 -6.787855,3.53879 -8.009765,4.71094 -1.241642,1.19108 -1.480162,2.2106 -2.191407,3.42383 l -2.435546,4.15625 3.888671,-2.84375 c 1.718864,-1.25636 3.272687,-2.56047 4.898438,-3.50781 -3.469668,3.08239 -5.4079,4.83371 -6.369141,7.23047 l -1.753906,4.375 3.378906,-3.28516 c 2.9048,-2.8234 5.991318,-4.89728 8.296875,-5.87305 -4.502665,5.11334 -4.491408,6.42999 -4.96875,8.88282 l -0.935547,4.81054 2.746094,-4.05859 c 2.999131,-4.43298 5.586213,-8.37918 9.285156,-11.19727 l -0.808593,2.02149 2.363281,-1.19532 c 3.267948,-1.65254 6.359318,-2.1526 9.312498,-1.9375 -5.77457,2.90092 -7.481027,4.21567 -8.416014,6.17774 l -1.27539,2.67578 2.634765,-1.35742 c 4.322689,-2.22663 7.968289,-4.80134 13.035159,-5.79102 -3.82291,2.87736 -5.68194,4.7413 -6.46485,6.13672 -0.81875,1.45932 -0.57572,2.55678 -0.70312,3.35938 l -0.85742,5.40234 2.71484,-4.75 c 1.17324,-2.05365 2.32718,-3.78092 3.93555,-4.85156 2.80758,-1.86894 5.18508,-3.43337 7.62109,-4.31641 3.26162,0.87371 5.97733,3.22822 7.91992,7.34766 l 2.05664,4.36133 -0.15234,-4.81836 c -0.0401,-1.2681 0.18458,-2.17604 -0.0859,-3.29883 -0.29327,-1.21725 -1.12053,-2.59572 -3.05468,-4.87696 -2.87255,-3.38803 -5.57899,-5.71456 -4.29102,-9.40039 1.99235,-5.70159 4.34987,-11.49631 6.75,-17.31835 3.36908,-0.31543 5.16498,-2.43815 3.53125,-9.42774 -0.42007,-1.7972 1.08998,-1.93606 2.36914,-1.5625 5.86995,1.71425 12.02914,4.21295 17.02344,4.37305 6.8314,4.82632 13.57192,9.64129 19.90234,14.46289 3.90075,2.97102 8.02046,6.32376 16.41406,5.82812 2.62019,-0.15472 10.1981,-0.0191 7.64844,-8.41406 -2.46532,-8.1172 -8.57859,-14.12081 -14.05078,-20.23828 2.00573,0.23518 4.05837,0.51161 5.83398,0.5293 0.86931,0.009 1.54218,-0.0575 2.02344,-0.22266 1.15253,-0.39565 1.36349,-1.44688 0.76367,-2.26758 -0.50767,-0.69463 -1.65421,-1.31619 -2.08203,-1.5293 C 171.49229,111.94431 157.57583,100.97459 143.41797,90.160156 125.60421,70.340727 106.36976,50.49882 84.591797,42.595703 79.967096,40.917422 78.564935,37.607825 77.322266,33.962891 75.582968,28.86127 73.5865,23.553924 69.013672,19.765625 65.053707,16.485047 60.185381,13.468569 51.666016,13.472656 Z M 111.00977,122.61133 c 0.37569,-0.0637 1.34462,0.50477 1.88476,0.99805 3.40175,3.10651 6.31818,6.70082 8.89453,10.59374 0.0352,1.4607 0.0412,2.87669 -0.26953,4.45118 -1.11649,5.65772 -2.18333,11.0271 -3.78515,16.07812 -1.01637,3.20493 -3.41693,5.14818 -8.51563,5.30274 -3.66958,0.11123 -5.85954,0.20623 -7.6543,0.44531 -0.50499,-2.81821 -1.48541,-5.49719 -0.71875,-8.64649 1.4401,-5.91563 2.7709,-11.72075 6.05469,-16.08203 1.23494,-0.26466 3.85543,-0.60074 3.91211,-4.32617 l 0.125,-8.21875 c 0.007,-0.45744 0.0723,-0.5957 0.0723,-0.5957 z"
     transform="matrix(-1,0,0,1,252.79797,4.1412808)"
     inkscape:path-effect="#path-effect4657"
     inkscape:original-d="M 51.665157 14.472 C 59.830883 14.468082 64.534432 17.353545 68.374142 20.5345 C 72.718586 24.133597 74.641771 29.203197 76.374142 34.2845 C 77.634164 37.980333 79.1143 41.671091 84.249142 43.5345 C 105.81134 51.359319 124.92751 71.076982 142.74914 90.9095 C 156.92159 101.73411 170.93274 112.78171 186.99914 120.7845 C 187.78459 121.17574 190.88487 122.95064 186.74914 122.9095 C 184.25905 122.8847 181.39963 122.55999 178.49914 122.1595 C 184.35758 128.97257 191.33751 135.14593 193.99914 143.9095 C 196.1707 151.05949 190.18969 150.86086 187.24914 151.0345 C 179.27141 151.50558 175.42251 148.39775 171.49914 145.4095 C 165.09456 140.53142 158.27599 135.6595 151.37414 130.7845 C 146.49051 130.7399 140.2959 128.17539 134.24914 126.4095 C 132.33562 125.85068 129.99333 126.4607 130.62414 129.1595 C 132.25729 136.14661 130.43496 137.44982 127.33508 137.48763 C 124.86304 143.47875 122.43143 149.45956 120.37414 155.347 C 118.87367 159.64094 122.04174 162.41783 124.84484 165.72395 C 128.64786 170.20943 127.66494 170.62372 127.74914 173.2845 C 125.63536 168.80205 122.65453 166.18375 118.87414 165.2845 C 116.20679 166.19061 113.65845 167.91034 110.74914 169.847 C 108.96786 171.03275 107.68877 172.95216 106.49914 175.0345 C 106.81618 173.03717 105.3507 172.02596 113.68664 165.847 C 114.73948 165.06659 114.59934 163.99217 112.68664 164.347 C 107.33554 165.33969 103.50569 168.05975 99.186642 170.2845 C 100.05231 168.46789 101.23293 167.42585 107.99914 164.097 C 109.21148 163.50055 108.71613 162.80086 107.43664 162.6595 C 104.08942 162.2897 100.60331 162.86783 96.936642 164.722 C 97.381512 163.60951 97.839274 162.86047 98.546017 162.347 L 97.561642 162.347 C 92.286417 165.25348 89.284365 170.15646 85.719845 175.42513 C 86.267598 172.6105 85.712069 172.0928 91.51672 165.77278 C 92.015152 165.2301 91.334844 164.58849 90.366329 164.88802 C 87.882367 165.65624 84.024394 168.28762 80.712032 171.50716 C 81.733355 168.96059 83.502569 167.57483 88.354611 163.24544 C 89.136447 162.54782 88.477876 161.74932 87.559689 162.00716 C 85.0354 162.71601 82.916236 164.95944 80.665157 166.60481 C 82.202323 163.98273 81.261002 163.25228 90.434689 158.86653 C 91.589309 158.31453 92.973071 158.13919 93.792111 156.74544 C 97.623839 150.22505 99.248204 142.78923 102.00109 135.68684 C 102.50872 134.3772 102.5274 133.24247 102.37024 132.17513 C 97.425222 127.29414 92.455366 122.41454 88.999142 116.472 C 88.059862 114.85702 87.018312 113.86181 85.374142 113.222 C 62.825792 104.44757 53.725388 84.864439 52.624142 59.7845 C 52.252301 51.316148 48.24675 43.678858 41.061642 36.5345 C 36.539402 34.131321 33.479139 31.771814 29.510861 30.538407 C 25.568685 29.313111 18.969977 28.759491 14.946407 28.911454 C 14.14747 28.791307 13.731828 29.119813 12.131954 29.573563 C 14.201476 24.519184 20.268516 21.678367 35.374142 21.2845 C 36.694353 18.661328 38.913109 16.222402 42.249142 15.5345 C 45.836686 14.794738 48.943249 14.473307 51.665157 14.472 z M 110.84094 121.62434 C 110.32701 121.71144 109.95253 122.14643 109.93664 123.19075 L 109.81164 131.4095 C 109.76461 134.50047 107.77038 134.49258 106.25109 134.91145 C 102.70693 139.47726 101.3354 145.59442 99.874142 151.597 C 98.95951 155.35415 100.36506 158.51375 100.75109 161.52083 C 102.49597 161.20454 105.10207 161.16021 109.24914 161.0345 C 114.72183 160.86861 117.51329 158.73444 118.68664 155.0345 C 120.30577 149.92892 121.38254 144.50526 122.49914 138.847 C 122.85163 137.06079 122.84996 135.47576 122.80578 133.89973 C 120.15188 129.85141 117.11694 126.11182 113.5675 122.87044 C 112.94242 122.2996 111.69749 121.47918 110.84094 121.62434 z " />
  <g
     id="g20544"
     inkscape:label="crow"
     transform="matrix(-1,0,0,1,252.79797,4.1412808)">
    <path
       sodipodi:nodetypes="ccsssscsscssscsscssscssscscc"
       inkscape:connector-curvature="0"
       id="path20479"
       d="m 12.131282,29.572901 c 2.069526,-5.054389 8.138062,-7.894046 23.243718,-8.287913 1.320213,-2.623178 3.538961,-5.062098 6.875,-5.75 14.350205,-2.959057 21.005376,0.758716 26.125,5 4.344452,3.599103 6.267625,8.668685 8,13.75 1.260024,3.695839 2.740148,7.386587 7.875,9.25 21.56224,7.824833 40.67833,27.542442 58.5,47.375 14.17247,10.824632 28.18356,21.872192 44.25,29.875002 0.78545,0.39124 3.88573,2.16614 -0.25,2.125 -2.49009,-0.0248 -5.34951,-0.34951 -8.25,-0.75 5.85844,6.81309 12.83837,12.98641 15.5,21.75 2.17156,7.15001 -3.80945,6.95136 -6.75,7.125 -7.97775,0.47108 -11.82663,-2.63675 -15.75,-5.625 -6.4046,-4.8781 -13.22313,-9.75 -20.125,-14.625 -4.88365,-0.0446 -11.07824,-2.60911 -17.125,-4.375 -1.91352,-0.55882 -4.25581,0.0512 -3.625,2.75 2.01952,8.64011 -1.20958,8.62253 -5.65625,8.21875 -3.12714,-5.40059 -6.8524,-10.35542 -11.4005,-14.5088 -1.00013,-0.91334 -3.58839,-2.46355 -3.63075,0.3213 l -0.125,8.21875 c -0.0561,3.68728 -2.89225,2.9568 -4.375,3.8125 -5.876338,-5.95212 -12.263799,-11.57385 -16.4375,-18.75 -0.939282,-1.61498 -1.980826,-2.61019 -3.625,-3.25 C 62.826606,104.44804 53.726248,84.864977 52.625,59.784988 52.253159,51.316618 48.247622,43.67936 41.0625,36.534988 36.540252,34.131803 33.479261,31.77202 29.510975,30.538609 25.568791,29.313311 18.969421,28.758695 14.945843,28.910658 c -0.798939,-0.120147 -1.214685,0.208493 -2.814561,0.662243 z"
       style="display:inline;opacity:1;fill:#000000;fill-opacity:1;stroke:#000000;stroke-width:1;stroke-miterlimit:4;stroke-dasharray:none;stroke-dashoffset:4.58;stroke-opacity:1" />
    <circle
       r="4.1100578"
       cy="22.241119"
       cx="48.922951"
       id="path20483"
       style="opacity:1;fill:#ffff00;fill-opacity:1;stroke:#000000;stroke-width:1;stroke-miterlimit:4;stroke-dasharray:none;stroke-dashoffset:4.58;stroke-opacity:1" />
    <circle
       r="1.1490482"
       cy="22.241119"
       cx="48.922951"
       id="path20485"
       style="opacity:1;fill:#000000;fill-opacity:1;stroke:#000000;stroke-width:1;stroke-miterlimit:4;stroke-dasharray:none;stroke-dashoffset:4.58;stroke-opacity:1" />
    <path
       sodipodi:nodetypes="ccc"
       inkscape:connector-curvature="0"
       id="path20487"
       d="m 34.913397,20.163992 c 1.651262,4.374326 3.874201,8.367534 6.938486,11.799845 C 32.602731,27.08611 23.02885,25.808393 10.805475,30.372847"
       style="opacity:1;fill:none;fill-opacity:1;stroke:#ffff00;stroke-width:1;stroke-miterlimit:4;stroke-dasharray:none;stroke-dashoffset:4.58;stroke-opacity:1" />
    <path
       sodipodi:nodetypes="cc"
       inkscape:connector-curvature="0"
       id="path20489"
       d="m 140.71425,123.35739 c 3.73238,3.87798 7.93857,6.54828 11.93922,9.63151"
       style="opacity:1;fill:none;fill-opacity:1;stroke:#ffff00;stroke-width:1;stroke-miterlimit:4;stroke-dasharray:none;stroke-dashoffset:4.58;stroke-opacity:1" />
    <path
       sodipodi:nodetypes="cssc"
       inkscape:connector-curvature="0"
       id="path20491"
       d="M 181.98088,123.82253 C 148.60317,116.36911 114.75913,110.20817 81.394945,92.179509 71.579101,86.87542 64.910087,77.16758 64.965436,69.838244 c 0.05919,-7.838485 9.333925,-5.454541 14.849242,-3.977476"
       style="opacity:1;fill:none;fill-opacity:1;stroke:#ffff00;stroke-width:1;stroke-miterlimit:4;stroke-dasharray:none;stroke-dashoffset:4.58;stroke-opacity:1" />
    <path
       sodipodi:nodetypes="cc"
       inkscape:connector-curvature="0"
       id="path20493"
       d="m 120.38493,77.262865 c 7.32175,5.749864 15.32123,10.401153 23.47445,13.240873"
       style="opacity:1;fill:none;fill-opacity:1;stroke:#ffff00;stroke-width:1;stroke-miterlimit:4;stroke-dasharray:none;stroke-dashoffset:4.58;stroke-opacity:1" />
    <path
       sodipodi:nodetypes="cssscsscsscccscc"
       inkscape:connector-curvature="0"
       id="path20495"
       d="m 101.73499,129.41199 c 0.45713,1.93821 1.22539,3.79821 0.26516,6.27557 -2.752902,7.10239 -4.375814,14.53749 -8.20755,21.05788 -0.81904,1.39375 -2.204135,1.56932 -3.358757,2.12132 -9.173705,4.38575 -8.231965,5.11502 -9.769133,7.73712 2.251083,-1.64537 4.369998,-3.88735 6.894291,-4.5962 0.918189,-0.25784 1.577333,0.53982 0.795495,1.23744 -4.85205,4.32941 -6.622046,5.7146 -7.643371,8.26117 3.312368,-3.21954 7.171808,-5.84926 9.655776,-6.61748 0.968517,-0.29953 1.647481,0.3412 1.149049,0.88388 -5.804663,6.32002 -5.249265,6.83839 -5.79702,9.65302 3.564528,-5.26867 6.568335,-10.17174 11.84357,-13.07822 h 3.3125 c -0.17829,-3.25277 -1.997912,-6.65075 -1,-10.75 1.7095,-7.02231 3.28497,-14.209 8.375,-18.875 z"
       style="display:inline;opacity:1;fill:#000000;fill-opacity:1;stroke:#000000;stroke-width:1;stroke-miterlimit:8;stroke-dasharray:none;stroke-dashoffset:4.58;stroke-opacity:1" />
    <path
       sodipodi:nodetypes="cssscsscsscsccsscc"
       inkscape:connector-curvature="0"
       id="path20497"
       d="m 122.75,131.72249 c 0.0352,2.34114 0.26387,4.521 -0.25,7.125 -1.1166,5.65827 -2.19337,11.08191 -3.8125,16.1875 -1.17335,3.69994 -3.96481,5.83411 -9.4375,6 -9.36687,0.28394 -10.896415,0.14629 -12.3125,3.6875 3.66667,-1.85417 7.15277,-2.4323 10.5,-2.0625 1.27949,0.14136 1.77484,0.84105 0.5625,1.4375 -6.76622,3.32885 -7.94683,4.37089 -8.8125,6.1875 4.31905,-2.22475 8.14889,-4.94481 13.5,-5.9375 1.9127,-0.35483 2.05284,0.71959 1,1.5 -8.33595,6.17897 -6.87046,7.19017 -7.1875,9.1875 1.18963,-2.08234 2.46872,-4.00175 4.25,-5.1875 2.90931,-1.93666 5.45765,-3.65639 8.125,-4.5625 3.78039,0.89925 6.76122,3.51755 8.875,8 -0.0842,-2.66078 0.89834,-3.07637 -2.90468,-7.56185 -2.80311,-3.30613 -5.97079,-6.08171 -4.47032,-10.37565 2.25943,-6.4659 4.96666,-13.04375 7.6875,-19.625 z"
       style="opacity:1;fill:#000000;fill-opacity:1;stroke:#000000;stroke-width:1;stroke-miterlimit:8;stroke-dasharray:none;stroke-dashoffset:4.58;stroke-opacity:1" />
  </g>
</svg>
