<?xml version="1.0" encoding="UTF-8" standalone="no"?>
<svg
   version="1.1"
   viewBox="38.381847 65.51563 364.21875 436.5"
   width="364.21875"
   height="436.5"
   id="svg95"
   sodipodi:docname="novotnia.svg"
   inkscape:version="1.2.2 (1:1.2.2+202212051550+b0a8486541)"
   xmlns:inkscape="http://www.inkscape.org/namespaces/inkscape"
   xmlns:sodipodi="http://sodipodi.sourceforge.net/DTD/sodipodi-0.dtd"
   xmlns:xlink="http://www.w3.org/1999/xlink"
   xmlns="http://www.w3.org/2000/svg"
   xmlns:svg="http://www.w3.org/2000/svg">
  <sodipodi:namedview
     id="namedview97"
     pagecolor="#ffffff"
     bordercolor="#111111"
     borderopacity="1"
     inkscape:showpageshadow="0"
     inkscape:pageopacity="0"
     inkscape:pagecheckerboard="1"
     inkscape:deskcolor="#d1d1d1"
     showgrid="false"
     inkscape:zoom="2"
     inkscape:cx="138"
     inkscape:cy="219.75"
     inkscape:window-width="1920"
     inkscape:window-height="1145"
     inkscape:window-x="0"
     inkscape:window-y="31"
     inkscape:window-maximized="1"
     inkscape:current-layer="layer1" />
  <defs
     id="defs5" />
  <g
     id="Checky_(of_5)"
     fill-opacity="1"
     fill="none"
     stroke="none"
     stroke-opacity="1"
     stroke-dasharray="none"
     inkscape:groupmode="layer"
     sodipodi:insensitive="true"
     style="display:inline">
    <title
       id="title7">Checky (of 5)</title>
    <g
       id="Graphic_3">
      <path
         d="M 39.361014,66.5 H 401.5485 c 0,0 0.0625,42.5 0.0625,145 0,102.5 -85.34355,222.16667 -181.22096,289.1979 C 124.44764,433.66667 39.416687,314.5 39.416687,211.5 c 0,-103 -0.05567,-145 -0.05567,-145 z"
         fill="#f5f5f5"
         id="path11"
         style="fill:#0000ff" />
      <path
         d="M 39.361014,66.5 H 401.5485 c 0,0 0.0625,42.5 0.0625,145 0,102.5 -85.34355,222.16667 -181.22096,289.1979 C 124.44764,433.66667 39.416687,314.5 39.416687,211.5 c 0,-103 -0.05567,-145 -0.05567,-145 z"
         stroke="#000000"
         stroke-linecap="round"
         stroke-linejoin="miter"
         stroke-width="2"
         id="path13" />
    </g>
    <g
       id="Checky_(of_5)_Layer_3"
       clip-path="none">
      <title
         id="title17">Layer 3</title>
      <g
         id="Graphic_10">
        <rect
           x="111.81103"
           y="66.5"
           width="72.449997"
           height="72.449997"
           fill="#e1e1e1"
           id="rect28"
           style="fill:#ff0000" />
        <rect
           x="111.81103"
           y="66.5"
           width="72.449997"
           height="72.449997"
           stroke="#000000"
           stroke-linecap="round"
           stroke-linejoin="round"
           stroke-width="2"
           id="rect30" />
      </g>
      <g
         id="Graphic_12">
        <rect
           x="256.71103"
           y="66.5"
           width="72.449997"
           height="72.449997"
           fill="#e1e1e1"
           id="rect33"
           style="fill:#ff0000" />
        <rect
           x="256.71103"
           y="66.5"
           width="72.449997"
           height="72.449997"
           stroke="#000000"
           stroke-linecap="round"
           stroke-linejoin="round"
           stroke-width="2"
           id="rect35" />
      </g>
      <g
         id="Graphic_14">
        <rect
           x="39.361027"
           y="138.95"
           width="72.449997"
           height="72.449997"
           fill="#e1e1e1"
           id="rect38"
           style="fill:#ff0000" />
        <rect
           x="39.361027"
           y="138.95"
           width="72.449997"
           height="72.449997"
           stroke="#000000"
           stroke-linecap="round"
           stroke-linejoin="round"
           stroke-width="2"
           id="rect40" />
      </g>
      <g
         id="Graphic_16">
        <rect
           x="184.26103"
           y="138.95"
           width="72.449997"
           height="72.449997"
           fill="#e1e1e1"
           id="rect43"
           style="fill:#ff0000" />
        <rect
           x="184.26103"
           y="138.95"
           width="72.449997"
           height="72.449997"
           stroke="#000000"
           stroke-linecap="round"
           stroke-linejoin="round"
           stroke-width="2"
           id="rect45" />
      </g>
      <g
         id="Graphic_18">
        <rect
           x="329.16104"
           y="138.95"
           width="72.449997"
           height="72.449997"
           fill="#e1e1e1"
           id="rect48"
           style="fill:#ff0000" />
        <rect
           x="329.16104"
           y="138.95"
           width="72.449997"
           height="72.449997"
           stroke="#000000"
           stroke-linecap="round"
           stroke-linejoin="round"
           stroke-width="2"
           id="rect50" />
      </g>
      <g
         id="Graphic_19">
        <rect
           x="111.81103"
           y="211.39999"
           width="72.449997"
           height="72.449997"
           fill="#e1e1e1"
           id="rect53"
           style="fill:#ff0000" />
        <rect
           x="111.81103"
           y="211.39999"
           width="72.449997"
           height="72.449997"
           stroke="#000000"
           stroke-linecap="round"
           stroke-linejoin="round"
           stroke-width="2"
           id="rect55" />
      </g>
      <g
         id="Graphic_20">
        <rect
           x="256.71103"
           y="211.39999"
           width="72.449997"
           height="72.449997"
           fill="#e1e1e1"
           id="rect58"
           style="fill:#ff0000" />
        <rect
           x="256.71103"
           y="211.39999"
           width="72.449997"
           height="72.449997"
           stroke="#000000"
           stroke-linecap="round"
           stroke-linejoin="round"
           stroke-width="2"
           id="rect60" />
      </g>
      <g
         id="Graphic_65">
        <path
           d="m 51.859934,283.85 c 7.992106,24.3922 19.534421,48.81325 33.744476,72.45 h 26.20662 v -72.45 z"
           fill="#e1e1e1"
           id="path63"
           style="fill:#ff0000" />
        <path
           d="m 51.859934,283.85 c 7.992106,24.3922 19.534421,48.81325 33.744476,72.45 h 26.20662 v -72.45 z"
           stroke="#000000"
           stroke-linecap="round"
           stroke-linejoin="round"
           stroke-width="2"
           id="path65" />
      </g>
      <g
         id="Graphic_22">
        <rect
           x="184.26103"
           y="283.85001"
           width="72.449997"
           height="72.449997"
           fill="#e1e1e1"
           id="rect68"
           style="fill:#ff0000" />
        <rect
           x="184.26103"
           y="283.85001"
           width="72.449997"
           height="72.449997"
           stroke="#000000"
           stroke-linecap="round"
           stroke-linejoin="round"
           stroke-width="2"
           id="rect70" />
      </g>
      <g
         id="Graphic_69">
        <path
           d="m 355.1716,356.3 c 14.25838,-23.6567 25.8514,-48.08377 33.8882,-72.45 h -59.89877 v 72.45 z"
           fill="#e1e1e1"
           id="path73"
           style="fill:#ff0000" />
        <path
           d="m 355.1716,356.3 c 14.25838,-23.6567 25.8514,-48.08377 33.8882,-72.45 h -59.89877 v 72.45 z"
           stroke="#000000"
           stroke-linecap="round"
           stroke-linejoin="round"
           stroke-width="2"
           id="path75" />
      </g>
      <g
         id="Graphic_66">
        <path
           d="m 111.81103,395.101 c 8.70731,11.5815 17.99039,22.8348 27.72895,33.649 h 44.72105 V 356.3 h -72.45 z"
           fill="#e1e1e1"
           id="path78"
           style="fill:#ff0000" />
        <path
           d="m 111.81103,395.101 c 8.70731,11.5815 17.99039,22.8348 27.72895,33.649 h 44.72105 V 356.3 h -72.45 z"
           stroke="#000000"
           stroke-linecap="round"
           stroke-linejoin="round"
           stroke-width="2"
           id="path80" />
      </g>
      <g
         id="Graphic_68">
        <path
           d="m 301.1802,428.75 c 9.82814,-10.91473 19.1965,-22.27645 27.98083,-33.96923 V 356.3 h -72.45 v 72.45 z"
           fill="#e1e1e1"
           id="path83"
           style="fill:#ff0000" />
        <path
           d="m 301.1802,428.75 c 9.82814,-10.91473 19.1965,-22.27645 27.98083,-33.96923 V 356.3 h -72.45 v 72.45 z"
           stroke="#000000"
           stroke-linecap="round"
           stroke-linejoin="round"
           stroke-width="2"
           id="path85" />
      </g>
      <g
         id="Graphic_67">
        <path
           d="m 184.26103,472.5568 c 11.761,10.1382 23.85573,19.56625 36.12902,28.1411 12.33442,-8.6234 24.49451,-18.11797 36.32098,-28.33503 V 428.75 h -72.45 z"
           fill="#e1e1e1"
           id="path88"
           style="fill:#ff0000" />
        <path
           d="m 184.26103,472.5568 c 11.761,10.1382 23.85573,19.56625 36.12902,28.1411 12.33442,-8.6234 24.49451,-18.11797 36.32098,-28.33503 V 428.75 h -72.45 z"
           stroke="#000000"
           stroke-linecap="round"
           stroke-linejoin="round"
           stroke-width="2"
           id="path90" />
      </g>
    </g>
  </g>
  <g
     inkscape:groupmode="layer"
     id="layer1"
     inkscape:label="falcon"
     transform="rotate(-20,69.00808,-116.26167)">
    <g
       id="g971"
       inkscape:label="feet"
       style="display:inline">
      <g
         id="g1038"
         inkscape:label="right"
         transform="rotate(20,54.284509,379.57853)">
        <path
           style="fill:#ffffff;fill-opacity:1;stroke:#000000;stroke-width:1.8;stroke-miterlimit:4;stroke-dasharray:none;stroke-opacity:1"
           d="m 14.458379,398.50497 -1.307,6.89 c -4.639,-1.576 -6.681,1.168 -8.431,2.595 -1.316,-4.662 2.44,-12.04 9.738,-9.485 z"
           id="path1008" />
        <path
           style="fill:#ffffff;fill-opacity:1;stroke:#000000;stroke-width:1.8;stroke-miterlimit:4;stroke-dasharray:none;stroke-opacity:1"
           d="m 30.260379,416.69997 c 2.078,-2.024 6.707,0.609 4.803,4.14 -2.606,4.837 -1.158,8.27 -0.616,10.86 -3.973,-0.349 -9.395,-9.925 -4.187,-15 z"
           id="path1006" />
        <path
           style="fill:#ffffff;fill-opacity:1;stroke:#000000;stroke-width:1.8;stroke-miterlimit:4;stroke-dasharray:none;stroke-opacity:1"
           d="m 10.682379,410.63397 c 3.95,-0.845 5.883,8.502 0.754,8.239 -4.764,-0.245 -5.91,2.632 -7.422,4.425 -3.052,-7.542 0.785,-11.405 6.668,-12.664 z"
           id="path1004" />
        <path
           style="display:inline;fill:#ffffff;fill-opacity:1;stroke:#000000;stroke-width:1.8;stroke-miterlimit:4;stroke-dasharray:none;stroke-opacity:1"
           d="m 44.873379,379.86597 c -1.24,11.823 -5.29,19.174 -11.3,23.29 -5.15,2.044 -9.303,1.446 -12.167,-2.577 0,0 -3.473,-3.045 -4.027,-3.121 -3.95,-0.54 -5.697,5.438 -4.951,10.033 -0.91,0.402 -1.36,0.987 -1.885,1.549 -4.245,6.68 4.18,18.826 9.85,7.799 2.65,-0.025 5.466,-0.66 6.502,-2.301 1.113,-1.289 1.938,-2.061 3.045,-3.18 -0.943,0.98 -1.72,1.884 -2.213,3.022 -3.039,6.521 7.465,10.146 9.51,7.015 1.518,-2.827 3.138,-2.274 2.822,-6.67 0.273,-2.6 0.911,-2.455 3.004,-1.822 1.742,0.487 3.585,0.627 5.416,0.506 1.58,-0.116 4.824,0.542 4.824,-0.824 0,-2.858 0.987,-5.452 3.008,-7.055 -2.754,-2.827 -5.722,-0.956 -9.39,-2.67 -0.484,-0.14 -2.086,-0.655 -1.599,-1.883 7.57,-6.412 17.024,-21.758 14.657,-19.146 z"
           id="path1014" />
        <path
           style="display:inline;fill:none;fill-opacity:1;stroke:#000000;stroke-width:1.8;stroke-miterlimit:4;stroke-dasharray:none;stroke-opacity:1"
           d="m 33.147379,407.88397 c -0.734,0.912 -2.543,2.792 -3.207,3.474 0.586,-0.625 2.377,-2.517 3.207,-3.474 z"
           id="path979" />
        <path
           style="display:inline;fill:none;fill-opacity:1;stroke:#000000;stroke-width:1.8;stroke-miterlimit:4;stroke-dasharray:none;stroke-opacity:1"
           d="m 10.542379,409.04097 c 1.205,-1.289 1.858,-2.766 9.13,-1.635 6.208,-0.325 11.604,-2.057 15.82,-5.725"
           id="path977" />
      </g>
      <g
         id="g1030"
         inkscape:label="left"
         transform="rotate(20,73.261968,382.30822)">
        <path
           style="fill:#ffffff;fill-opacity:1;stroke:#000000;stroke-width:1.8;stroke-miterlimit:4;stroke-dasharray:none;stroke-opacity:1"
           d="m 103.29038,399.95297 3.045,6.318 c 2.844,-3.014 6.331,-1.432 8.815,0.323 -0.097,-5.355 -6.096,-12.964 -11.86,-6.64 z"
           id="path1002" />
        <path
           style="fill:#ffffff;fill-opacity:1;stroke:#000000;stroke-width:1.8;stroke-miterlimit:4;stroke-dasharray:none;stroke-opacity:1"
           d="m 62.683379,404.38997 -0.701,6.979 c -4.758,-1.167 -6.554,1.745 -8.173,3.318 -1.717,-4.529 1.38,-12.206 8.874,-10.297 z"
           id="path1000" />
        <path
           style="fill:#ffffff;fill-opacity:1;stroke:#000000;stroke-width:1.8;stroke-miterlimit:4;stroke-dasharray:none;stroke-opacity:1"
           d="m 60.699379,415.17597 c 3.65,-1.852 7.368,6.829 2.361,7.897 -4.65,0.991 -5.187,4.113 -6.293,6.266 -4.442,-6.618 -1.5,-11.405 3.932,-14.162 z"
           id="path998" />
        <path
           style="fill:#ffffff;fill-opacity:1;stroke:#000000;stroke-width:1.8;stroke-miterlimit:4;stroke-dasharray:none;stroke-opacity:1"
           d="m 78.767379,420.42597 c 1.894,-2.198 6.735,0.022 5.146,3.706 -2.175,5.045 -0.433,8.338 0.333,10.871 -3.989,0 -10.225,-9.067 -5.479,-14.577 z"
           id="path279" />
        <path
           style="display:inline;fill:#ffffff;fill-opacity:1;stroke:#000000;stroke-width:1.8;stroke-miterlimit:4;stroke-dasharray:none;stroke-opacity:1"
           d="m 95.522379,378.77897 -15.385,-0.175 c -0.54,8.682 -0.435,16.635 -3.322,23.528 -2.514,2.067 -5.169,2.606 -7.989,1.328 0,0 -4.194,-0.62 -4.691,-0.354 -2.36,1.264 -2.687,4.517 -1.895,7.625 -1.992,0.671 -2.38,1.648 -2.992,2.592 -3.11,7.438 7.047,17.817 10.871,5.799 2.593,-0.54 4.02,-1.358 4.778,-3.184 1.857,-1.339 3.91,-2.938 5.467,-6.254 -2.319,4.724 -3.796,6.27 -4.229,8.805 -1.229,7.198 7.385,9.31 11.584,3.412 1.044,-3.094 0.714,-5.604 -0.285,-9.892 -0.14,-2.628 0.507,-2.608 2.656,-2.39 4.232,2.08 6.597,-0.101 8.824,-2.093 2.069001,3.916 6.826001,3.502 7.803001,-2.324 1.593,-9.495 -4.916,-8.302 -6.178,-7.188 -2.183001,1.928 -3.457001,2.555 -4.752001,3.631 -1.57,-0.603 -2.82,-1.021 -5.535,-0.04 -2.376,0.39 -3.54,-0.465 -3.156,-1.739 1.337,-4.433 7.466,-19.078 8.426,-21.088 z"
           id="path1012" />
        <path
           style="display:inline;fill:#ffffff;fill-opacity:1;stroke:#000000;stroke-width:1.8;stroke-miterlimit:4;stroke-dasharray:none;stroke-opacity:1"
           d="m 95.660379,378.51897 c -0.007,-0.01 -0.063,0.101 -0.138,0.26 h 0.06 c 0.06,-0.168 0.085,-0.252 0.078,-0.26 z"
           id="path281" />
        <path
           style="display:inline;fill:none;fill-opacity:1;stroke:#000000;stroke-width:1.8;stroke-miterlimit:4;stroke-dasharray:none;stroke-opacity:1"
           d="m 59.247379,413.32197 c 0.978,-1.51 1.386,-3.099 8.687,-3.395 l 5.632,-2.195 c 1.63,-2.088 2.809,-4.305 3.674,-6.64"
           id="path291" />
      </g>
    </g>
    <use
       xlink:href="#a"
       transform="rotate(-5.504,-28.217045,382.52606)"
       width="100%"
       height="100%"
       id="use283"
       x="0"
       y="0"
       style="display:inline" />
    <path
       style="display:inline;fill:#ffffff;fill-opacity:1;stroke:#000000;stroke-width:1.8;stroke-miterlimit:4;stroke-dasharray:none;stroke-opacity:1"
       d="m 13.448379,207.79597 c -7.218,-0.016 -24.877,3.342 -29.172,8.959 l -5.27,13.95 c 2.576,1.472 5.917,1.224 7.522,2.44 1.354,1.027 2.684,1.495 3.752,3.371 2.557,4.602 3.123,6.63 1.687,12.42 -4.043,16.298 -2.586,23.087 -1.527,30.012 -0.687,7.261 -0.09,15.442 2.027,24.145 1.253,3.199 0.097,5.626 -0.072,8.369 1.297,-4.138 2.725,-1.273 6.422,0.812 5.099,2.877 16.513,18.884 18.861,17.461 0.171,3.574 5.76,3.468 3.844,9.496 l 4.418,-3.535 c 1.259,1.3 1.466,4.328 4.277,3.104 l -1.66,1.38 c 20.905,13.286 12.244,44.648 13.496,42.606 l 5.228,3.637 3.803,-1.434 1.293,3.828 2.985,0.15 c 4.646,-1.97 4.273,-2.336 4.398,-4.423 l 3.021,-5.518 c 3.22,-0.698 4.582,-3.17 2.827,-8.615 2.18,-4.038 1.932,-8.464 2.246,-12.799 4.014,3.73 7.017,8.153 8.281,13.531 0.905,5.408 0.665,12.047 0.334,17.346 1.259,-0.894 2.451,-1.956 4.043,-1.748 0.494,2.562 1.31,4.288 2.193,5.775 0.636,-1.9 1.285,-3.78 2.451,-5.087 l 1.41,4.328 1.946,-4.317 c 0.549,1.69 1.097,3.367 2.768,3.881 2.718,-3.676 5.742,-3.178 8.042,-12.691 2.849001,-2.424 5.035001,-2.38 7.229001,-2.317 -4.624,-6.318 -0.465,-10.623 -3.96,-13.521 5.018,4.635 13.757,4.896 22.247,7.437 9.972,15.641 16.553,16.704 38.621,32.207 4.5,3.169 7.51,-0.78 2.106,-10.074 8.86,14.334 19.442,7.267 17.314,0.73 2.719,4.274 6.071,-6.296 3.248,-8.435 4.294,3.302 4.233,-10.057 0.113,-14.201 -13.824,-12.192 -32.217,-15.125 -42.863,-20.658 -10.702,-10.43 -17.966,-19.274 -32.082,-31.291 -18.045001,-25.201 -33.802001,-19.35 -50.560001,-34.852 l -15.15,-19.738 c -2.131,-2.24 -4.234,-4.24 -6.317,-5.98 l 0.556,-0.264 c -12.765,-8.658 -2.436,-15.19 -11.185,-31.346 -5.178,-9.56 -3.207,-14.806 -13.893,-18.482 h -0.002 a 16.443,16.443 0 0 0 -1.297,-0.05 z"
       id="path285" />
    <path
       style="fill:#ffffff;fill-opacity:1;stroke:#000000;stroke-width:1.8;stroke-linecap:round;stroke-linejoin:miter;stroke-miterlimit:4;stroke-dasharray:none;stroke-opacity:1"
       d="m -26.241621,234.76697 c 2.886,-8.078 14.318,-4.765 21.925,-2.269 -1.366,-1.24 -6.724,-4.062 -6.364,-6.872 0.69,-5.39 -2.347,-6.667 -5.043,-8.87 -4.25,4.709 -13.554,4.226 -10.518,18.01 z"
       id="path287" />
    <ellipse
       style="fill:#ffffff;fill-opacity:1;stroke:#000000;stroke-width:1.80099;stroke-linecap:round;stroke-linejoin:miter;stroke-miterlimit:4;stroke-dasharray:none;stroke-opacity:1"
       transform="matrix(0.99903638,-0.04388984,0.09051952,0.99589468,0,0)"
       cx="-35.889175"
       cy="220.28596"
       rx="0.91700333"
       ry="0.34400186"
       id="ellipse289" />
    <path
       style="display:inline;fill:none;fill-opacity:1;stroke:#000000;stroke-width:1.8;stroke-miterlimit:4;stroke-dasharray:none;stroke-opacity:1"
       d="m 124.84638,370.24297 -8.626,-20.88 c -4.762,-2.915 -9.198,-7.759 -12.9,-16.951"
       id="path991" />
    <path
       style="display:inline;fill:none;fill-opacity:1;stroke:#000000;stroke-width:1.8;stroke-miterlimit:4;stroke-dasharray:none;stroke-opacity:1"
       d="m 104.20838,348.55097 c 5.48,6.528 9.38,20.588 17.213,15.89"
       id="path989" />
    <path
       style="display:inline;fill:none;fill-opacity:1;stroke:#000000;stroke-width:1.8;stroke-miterlimit:4;stroke-dasharray:none;stroke-opacity:1"
       d="m 137.62338,352.43397 c 14.313,22.81 41.915,27.953 45.255,40.659"
       id="path987" />
    <path
       style="display:inline;fill:none;fill-opacity:1;stroke:#000000;stroke-width:1.8;stroke-miterlimit:4;stroke-dasharray:none;stroke-opacity:1"
       d="m 126.89938,350.05697 c -2.733,7.063 38.24,41.562 38.674,42.309"
       id="path985" />
    <path
       style="display:inline;fill:none;fill-opacity:1;stroke:#000000;stroke-width:1.8;stroke-miterlimit:4;stroke-dasharray:none;stroke-opacity:1"
       d="m 186.78638,384.54397 c -2.646,-6.552 -13.819,-11.397 -20.787,-17.94"
       id="path983" />
    <path
       style="display:inline;fill:none;fill-opacity:1;stroke:#000000;stroke-width:1.8;stroke-miterlimit:4;stroke-dasharray:none;stroke-opacity:1"
       d="m 30.217379,338.79897 c 16.165,6.457 41.525,13.642 45.919,32.344 m -39.216,-42.623 c 6.578,10.932 17.906,17.27 30.07,28.348"
       id="path981" />
    <g
       id="a"
       transform="rotate(10,-660.10735,70.906401)"
       style="display:inline">
      <path
         d="m 51.068,150.15 c -6.239,-7.016 7.93,-9.773 12.057,-9.819 20.446,-0.226 23.196,-24.144 20.085,-34.047 -7.032,-22.39 4.558,-33.234 18.272,-38.963 22.273,-9.304 43.197,-19.202 60.81,-32.536 7.899,-2.95 8.852,-0.339 6.433,4.973 l 23.38,-12.194 c 30.024,-17.154 19.157,0.122 6.993,11.382 41.165,-34.056 18.073,3.021 2.873,11.742 15.21,-6.244 33.049,-10.804 -9.34,30.34 33.606,-4.938 9.203,18.266 -2.077,23.706 26.68,0.099 26.416,20.055 -29.264,29.315 17.21,2.302 39.216,24.766 14.506,28.715 20.216,17.423 5.38,19.73 -6.918,15.827 9.974,13.518 9.664,25.814 -12.492,15.393 9.658,25 -11.004,14.666 -17.831,7.095 -0.226,13.327 -8.607,8.36 -19.587,-2.437 5.888,9.465 3.45,11.944 -13.156,2.534 -3.189,15.36 -21.012,-11.692 -31.518,-17.539 -3.451,4.486 -7.575,1.292 -12.005,-5.407 -7.329,0.497 -6.788,-7.338 -7.233,-14.129 -2.587,1.262 -5.206,2.808 -6.85,-4.475"
         style="opacity:1;fill:#ffffff;fill-opacity:1;stroke:#000000;stroke-width:1.8;stroke-linecap:round;stroke-linejoin:round;stroke-miterlimit:4;stroke-dasharray:none;stroke-opacity:1"
         transform="translate(2)"
         id="path293" />
      <path
         d="m 112.415,108.412 c 10.82,-0.969 37.033,-18.047 18.835,-19.587 13.278,-7.655 6.033,-11.702 0.231,-16.003 m -4.948,-15.55 c 6.329,-1.37 13.323,-2.647 4.212,7.134 -4.645,4.986 -12.65,7.644 -21.304,10.018 5.32,2.119 10.045,4.24 5.127,6.401 12.527,3.852 7.686,7.49 3.257,11.131 6.958,6.348 1.452,11.469 -5.41,16.456 M 202.78,41.468 c -13.506,11.062 -31.042,21.384 -54.944,31.88 3.154,7.591 -3.085,8.198 -7.947,9.828 M 104.184,193.286 95.1,182.665 m 31.423,16.169 -19.49,-21.453 m 34.87,14.562 -21.631,-23.549 m 25.406,3.322 c -0.902,-2.856 -15.46,-12.673 -15.46,-12.673 m 31.993,4.05 c -5.754,-5.35 -11.095,-10.844 -23.4,-13.935 m 28.078,-3.435 c -10.473,-5.984 -21.28,-8.945 -32.237,-10.553 m 55.64,-20.198 c -24.055,13.396 -44.758,7.646 -66.722,9.1 -5.22,-4.987 -9.972,-4.613 -14.838,-5.552 m 81.9,-25.758 c -29.09,18.942 -51.006,14.962 -75.85,20.336 m 84.927,-50.812 c -20.882,18.68 -40.36,22.24 -60.447,32.361 m -64.968,88.99 -0.226,-10.222 m 10.079,3.358 -1.214,-6.417 m 10.67,2.654 -2.537,-6.627 m 11.641,2.57 -2.889,-6.924 m 13.765,0.753 -7.295,-8.821 m 20.66,-2.46 -16.573,-14.207 m -4.563,63.882 C 97.788,196.379 93.026,188.969 87.246,182.373 m 31.722,16.269 c -7.698,-7.047 -12.52,-12.957 -18.62,-19.372 m 38.207,21.81 -26.303,-27.418 m 44.134,20.322 c -7.876,-16.249 -19.07,-20.578 -28.714,-30.478 m 41.206,15.085 C 155.834,165 144.126,158.829 132.763,154.581 m 43.033,8.183 c -12.2,-7.905 -22.29,-18.324 -38.044,-21.994 m 23.538,-6.72 -33.354,-4.815 m 62.618,-24.5 c -17.624,9.725 -36.944,11.563 -55.966,14.785 m 34.137,-79.762 c -7.064,3.828 -14.375,4.837 -21.168,11.76 m 51.541,-12.572 c -15.577,13.001 -41.174,22.043 -61.819,33.042 m 64.692,-21.3 c -14.087,11.816 -34.504,21.72 -52.638,32.314 m 43.299,-1.975 c -21.084,14.122 -42.949,19.308 -64.68,26.026 m -27.045,11.5 c 8.247,-4.528 9.716,-8.462 -0.991,-11.33 10.592,-4.26 8.103,-6.619 -1.202,-10.007 5.254,-3.069 3.116,-6.796 0.826,-9.205 10.644,-2.924 4.931,-6.984 -0.64,-11.034 M 67.376,160.3 c 8.231,1.442 9.464,-2.387 8.44,-7.914 7.022,-0.508 12.428,-2.37 10.157,-10.674 9.856,-0.727 10.364,-6.84 7.567,-10.448 4.921,-4.344 3.704,-8.152 0.922,-11.823 M 72.093,165.76 c 7.134,1.803 13.374,2.151 14.494,-5.834 8.547,2.49 11.599,-0.882 9.594,-9.646 8.72,-0.337 13.925,-3.246 7.874,-14.389 3.32,-2.53 5.18,-5.294 1.501,-8.938 m -31.262,56.685 c 7.756,-1.169 11.022,-3 9.853,-6.864 9.797,8.473 7.684,-1.176 9.456,-3.763 6.37,4.077 10.796,4.988 9.104,-4.058 12.182,3.263 13.32,-0.34 10.876,-6.17 9.482,2.696 14.652,-0.146 13.365,-11.281 13.49,-1.895 11.374,-10.706 4.059,-16.99 -7.264,-6.24 -16.987,-5.26 -25.45,-7.559"
         style="opacity:1;fill:none;fill-opacity:1;stroke:#000000;stroke-width:1.8;stroke-linecap:round;stroke-linejoin:round;stroke-miterlimit:4;stroke-dasharray:none;stroke-opacity:1"
         transform="translate(2)"
         id="path295" />
    </g>
    <path
       style="fill:#ffffff;fill-opacity:1;stroke:#000000;stroke-width:1.8;stroke-linecap:round;stroke-linejoin:miter;stroke-miterlimit:4;stroke-dasharray:none;stroke-opacity:1"
       d="m -7.548621,220.40697 c 1.896,5.161 8.775,8.035 12.649,2.21 -2.88,-4.794 -8.691,-7.995 -12.649,-2.21 z"
       id="path298" />
    <ellipse
       style="fill:#ffffff;fill-opacity:1;stroke:#000000;stroke-width:1.80636;stroke-linecap:round;stroke-linejoin:miter;stroke-miterlimit:4;stroke-dasharray:none;stroke-opacity:1"
       transform="matrix(0.98564699,0.16881948,-0.05094009,0.99870171,0,0)"
       cx="10.330219"
       cy="219.84846"
       rx="2.9500091"
       ry="3.2029946"
       id="ellipse300" />
  </g>
</svg>
