<?xml version="1.0" encoding="UTF-8" standalone="no"?>
<!-- Created with Inkscape (http://www.inkscape.org/) -->

<svg
   xmlns:dc="http://purl.org/dc/elements/1.1/"
   xmlns:cc="http://creativecommons.org/ns#"
   xmlns:rdf="http://www.w3.org/1999/02/22-rdf-syntax-ns#"
   xmlns:svg="http://www.w3.org/2000/svg"
   xmlns="http://www.w3.org/2000/svg"
   version="1.1"
   width="439.80661"
   height="439.80661"
   id="svg2">
  <defs
     id="defs4" />
  <metadata
     id="metadata7">
    <rdf:RDF>
      <cc:Work
         rdf:about="">
        <dc:format>image/svg+xml</dc:format>
        <dc:type
           rdf:resource="http://purl.org/dc/dcmitype/StillImage" />
        <dc:title></dc:title>
      </cc:Work>
    </rdf:RDF>
  </metadata>
  <g
     transform="translate(-134.85736,-150.16128)"
     id="layer1">
    <g
       id="g3854">
      <path
         d="m 242.14101,524.71797 c -12.48903,-9.18733 -27.22343,-28.97939 -33.67939,-45.24004 -4.9902,-12.56883 -6.32229,-18.77162 -6.3053,-29.36014 0.0193,-12.00091 0.63574,-13.17057 5.13353,-9.73995 6.13989,4.68313 13.90573,7.67973 19.92972,7.69028 4.5254,0.008 6.41326,-0.54815 10,-2.94552 5.22382,-3.4916 62.62694,-62.84906 65.17144,-67.39026 0.9625,-1.71778 1.75,-3.88324 1.75,-4.81212 0,-3.36853 -5.20302,-7.72902 -15.3386,-12.85482 -12.68468,-6.41493 -20.63233,-7.54665 -29.4114,-4.18811 -5.49752,2.10314 -6.58019,1.53079 -3.30318,-1.74622 7.69147,-7.69147 26.0274,-7.87243 48.95794,-0.48316 11.07122,3.56765 17.8503,4.11458 22.6673,1.82876 4.60091,-2.18327 17.42794,-14.45675 17.42794,-16.67583 0,-1.83621 -8.47088,-9.65723 -15.61916,-14.42091 -6.8124,-4.53985 -17.48843,-8.14307 -27.9009,-9.41673 -5.07822,-0.62116 -25.12048,-0.90838 -49.74251,-0.71282 l -41.23743,0.32751 -5.62454,2.76217 c -5.1079,2.50844 -11.68182,8.60775 -15.94723,14.7959 -2.6447,3.83686 -3.92823,1.54715 -3.92823,-7.00761 0,-20.99937 13.74108,-51.95882 30.09263,-67.80046 6.0537,-5.86491 6.90737,-5.59645 6.90737,2.17226 0,9.48371 3.29269,13.42828 17.0223,20.39233 8.96906,4.54936 12.56549,5.73598 24.9777,8.24126 17.71551,3.5757 28.38063,3.90877 30.23207,0.94415 0.68696,-1.1 1.83918,-2 2.56048,-2 0.72131,0 8.09645,4.37211 16.38922,9.71579 15.39931,9.923 25.4283,18.44145 34.31823,29.14935 2.75,3.31236 5.70764,6.04776 6.57252,6.07867 0.86489,0.0309 4.82791,-3.73595 8.80672,-8.37079 9.32683,-10.86465 14.76401,-15.44355 30.80135,-25.93918 17.31689,-11.33304 17.81776,-11.54942 20.37671,-8.80271 2.67722,2.87365 10.52687,2.89663 25.97814,0.0761 32.26126,-5.88921 49.56961,-17.76997 46.46706,-31.89582 -1.61863,-7.36956 5.66087,-2.84833 14.40766,8.94846 11.17812,15.07594 19.7851,35.41235 22.27448,52.62975 1.20198,8.31334 0.47087,14.35859 -1.82925,15.1253 -0.61308,0.20436 -2.2878,-1.63019 -3.7216,-4.07678 -3.13341,-5.34676 -13.29977,-13.26152 -18.4355,-14.35248 -2.03406,-0.43213 -23.94829,-0.78566 -48.69829,-0.78566 -50.16536,0 -51.7927,0.16299 -65,6.5101 -7.86339,3.77895 -21.05699,13.67187 -22.19766,16.64439 -0.77699,2.02481 11.88582,14.76987 17.26338,17.37551 5.55006,2.68922 9.43656,2.48727 21.55424,-1.12 25.08268,-7.46676 39.8978,-7.8509 48.63004,-1.26091 5.10475,3.85242 4.282,5.69495 -1.41724,3.17391 -3.79543,-1.6789 -6.0512,-1.97573 -12.0762,-1.58907 -6.21423,0.3988 -8.78014,1.17074 -15.91226,4.78705 -4.67682,2.37137 -10.26753,5.58958 -12.4238,7.15157 -3.40476,2.4664 -3.9205,3.35292 -3.9205,6.73911 0,3.01329 0.82205,4.88615 3.61838,8.24373 8.55766,10.27526 61.65882,63.74827 64.77198,65.22556 7.20747,3.42017 16.62546,1.57046 26.60641,-5.22556 3.01802,-2.05496 4.82668,-2.73034 5.5,-2.05375 1.44676,1.45377 1.15244,19.4456 -0.42171,25.77927 -5.51682,22.19727 -22.23499,47.91441 -38.9751,59.95444 -4.84062,3.48153 -8.73397,4.25925 -7.68893,1.5359 3.15963,-8.23387 3.13296,-18.41387 -0.0695,-26.54199 -0.93819,-2.38109 -7.41895,-13.10426 -14.40171,-23.82926 -6.98277,-10.725 -23.07027,-35.475 -35.75001,-55 -25.21315,-38.82466 -28.61931,-43.63847 -39.27085,-55.5 -3.95116,-4.4 -8.76302,-10.3625 -10.69302,-13.25 -1.93001,-2.8875 -3.78289,-5.2492 -4.11752,-5.24821 -0.33463,9.8e-4 -1.8877,2.02671 -3.45127,4.50163 -1.56357,2.47491 -5.40062,7.32223 -8.52677,10.77181 -11.31005,12.48019 -17.43912,21.14053 -46.22298,65.31283 -46.81513,71.84344 -45.67131,69.99791 -46.96441,75.77606 -1.16911,5.22414 -0.84765,18.03211 0.56185,22.38588 1.08722,3.35828 -2.06451,2.89215 -7.50484,-1.10992 z M 352.69859,283.82789 c -0.20881,-0.6875 -0.90362,-3.49649 -1.54401,-6.24221 -1.81094,-7.76451 -8.5145,-19.6433 -14.6066,-25.88305 -7.68759,-7.87391 -16.43875,-11.97187 -31.40697,-14.70713 -11.14412,-2.03646 -10.07125,-3.51976 4.5,-6.22149 12.4029,-2.29969 18.79463,-5.14862 25.51935,-11.37452 7.08936,-6.56349 12.98428,-17.45628 15.45366,-28.55567 2.85114,-12.81536 4.17486,-12.84738 7.33293,-0.17735 4.07941,16.36634 12.94657,29.51774 23.32937,34.6011 5.89296,2.88517 14.56339,5.34105 22.48664,6.3693 8.79605,1.14152 9.90707,3.71882 2.12281,4.9244 -7.96232,1.23315 -19.17623,4.62663 -24.04411,7.27607 -10.32494,5.61953 -21.72859,21.9798 -24.7381,35.49055 -0.7984,3.5843 -1.79766,5.75 -2.65306,5.75 -0.75474,0 -1.5431,-0.5625 -1.75191,-1.25 z m 13.3943,-37.60253 c 3.41625,-3.56308 7.41369,-6.37033 12.30418,-8.64077 4.2586,-1.97707 6.62577,-3.56424 5.74394,-3.85125 -8.10478,-2.63789 -12.00078,-4.71741 -16.44104,-8.77556 -4.86679,-4.44798 -7.02777,-8.12022 -12.28701,-20.87989 l -1.03045,-2.5 -1.24596,3 c -7.17794,17.28277 -11.57885,22.52176 -22.72416,27.05155 -3.17426,1.29012 -5.67098,2.61799 -5.54828,2.95082 0.12271,0.33283 3.36029,2.17462 7.19461,4.09285 8.41845,4.21158 14.30363,10.40912 18.96726,19.97396 l 3.34941,6.86944 3.32863,-7.00671 c 1.87356,-3.9438 5.54065,-9.3138 8.38887,-12.28444 z"
         id="path3068"
         style="fill:#1a1a1a" />
      <path
         d="m 175.52673,419.44437 a 138.84258,138.84258 0 1 1 -277.68515,0 138.84258,138.84258 0 1 1 277.68515,0 z"
         transform="matrix(1.576721,0,0,1.576721,296.91472,-291.27133)"
         id="path3074"
         style="fill:none;stroke:#000000;stroke-width:1.26845527;stroke-linecap:round;stroke-linejoin:bevel;stroke-miterlimit:4;stroke-opacity:1;stroke-dasharray:none;stroke-dashoffset:0" />
      <path
         d="m 561.64684,364.48203 a 202.15627,202.15627 0 1 1 -404.31254,0 202.15627,202.15627 0 1 1 404.31254,0 z"
         transform="matrix(1.0500692,0,0,1.0500692,-22.734573,-12.655938)"
         id="path3846"
         style="fill:none;stroke:#000000;stroke-width:1.90463638;stroke-linecap:round;stroke-linejoin:bevel;stroke-miterlimit:4;stroke-opacity:1;stroke-dasharray:none;stroke-dashoffset:0" />
    </g>
  </g>
</svg>
