<?xml version="1.0" encoding="UTF-8" standalone="no"?>
<!-- Created with Inkscape (http://www.inkscape.org/) -->

<svg
   xmlns:dc="http://purl.org/dc/elements/1.1/"
   xmlns:cc="http://creativecommons.org/ns#"
   xmlns:rdf="http://www.w3.org/1999/02/22-rdf-syntax-ns#"
   xmlns:svg="http://www.w3.org/2000/svg"
   xmlns="http://www.w3.org/2000/svg"
   xmlns:sodipodi="http://sodipodi.sourceforge.net/DTD/sodipodi-0.dtd"
   xmlns:inkscape="http://www.inkscape.org/namespaces/inkscape"
   width="82.875"
   height="74.125"
   id="svg4247"
   version="1.1"
   inkscape:version="0.48.2 r9819"
   sodipodi:docname="verces_symbol.svg">
  <defs
     id="defs4249" />
  <sodipodi:namedview
     id="base"
     pagecolor="#ffffff"
     bordercolor="#666666"
     borderopacity="1.0"
     inkscape:pageopacity="0.0"
     inkscape:pageshadow="2"
     inkscape:zoom="0.35"
     inkscape:cx="-155.56261"
     inkscape:cy="43.256305"
     inkscape:document-units="px"
     inkscape:current-layer="layer1"
     showgrid="false"
     fit-margin-top="0"
     fit-margin-left="0"
     fit-margin-right="0"
     fit-margin-bottom="0"
     inkscape:window-width="469"
     inkscape:window-height="425"
     inkscape:window-x="2501"
     inkscape:window-y="60"
     inkscape:window-maximized="0" />
  <metadata
     id="metadata4252">
    <rdf:RDF>
      <cc:Work
         rdf:about="">
        <dc:format>image/svg+xml</dc:format>
        <dc:type
           rdf:resource="http://purl.org/dc/dcmitype/StillImage" />
        <dc:title></dc:title>
      </cc:Work>
    </rdf:RDF>
  </metadata>
  <g
     inkscape:label="Layer 1"
     inkscape:groupmode="layer"
     id="layer1"
     transform="translate(-530.56262,-501.49349)">
    <g
       id="g4042"
       transform="translate(-50.43738,70.962241)">
      <path
         id="path4049"
         d="m 620.5,438.125 c -1.949,0.0151 -3.92556,0.23494 -5.90625,0.65625 -15.84552,3.37047 -25.96422,18.93573 -22.59375,34.78125 3.37047,15.84552 18.93573,25.96422 34.78125,22.59375 15.84552,-3.37047 25.96422,-18.96698 22.59375,-34.8125 C 646.42584,447.47892 634.143,438.01938 620.5,438.125 z m -1.8125,6.8125 c 8.73312,-0.13626 17.10953,7.82424 19.5,19.0625 2.63776,12.40084 -3.0424,24.10466 -12.6875,26.15625 -9.6451,2.05159 -19.58099,-6.31791 -22.21875,-18.71875 -2.63776,-12.40084 3.0424,-24.13591 12.6875,-26.1875 0.90423,-0.19234 1.81532,-0.2984 2.71875,-0.3125 z"
         style="fill:#000000;fill-opacity:1;stroke:#000000;stroke-width:0.5;stroke-miterlimit:4;stroke-opacity:1;stroke-dasharray:none;stroke-dashoffset:0"
         inkscape:connector-curvature="0" />
      <rect
         style="fill:#000000;fill-opacity:1;stroke:#000000;stroke-width:0.46627951;stroke-miterlimit:4;stroke-opacity:1;stroke-dasharray:none;stroke-dashoffset:0"
         id="rect4053"
         width="8.6511106"
         height="47.952633"
         x="566.29614"
         y="503.1402"
         transform="matrix(0.99499513,-0.09992338,0.09992338,0.99499513,0,0)" />
      <path
         sodipodi:nodetypes="ccaccac"
         inkscape:connector-curvature="0"
         id="path4078"
         d="m 582.16639,448.84001 16.57937,-17.0895 c 0,0 0.033,3.87144 0.7652,5.61148 1.12792,2.68058 5.35641,6.88681 5.35641,6.88681 l -8.16215,9.94762 c 0,0 -5.57651,-3.73324 -8.73605,-4.71874 -1.85763,-0.57942 -5.80278,-0.63767 -5.80278,-0.63767 z"
         style="fill:#000000;fill-opacity:1;stroke:#000000;stroke-width:1px;stroke-linecap:butt;stroke-linejoin:miter;stroke-opacity:1" />
      <path
         sodipodi:nodetypes="caccacc"
         inkscape:connector-curvature="0"
         id="path4080"
         d="m 645.93319,478.93794 c 0,0 7.05325,6.11758 11.35049,7.65202 1.72896,0.61736 5.48395,0.51013 5.48395,0.51013 l -14.0287,16.3243 c 0,0 -0.30098,-3.87993 -1.27534,-5.48395 -2.20715,-3.63349 -9.69255,-8.28968 -9.69255,-8.28968 z"
         style="fill:#000000;fill-opacity:1;stroke:#000000;stroke-width:1px;stroke-linecap:butt;stroke-linejoin:miter;stroke-opacity:1" />
    </g>
  </g>
</svg>
