<?xml version="1.0" encoding="UTF-8" standalone="no"?><svg xmlns="http://www.w3.org/2000/svg" width="432" height="336"><g opacity=".5"><circle cx="216" cy="168" r="162.05" fill="none" stroke="#adadad" stroke-width="5.9" opacity="1"/><circle cx="216" cy="168" r="58.15" fill="none" stroke="#adadad" stroke-width="5.9" opacity="1"/><circle cx="216" cy="168" r="126.65" fill="none" stroke="#adadad" stroke-width="1.5" opacity="1"/><circle cx="216" cy="168" r="117.36" fill="none" stroke="#adadad" stroke-width="1.5" opacity="1"/><circle cx="216" cy="168" r="78.84" fill="none" stroke="#adadad" stroke-width="1.5" opacity="1"/><circle cx="216" cy="168" r="72.43" fill="none" stroke="#adadad" stroke-width="1.5" opacity="1"/><circle cx="216" cy="168" r="5.45" fill="#fff" fill-rule="evenodd" opacity="1"/><path fill="none" stroke="#adadad" stroke-width="1.5" d="M216 168V95.63m0-6.56v-38.4m0-9.35V6.2m0 161.8-14.12-70.98m-1.28-6.44-7.49-37.65m-1.82-9.17-6.86-34.47M216 168l-27.7-66.86m-2.5-6.06L171.1 59.6m-3.58-8.63L154.08 18.5M216 168l-40.2-60.17m-3.65-5.46-21.33-31.92m-5.2-7.78L126.1 33.46M216 168l-51.17-51.17m-4.64-4.64-27.15-27.15m-6.61-6.61-24.85-24.85M216 168l-60.17-40.2m-5.46-3.65-31.92-21.33m-7.78-5.2L81.46 78.1M216 168l-66.86-27.7m-6.06-2.5-35.48-14.7m-8.63-3.58L66.5 106.08M216 168l-70.98-14.12m-6.44-1.28-37.65-7.49m-9.17-1.82-34.47-6.86M216 168h-72.37m-6.56 0h-38.4m-9.35 0H54.2m161.8 0-70.98 14.12m-6.44 1.28-37.65 7.49m-9.17 1.82-34.47 6.86M216 168l-66.86 27.7m-6.06 2.5-35.48 14.7m-8.63 3.58L66.5 229.92M216 168l-60.17 40.2m-5.46 3.65-31.92 21.33m-7.78 5.2L81.46 257.9M216 168l-51.17 51.17m-4.64 4.64-27.15 27.15m-6.61 6.61-24.85 24.85M216 168l-40.2 60.17m-3.65 5.46-21.33 31.92m-5.2 7.78-19.52 29.21M216 168l-27.7 66.86m-2.5 6.06-14.7 35.48m-3.58 8.63-13.44 32.47M216 168l-14.12 70.98m-1.28 6.44-7.49 37.65m-1.82 9.17-6.86 34.47M216 168v72.37m0 6.56v38.4m0 9.35v35.13M216 168l14.12 70.98m1.28 6.44 7.49 37.65m1.82 9.17 6.86 34.47M216 168l27.7 66.86m2.5 6.06 14.7 35.48m3.58 8.63 13.44 32.47M216 168l40.2 60.17m3.65 5.46 21.33 31.92m5.2 7.78 19.52 29.21M216 168l51.17 51.17m4.64 4.64 27.15 27.15m6.61 6.61 24.85 24.85M216 168l60.17 40.2m5.46 3.65 31.92 21.33m7.78 5.2 29.21 19.52M216 168l66.86 27.7m6.06 2.5 35.48 14.7m8.63 3.58 32.47 13.44M216 168l70.98 14.12m6.44 1.28 37.65 7.49m9.17 1.82 34.47 6.86M216 168h72.37m6.56 0h38.4m9.35 0h35.13M216 168l70.98-14.12m6.44-1.28 37.65-7.49m9.17-1.82 34.47-6.86M216 168l66.86-27.7m6.06-2.5 35.48-14.7m8.63-3.58 32.47-13.44M216 168l60.17-40.2m5.46-3.65 31.92-21.33m7.78-5.2 29.21-19.52M216 168l51.17-51.17m4.64-4.64 27.15-27.15m6.61-6.61 24.85-24.85M216 168l40.2-60.17m3.65-5.46 21.33-31.92m5.2-7.78 19.52-29.21M216 168l27.7-66.86m2.5-6.06 14.7-35.48m3.58-8.63 13.44-32.47M216 168l14.12-70.98m1.28-6.44 7.49-37.65m1.82-9.17 6.86-34.47" opacity="1"/><path fill="#adadad" d="M215.76 4.57c-4.97 21.73-9.07 43.99-18.54 62.9 6.75 0 6.94 9.5 1.45 9.5h-5.65c-1.82 5.79-4.82 11.38-8.2 16.9-6.18-1.5-12.14-3.33-17.43-6.08l-4 4c-3.88 3.88-10.46-2.98-5.7-7.75-19.72-6.57-38.08-19.09-56.65-30.78l-.92-.59c11.84 18.88 24.68 37.52 31.36 57.59 4.77-4.77 11.63 1.81 7.75 5.7l-4 3.99c2.8 5.38 4.64 11.45 6.16 17.74-5.44 3.3-10.94 6.23-16.63 8.03v5.66c0 5.48-9.51 5.29-9.51-1.46-18.6 9.3-40.42 13.43-61.82 18.3-.36.08-.72.15-1.07.24 21.72 4.97 43.98 9.07 62.9 18.54 0-6.75 9.5-6.94 9.5-1.46v5.66c5.78 1.82 11.37 4.82 16.9 8.2-1.52 6.17-3.33 12.14-6.09 17.43l4 4c3.88 3.88-2.98 10.46-7.75 5.69-6.57 19.73-19.08 38.08-30.78 56.65l-.59.93c18.88-11.84 37.52-24.68 57.59-31.36-4.77-4.77 1.8-11.63 5.69-7.75l4 4c5.38-2.8 11.45-4.63 17.74-6.16 3.3 5.44 6.23 10.94 8.03 16.63h5.66c5.48 0 5.29 9.51-1.46 9.51 9.3 18.6 13.43 40.42 18.3 61.82l.24 1.08c4.97-21.73 9.07-43.99 18.54-62.9-6.75 0-6.94-9.5-1.45-9.5h5.65c1.82-5.79 4.82-11.38 8.2-16.9 6.18 1.5 12.14 3.32 17.43 6.08l4-4c3.88-3.88 10.46 2.98 5.7 7.75 19.72 6.57 38.07 19.08 56.65 30.78l.92.59c-11.84-18.88-24.68-37.52-31.36-57.59-4.77 4.77-11.63-1.81-7.75-5.7l4-3.99c-2.8-5.38-4.64-11.45-6.16-17.74 5.44-3.3 10.94-6.24 16.63-8.03v-5.66c0-5.48 9.51-5.29 9.51 1.46 18.6-9.3 40.42-13.43 61.82-18.3.36-.08.72-.15 1.07-.24-21.72-4.97-43.98-9.07-62.9-18.54 0 6.75-9.5 6.94-9.5 1.45v-5.65c-5.78-1.82-11.37-4.82-16.9-8.2 1.52-6.18 3.33-12.14 6.09-17.43l-4-4c-3.88-3.88 2.98-10.46 7.75-5.69 6.57-19.73 19.08-38.08 30.78-56.65l.59-.93c-18.88 11.84-37.52 24.68-57.59 31.36 4.77 4.77-1.8 11.63-5.69 7.75l-4-4c-5.38 2.8-11.45 4.64-17.74 6.16-3.3-5.44-6.23-10.94-8.03-16.63h-5.66c-5.48 0-5.29-9.5 1.46-9.5-9.3-18.6-13.43-40.43-18.3-61.84l-.24-1.07zm0 84.56.24.01c12.97.05 20.8 3.16 30.88 5.98 8.6 4.76 16.06 8.2 24.88 17.01l.16.18c9.14 9.2 12.47 16.94 17.6 26.06 2.72 9.44 5.56 17.15 5.57 29.61l-.01.24c-.05 12.97-3.16 20.8-5.98 30.89-4.76 8.6-8.2 16.05-17.01 24.87l-.18.16c-9.2 9.14-16.94 12.47-26.06 17.6-9.44 2.72-17.15 5.56-29.61 5.57l-.24-.01c-12.97-.05-20.8-3.16-30.88-5.98-8.6-4.76-16.06-8.2-24.88-17.01l-.15-.17c-9.14-9.2-12.48-16.95-17.62-26.07-2.71-9.44-5.55-17.15-5.56-29.62l.01-.24c.05-12.96 3.16-20.8 5.98-30.88 4.76-8.6 8.2-16.05 17.01-24.87l.18-.16c9.2-9.14 16.94-12.47 26.06-17.6 9.44-2.72 17.15-5.56 29.61-5.57z" opacity="1" style="mix-blend-mode:normal" transform="translate(0 .02)"/><path fill="#adadad" d="m277.57 18.57-1.18 2.93c-12.59 16.97-26.38 21.75-38.28 22.32 8.78 1.95 16.54 3.96 26.2 8.03 9.61 3.91 16.5 7.96 24.04 12.76-8.02-8.82-14.4-21.95-11.3-42.86l1.23-2.87-.97 1.35c.09-.56.16-1.1.26-1.66zm-123.13.02c.1.55.17 1.08.26 1.63-.32-.45-.65-.88-.98-1.36l1.23 2.9c3.1 20.91-3.27 34.05-11.29 42.86 7.6-4.83 14.5-8.9 24.2-12.85 9.58-4.03 17.3-6.03 26.03-7.97-11.9-.57-25.7-5.35-38.28-22.32zm-42.05 77.28c-8.82 8.02-21.95 14.39-42.86 11.29l-2.87-1.22c.47.32.9.65 1.35.97-.56-.09-1.1-.16-1.66-.26l2.93 1.18c16.97 12.59 21.75 26.38 22.32 38.28 1.95-8.78 3.96-16.54 8.03-26.2 3.91-9.61 7.96-16.49 12.76-24.04zm207.2.01c4.84 7.6 8.9 14.5 12.86 24.21 4.03 9.57 6.03 17.3 7.97 26.02.57-11.9 5.35-25.7 22.32-38.28l2.9-1.17-1.64.26c.45-.32.88-.65 1.36-.98l-2.9 1.23c-20.91 3.1-34.05-3.27-42.86-11.29zm-228 94.45c-.57 11.9-5.35 25.69-22.32 38.28l-2.9 1.17 1.64-.26c-.45.32-.88.65-1.36.98l2.9-1.23c20.91-3.1 34.05 3.27 42.86 11.28-4.83-7.59-8.9-14.5-12.85-24.2-4.03-9.57-6.03-17.3-7.97-26.02zm248.82 0c-1.95 8.78-3.96 16.54-8.03 26.2-3.91 9.62-7.96 16.49-12.76 24.04 8.82-8.02 21.95-14.4 42.86-11.3l2.87 1.23c-.47-.32-.9-.65-1.35-.97.56.09 1.1.16 1.66.26l-2.93-1.18c-16.97-12.59-21.75-26.38-22.32-38.28Zm-52.06 81.49c-7.6 4.83-14.5 8.9-24.2 12.85-9.58 4.03-17.3 6.03-26.03 7.97 11.9.57 25.7 5.35 38.28 22.32l1.17 2.9-.26-1.64c.32.45.65.88.98 1.36l-1.23-2.9c-3.1-20.91 3.27-34.05 11.29-42.86zm-144.69.01c8.02 8.82 14.4 21.95 11.3 42.86l-1.23 2.87.97-1.35c-.09.56-.16 1.1-.26 1.66l1.18-2.92c12.59-16.98 26.38-21.76 38.28-22.33-8.78-1.95-16.54-3.96-26.2-8.03-9.61-3.91-16.5-7.96-24.04-12.76z" opacity="1" style="mix-blend-mode:normal" transform="translate(0 -.22)"/></g><g fill="#550003" stroke="#e7dfcb" stroke-width="6.9" paint-order="stroke markers fill"><g style="white-space:pre;inline-size:439.753"><path d="M35.77 130.89q-.63-1.16-2.21-2.32-1.59-1.16-2.54-2.32-.2-.21-.52-.74t-.74-.63q-.42.31-.74.63-.21.32-.53.74-.84 1.16-1.9 2.1-1.05.96-2.21 1.8 1.47-11.7 2.42-23.2t2.11-23.21l10.13-4.12q.42 4.33 2.43 7.39 2 3.06 4.11 6.11 2.11 2.96 3.8 6.44 1.8 3.48 1.8 8.65 0 2.1-.75 4-.63 1.8-1.9 3.17-1.26 1.27-3.05 2.11-1.7.74-3.7.74-3.48 0-6.01-2.32-2.53-2.43-2.53-6.12 0-1.37.53-2.74.52-1.48 1.9-2 .2 1.47 1.16 2.53 1.05.95 2.53.95 1.58 0 2.74-1.06 1.16-1.05 1.16-2.64 0-1.79-1.37-2.95-1.37-1.27-3.06-1.27-1.8 0-3.48.85-1.58.74-2.85 2-1.16 1.27-1.9 2.96-.63 1.58-.63 3.37 0 2.85.95 5.07 1.05 2.1 2.74 3.58 1.8 1.48 4.11 2.22 2.43.74 5.07.74 4.32 0 7.8-1.59 3.6-1.58 6.02-4.32 2.53-2.74 3.8-6.44 1.37-3.69 1.37-7.8 0-4.96-1.8-8.65-1.69-3.8-3.9-6.97-2.11-3.27-3.9-6.43-1.7-3.27-1.7-7.07v-.63l-21.4 8.86q.2-1.58.42-2.11.2-.53 1.37-1.69.2-.2.74-.63.63-.53 1.16-1.06.63-.52 1.05-.94.42-.53.42-.74 0-.43-.31-.64l-.42-.42q-2.64-2.42-5.07-4.53-2.42-2.22-4.53-5.07l-1.38-1.9q-.73-1.16-1.68-1.16-.53 0-1.16.64-.53.52-.95 1.16-.43.63-.95 1.26-2 2.75-4.54 5.07-2.53 2.21-5.27 4.53-.21.21-.53.42-.21.21-.21.64 0 .2.42.74l1.06 1.05q.63.53 1.16 1.06.63.52.84.73 2 2.11 2.21 4.75l.43 5.38L4 90.8v3.48l9.71-4.1q1.06 10.01 1.9 20.03.85 10.02 1.8 19.94-1.06-.84-2.22-1.8-1.05-.94-1.9-2.1-.32-.42-.53-.74-.2-.42-.73-.63-.43.31-.74.63-.21.32-.53.74-.95 1.16-2.53 2.32-1.58 1.26-2.22 2.32.32.74 1.69 1.8 1.37 1.05 1.9 1.79.32.52 1.05 1.47.85 1.06 1.38 1.06.52 0 1.26-1.06.85-1.05 1.16-1.47.74-.85 1.58-1.48.85-.63 1.59-1.48.2 1.8.42 3.59.31 1.9.31 3.8 0 1.16-.52 2-.53.84-1.16 1.37-.64.64-1.16.95-.53.42-.53.74 0 .21.42.63.53.42 1.16.95.63.64 1.16 1.06.63.52.85.74.31.31 1.05 1.26.74 1.06 1.27 1.06.52 0 1.26-1.06.74-.95 1.06-1.26.2-.22.74-.74.63-.42 1.26-1.06.63-.53 1.16-.95.53-.42.53-.63 0-.21-.53-.63-.53-.42-1.26-1.06-.64-.53-1.16-1.37-.53-.84-.53-2 0-3.38.84-7.28.74.74 1.48 1.37.84.63 1.69 1.48.31.31 1.05 1.37.74 1.16 1.27 1.16.52 0 1.26-1.06.85-1.05 1.16-1.47.64-.74 1.9-1.8 1.37-1.05 1.69-1.8zm72.85-6.54q-1.48-.74-2.95-1.9-1.38-1.27-1.9-2.95L93.1 87.74q-.2-.73.53-1.37.84-.63 1.69-.63v-1.58H74.86l-.63 1.26q.42.43 1.16 1.27.74.74 1.37 1.58.63.74.95 1.58.42.74.32 1.16L66 126.56l1.16.53 26.69-9.6.32 1.06.42 1.58q.32.84.53 1.58.2.74.2.95 0 .85-1.26 1.16-1.26.21-1.8.21v1.58H108Zm-15.5-9.07H79.28l6.97-22.37zm45.94-23.63-3.48-11.18-1.69-.74q0 .31-.2 1.05-.11.74-.43 1.48-.21.74-.63 1.37-.43.53-1.06.53h-19.73q-.52 0-.84-.42-.21-.53-.21-.95 0-.21.21-.85l-1.8-.74q-.84 2.32-1.9 5.38-1.05 2.96-2.42 4.65l1.16 1.16q1.16-.43 2.75-.53 1.68-.21 2.84-.21h12.77l-6.65 4.11v26.58q0 .95-1.05 1.38-1.06.31-1.8.31v1.58h15.4l.64-1.26q-.53-.32-1.27-.84-.74-.53-1.47-1.27-.74-.74-1.27-1.37-.53-.74-.53-1.37V91.65Zm6.18 30.69q0 .95-1.05 1.38-1.06.31-1.8.31v1.58h15.4l.64-1.26q-.53-.32-1.27-.84-.74-.53-1.48-1.27-.73-.74-1.26-1.37-.53-.74-.53-1.37V106q1.27 0 2.43.94 1.26.95 2.32 2.11 1.05 1.16 1.8 2.11.83.95 1.36.95.53 0 1.27-.95.84-.95 1.9-2.1 1.05-1.17 2.21-2.12 1.16-.95 2.43-.95v13.5q0 .64-.53 1.38-.53.63-1.27 1.37-.63.74-1.47 1.27-.74.52-1.16.84l.74 1.26h15.3v-1.58q-.85 0-1.9-.31-.96-.43-.96-1.38v-34.8q0-.64.53-1.48.53-.85 1.27-1.7.74-.84 1.47-1.57.74-.85 1.16-1.27l-.63-1.27q-3.7 1.48-7.6 2.54-3.9.95-7.8 1.37v1.69q.84 0 1.8.31 1.05.32 1.05 1.37v14.77q-1.37 0-2.64-.95-1.16-.95-2.21-2.1-.95-1.27-1.8-2.22-.74-.95-1.16-.95-.53 0-1.37.95-.74.95-1.8 2.21-.94 1.16-2.2 2.11-1.17.95-2.54.95V87.53q0-1.05.95-1.37 1.05-.31 1.9-.31v-1.7h-15.3l-.74 1.27q.43.32 1.16.95.85.53 1.59 1.27.74.63 1.26 1.37.53.74.53 1.27zm79.6-38.18-1.58-1.37q-.63.84-1.8 1.16-1.16.2-2.21.2h-31.96q.2.54.1 1.17-.1.63-.31 1.05l-4.12 8.34 1.69.74q.84-1.38 2.32-2.54 1.58-1.26 3.38-1.26h9.17l-6.54 4.11v26.58q0 .95-1.05 1.38-1.06.31-1.9.31v1.58h15.4l.63-1.26q-.42-.32-1.16-.84-.74-.53-1.47-1.27-.74-.74-1.27-1.37-.53-.74-.53-1.37v-11.6l1.9 1.68q.95.74 1.8 1.69.63.63 1.16 1.37l1.05 1.27q.21.2.63.2.32 0 .53-.2.63-.64 1.16-1.27l1.16-1.37q.85-1.06 1.9-1.9 1.05-.95 2.22-1.8.2-.2.2-.52 0-.42-.2-.63-1.9-1.38-3.17-2.64-.53-.53-1.27-1.37l-.63-.95zm-11.92 8.44q0 .52-.63 1.47-.64.95-1.06 1.48l-9.6 10.55V91.65h10.55q.32 0 .53.31.21.32.21.64zm16.1 29.74q0 .95-1.06 1.38-1.05.31-1.8.31v1.58h15.3l.74-1.26q-.42-.32-1.26-.84-.74-.53-1.48-1.27t-1.27-1.37q-.52-.74-.52-1.37V87.53q0-1.16 1.05-1.47 1.06-.32 1.8-.32v-1.58h-15.3l-.74 1.26q.42.21 1.16.85.84.52 1.58 1.26.74.64 1.27 1.37.53.74.53 1.27zm42.57 3.27h13.3l2.31-7.38h-8.23q2.43-3.48 4.12-8.12 1.69-4.64 1.69-9.07 0-5.07-1.7-10.24-1.68-5.17-5.37-8.75l-19 10.55v-5.07q0-1.16 1.06-1.47 1.06-.32 1.8-.32v-1.58h-15.3l-.74 1.16q.43.31 1.16.95.85.52 1.59 1.26.73.64 1.26 1.37.53.64.53 1.27v32.17q0 .95-1.06 1.38-1.05.31-1.79.31v1.58h15.4l.64-1.26q-.53-.32-1.27-.84l-1.48-1.27q-.74-.63-1.26-1.37-.53-.74-.53-1.37V96.6l10.86-6.11q3.49 3.48 5.07 8.44 1.69 4.85 1.69 9.8 0 4.23-1.27 8.34-1.27 4.11-4 7.28zm32.97 0q1.8 0 3.9-.2 2.22-.32 4.33-1.06 4.22-1.48 7.6-4.12 3.37-2.63 5.7-6 2.42-3.49 3.68-7.5 1.27-4 1.27-8.23 0-4.11-1.27-8.22-1.26-4.22-4-8.13l-1.48-.42q-.42 1.58-1.8 2-1.26.43-2.63.43h-27.22v1.37q1.06.32 1.69 1.26.74.95.74 2.11v33.44q0 .95-1.06 1.38-1.05.31-1.9.31v1.58zm15.3-33.96q.84 1.26 1.37 3.8.63 2.53.63 5.16 0 3.7-1.16 7.6-1.05 3.8-3.06 6.96-2 3.06-4.85 5.06-2.85 2-6.22 2-1.37 0-2.11-.94-.74-.95-.74-2.22V91.65Zm63.46 7.07-1.37-.64q-1.59 1.48-2.64 2.11-1.05.53-2.74.74V82.05h-1.27l-4.75 5.59q-3.05-2.43-5.8-3.27-2.74-.85-5.9-.85-4.54 0-8.23 1.59-3.59 1.47-6.54 4.32-2.85 2.85-5.07 6.86-2.1 3.9-3.69 8.65 1.58 4.85 3.7 8.86 2.2 3.9 5.06 6.75 2.95 2.74 6.54 4.33 3.69 1.47 8.23 1.47 3.16 0 5.9-.74 2.75-.84 5.8-3.37l4.75 5.48h1.27v-18.77h3.9l1.48-1.27q-.53-.2-.74-.63-.1-.42-.1-.85 0-.31.2-1.26.32-1.06.64-2.22.42-1.16.74-2.32.42-1.16.63-1.68zm-9.7 2.21h-26.17q.42-2.53 1.37-4.96 1.06-2.42 2.64-4.32 1.69-2 3.9-3.17 2.22-1.16 5.07-1.16t5.06 1.16q2.32 1.16 4.01 3.06 1.69 1.9 2.74 4.43 1.06 2.43 1.37 4.96zm0 8.02q-.32 2.53-1.38 5.06-1.05 2.43-2.74 4.43-1.69 1.9-4 3.06-2.22 1.16-5.07 1.16t-5.07-1.16q-2.21-1.27-3.9-3.16-1.58-1.9-2.64-4.33-.95-2.53-1.37-5.06zm50.27-11.4q0-2.53-.95-4.95-.95-2.43-2.53-4.43-1.48-2.11-3.48-3.7-2-1.68-4.01-2.53l-1.27.74q.42.53.42 1.48h-21.2q-.63 0-1.06-.53-.42-.53-.73-1.16l-.43-1.48q-.1-.74-.1-1.26l-1.69.74-3.48 11.18h12.87l-6.54 4.11v26.58q0 .95-1.06 1.38-1.05.31-1.79.31v1.58h15.3l.74-1.26q-.53-.32-1.27-.84-.74-.53-1.48-1.27t-1.26-1.37q-.53-.74-.53-1.37v-11.71q3.16 3.58 7.17 7.07 4.01 3.37 7.6 6.11 3.58 2.75 6.01 4.43l2.53 1.7 1.06-.54-10.34-17.93q2.32 0 4.43-.84 2.11-.85 3.7-2.32 1.57-1.59 2.42-3.59.95-2 .95-4.33zm-25.53 5.7v-11.6h5.8q1.69 0 3.59.42 1.9.32 3.48 1.27 1.58.94 2.64 2.53 1.05 1.58 1.05 3.9 0 1.69-.74 2.95-.74 1.16-1.9 2-1.16.75-2.63 1.17-1.37.31-2.75.31-2.42 0-4.74-.73-2.32-.85-3.8-2.22z" aria-label="Pathfinder" transform="matrix(1.0126 0 0 1.0162 -.97 .53)"/></g><g style="white-space:pre;inline-size:439.753"><path d="M93.9 88.06q0-4.22-1.48-7.91-1.37-3.8-3.9-6.54-2.54-2.74-6.12-4.33-3.48-1.68-7.81-1.68-3.27 0-6.12 1.05-2.74.95-4.85 2.85-2 1.9-3.27 4.64-1.16 2.64-1.16 6.01 0 .21.1.74.11.42 0 .21l-6.64-13.6-1.8 1.47q.64 2.74.74 5.6.21 2.84.21 5.58 0 4.64-.63 10.13-.63 5.49-2.64 9.7-.94-2-1.58-4.43-.63-2.53-1.05-5.06-.32-2.64-.53-5.17-.1-2.63-.1-4.85 0-2.85.2-5.8.22-2.96.85-5.7l-1.9-1.48-6.65 13.61q-.1.21 0-.2.11-.54.11-.75 0-3.37-1.16-6-1.16-2.75-3.27-4.65-2-1.9-4.85-2.85-2.75-1.05-6.02-1.05-4.32 0-7.9 1.68-3.6 1.59-6.13 4.33t-3.9 6.54q-1.37 3.7-1.37 7.91 0 5.06 1.37 9.39 1.37 4.32 3.48 8.33 2.22 3.9 4.85 7.5 2.75 3.58 5.38 7.06 2.64 3.48 4.96 6.96 2.32 3.59 3.7 7.39.84 2.1 1.26 4.22.42 2.1.42 4.43l2.85 1.26 16.98-23.2 17.1 23.2 2.84-1.26q0-4.22 1.48-8.34 1.37-3.8 3.7-7.38 2.31-3.59 4.95-7.07l5.38-7.07q2.74-3.69 4.96-7.6 2.21-3.9 3.58-8.33t1.37-9.49zm-10.77-2.53q0 4.85-1.05 9.28t-2.74 8.65q-1.59 4.12-3.7 8.34-2 4.11-4 8.33-1.7 3.48-3.17 7.07-1.37 3.58-1.9 7.49l-11.7-21.63 7.48-10.44q.95-1.16 2-1.16 1.17 0 1.8.84l1.58-1.58-4.32-9.07q1.48 1.26 3.16 2.1 1.8.75 3.9.75 3.8 0 6.02-2.75 2.32-2.85 2.32-6.54 0-1.26-.42-2.74-.42-1.48-1.27-2.74-.74-1.27-1.9-2.11-1.16-.85-2.74-.85-1.58 0-2.95 1.16-1.27 1.06-1.27 2.75 0 1.58 1.16 2.74 1.16 1.16 2.74 1.16 2.32 0 3.38-2.32.53.74.63 1.58.21.74.21 1.58 0 1.27-.42 2.54-.42 1.16-1.26 2.1-.74.95-1.9 1.59-1.06.63-2.32.63-1.8 0-3.17-1.05-1.26-1.06-2.1-2.54-.75-1.58-1.17-3.27-.32-1.79-.32-3.27 0-2.1.53-4.11.64-2.11 1.8-3.8Q67.3 72.55 69 71.6q1.8-1.05 4.11-1.05 2.85 0 4.75 1.48 1.9 1.47 3.06 3.69 1.27 2.21 1.69 4.85.52 2.64.52 4.96zm-40.71 27.53-11.5 22.15q-.53-3.9-2-7.6-1.38-3.68-3.07-7.16-2.1-4.22-4.22-8.34-2-4.22-3.8-8.44-1.68-4.32-2.74-8.75-1.05-4.43-1.05-9.4 0-2.31.42-4.95.53-2.64 1.69-4.85 1.16-2.22 3.06-3.7 1.9-1.47 4.75-1.47 2.32 0 4 1.05 1.8.95 2.96 2.64 1.26 1.69 1.8 3.8.62 2 .62 4.11 0 1.48-.42 3.27-.31 1.7-1.16 3.27-.74 1.48-2 2.54-1.27 1.05-3.06 1.05-1.37 0-2.53-.63-1.06-.64-1.9-1.58-.74-.95-1.16-2.11-.42-1.27-.42-2.54 0-1.68.84-3.16 1.05 2.32 3.48 2.32 1.48 0 2.64-1.16 1.26-1.16 1.26-2.74 0-1.7-1.37-2.75-1.26-1.16-2.95-1.16-1.48 0-2.74.85-1.16.84-2 2.1-.75 1.27-1.17 2.75-.42 1.48-.42 2.74 0 3.7 2.21 6.54 2.33 2.75 6.23 2.75 2 0 3.8-.74 1.79-.85 3.27-2.11l-4.43 9.07 1.58 1.58q.84-.84 1.8-.84 1.15 0 2.1 1.16zm59.76 9.28q0 .95-1.05 1.38-1.06.31-1.8.31v1.58h15.3l.74-1.26q-.42-.32-1.27-.84-.73-.53-1.47-1.27t-1.27-1.37q-.53-.74-.53-1.37V87.53q0-1.16 1.06-1.47 1.05-.32 1.8-.32v-1.58h-15.3l-.74 1.26q.42.21 1.16.85.84.52 1.58 1.26.74.64 1.27 1.37.52.74.52 1.27zm29.71-6.32V87.64q0-1.06 1.05-1.37 1.06-.32 1.8-.32v-1.8h-15.3l-.74 1.17q.42.31 1.16.95.85.52 1.58 1.26.74.64 1.27 1.37.53.64.53 1.27v32.17q0 .95-1.06 1.38-1.05.31-1.8.31v1.58h10.66l9.81-17.19 4.54 11.5q.32.74.32 1.26.1.53.1.74 0 .64-.84 1.48-.74.74-1.69.74v1.47h15.82l.53-1.26q-1.26-.53-2.74-1.9-1.48-1.48-2-2.74l-6.23-15.61q-.21-.53.42-1.06.74-.63 1.27-.63v-1.7h-5.07l4.44-7.48q1.58-2.74 4-5.06 2.54-2.32 5.91-2.32l-.53-1.7h-14.76zm33.71 6.32q0 .95-1.05 1.38-1.06.31-1.8.31v1.58h15.3l.74-1.26q-.43-.32-1.27-.84-.74-.53-1.48-1.27-.73-.74-1.26-1.37-.53-.74-.53-1.37V87.53q0-1.16 1.06-1.47 1.05-.32 1.79-.32v-1.58h-15.3l-.74 1.26q.43.21 1.16.85.85.52 1.59 1.26.74.64 1.26 1.37.53.74.53 1.27z" aria-label="Wiki" transform="matrix(1.0126 0 0 1.0162 122 128.5)"/></g></g></svg>